<svg width="272" height="242" viewBox="0 0 272 242" fill="none" xmlns="http://www.w3.org/2000/svg">
<path d="M183.611 210.885L147 209.241C149.982 218.626 152.806 227.525 154.754 233.679C155.386 235.669 154.479 237.819 152.605 238.777L152.169 239L152.792 238.743C162.11 234.903 192.28 221.659 198 219.063L194.478 209C191.043 210.42 187.331 211.064 183.611 210.885Z" fill="white"/>
<path d="M176.559 217.421C173.427 220.16 171.061 223.875 167.817 227.551C167.351 228.079 165.441 229.463 163.97 228.229C163.002 227.417 162.862 225.377 163.216 224.545C165.123 220.014 165.904 218.64 167.321 215.467C165.594 217.446 164.247 219.103 162.202 221.351L160.118 223.642L157.5 226.52C157.5 226.52 155.649 228.668 153.642 231C151.508 223.59 148.767 214.088 146 204.506C148.503 201.093 150.708 197.242 153.769 194.322C155.894 192.154 158.596 190.772 161.488 190.375C162.683 190.295 163.882 190.34 165.07 190.507C167.336 190.759 169.594 191.08 171.844 191.47C175.934 192.178 180.518 193.01 183.789 190C188.028 194.079 191.875 202.129 194 209.643C193.236 210.046 192.501 210.513 191.802 211.037C191.329 211.389 189.808 212.854 189.305 213.152C185.425 215.396 181.189 216.82 176.822 217.346" fill="white"/>
<path d="M94.8413 109.172C95.4382 114.41 94.341 119.704 91.7203 124.232C92.8252 127.347 93.7257 130.535 94.4158 133.775L94.4698 134.057C89.522 135.881 81.5201 138.271 75.8604 140L75.5362 138.429C75.2659 137.122 73.5882 130.541 72.6139 128.913C71.6986 127.568 70.6221 126.347 69.4099 125.281C67.3978 123.205 65.5057 121.008 63.7434 118.703C62.7539 117.509 61.7133 114.623 62.0726 112.943C62.4011 110.931 63.2986 109.064 64.6523 107.576C65.3927 106.918 66.3718 106.621 67.3394 106.761L67.2001 106.474C66.4795 105.411 66.2477 104.075 66.566 102.82C67.0646 101.159 67.8304 100.845 69.1983 100.562C69.4535 100.517 69.713 100.506 69.9709 100.528C68.8657 99.0359 69.5051 97.4274 70.5418 96.3899C71.3631 95.5347 72.4634 95.0255 73.6286 94.9612C74.2911 94.9146 74.9562 94.9222 75.6176 94.984L74.9577 93.2035C73.7209 89.7127 72.4862 86.2208 71.2536 82.7278C70.9227 81.8773 70.6727 80.9956 70.5068 80.0952C70.2309 78.6103 70.579 77.0744 71.4644 75.8697C72.3353 74.8236 74.0069 74.8032 75.2781 75.3749C76.6727 76.0032 77.4027 77.2081 78.2164 78.7247C80.8586 83.6483 84.1767 93.3732 85.5416 98.8482L85.8887 100.241C87.7156 99.6681 89.6544 99.4223 91.2278 100.431C92.5478 101.277 93.2747 102.825 93.7802 104.341C94.3011 105.908 94.6569 107.527 94.8413 109.172Z" fill="white"/>
<path d="M151.17 90.3278C152.219 89.8852 153.219 89.4275 154.101 88.9888L160.661 85.23C163.07 83.0808 165.217 80.654 167.058 78C167.401 79.7367 167.685 81.1728 167.685 81.1728C168.538 84.7206 169.117 86.2372 170 87.3728C169.784 89.0621 169.257 90.6963 168.445 92.192C168.321 92.4359 168.199 92.6768 168.078 92.9146C166.576 96.066 164.734 99.0426 162.585 101.791C161.069 103.628 159.322 105.261 157.388 106.649C155.948 106.031 154.555 105.306 153.223 104.48C148.87 106.725 142.852 106.493 138.612 104.911C138.182 104.754 137.765 104.563 137.365 104.341C137.05 104.621 136.743 104.899 136.436 105.176C135.075 106.181 134.167 106.871 132.512 108C131.81 106.311 131.232 104.524 130.441 102.592C129.35 98.5984 128.604 96.6013 128 94.1306C129.545 93.5765 130.906 93.1196 131.973 92.8015C134.935 93.4139 137.978 93.5324 140.979 93.1522C142.161 93.0166 143.335 92.8212 144.497 92.567C146.781 92.0121 149.013 91.263 151.17 90.3278Z" fill="white"/>
<path d="M166.062 80.3844C166.718 82.9522 167.381 85.8276 169.298 87.8581C170.327 88.8276 171.526 89.6203 172.842 90.2009C174.304 90.9612 175.862 91.5428 177.478 91.9316C178.539 92.2088 179.636 91.6183 179.928 90.6127C180.22 89.6071 179.597 88.5672 178.537 88.29C177.848 88.135 177.173 87.9309 176.517 87.6795C176.417 87.6417 175.979 87.4631 176.418 87.6449C176.226 87.5662 176.033 87.4875 175.842 87.401C175.511 87.2539 175.179 87.0997 174.852 86.9376C174.239 86.6369 173.644 86.305 173.069 85.9432C172.925 85.8504 172.784 85.7536 172.642 85.6584C172.282 85.4224 172.98 85.9338 172.666 85.6757C172.473 85.5184 172.288 85.3611 172.113 85.1856C171.978 85.0511 171.881 84.7923 172.185 85.2879C172.128 85.1966 172.049 85.1125 171.985 85.0251C171.867 84.8623 171.757 84.6947 171.653 84.5232C171.541 84.3368 171.438 84.1448 171.342 83.9505C171.315 83.897 171.202 83.7412 171.212 83.6783C171.34 83.9704 171.364 84.0229 171.284 83.8356C171.255 83.768 171.226 83.6995 171.201 83.6311C170.672 82.2431 170.239 80.824 169.903 79.3829C169.602 78.3839 168.512 77.7975 167.453 78.0644C166.408 78.3596 165.795 79.3843 166.063 80.3867L166.062 80.3844Z" fill="#211715"/>
<path d="M175.339 51.2138C176.451 50.4353 177.826 50.1018 179.183 50.2816C180.926 50.3639 182.489 51.3564 183.272 52.8788C184.51 55.3624 184.044 59.6886 182.812 62.2857C181.774 64.8128 179.988 66.9803 177.681 68.5109C176.139 69.3504 174.402 69.7891 172.637 69.7851C172.453 70.2099 172.327 70.5041 172.327 70.5041C171.719 71.8324 170.258 74.167 170.258 74.167C168.01 77.7192 165.249 80.9375 162.062 83.7229L155.199 87.5472C151.995 89.1129 148.625 90.3338 145.15 91.1884C143.934 91.4471 142.706 91.6458 141.47 91.7838C133.557 92.6758 126.929 90.817 120.597 86.0305C114.556 81.4648 111.779 74.0882 110.626 65.8813C109.974 61.2362 109.378 56.1918 108.563 51.1489C108.563 51.1489 101.69 23.5289 135.984 23.0107C178.584 22.3643 175.339 51.2138 175.339 51.2138Z" fill="white"/>
<path d="M156.926 37.5794C155.059 33.7325 151.465 29.5732 147.39 28.4478C143.779 27.9062 140.121 27.7506 136.477 27.9835C130.044 28.3347 118.579 31.0577 118.579 31.0577C110.892 34.7116 106.929 41.7735 108.217 53.1093H107.308C105.962 46.6347 105.652 39.9836 106.391 33.4098C107.365 26.3828 109.464 20.077 114.616 14.7986C121.672 5.50167 130.123 2.23451 142.136 1.15336C149.976 0.447885 161.73 1.82166 172.92 12.868C178.065 18.1994 180.267 21.8842 182.147 28.4312C183.277 32.488 183.899 36.672 184 40.8853C183.903 44.4293 183.57 51.7268 181.695 56L181.156 54.8809C180.381 53.3218 178.836 52.3053 177.112 52.2211C175.77 52.0369 174.41 52.3785 173.31 53.1757L166.159 51.9253C165.725 49.0496 165.087 46.2091 164.251 43.4256C163.685 42.0036 162.822 40.7222 161.72 39.6697C160.452 38.5662 158.9 37.8507 157.244 37.6071" fill="#B3B3B3"/>
<path d="M229.009 163.033C227.263 153.519 225.844 147.133 220.522 128.751C217.837 119.486 213.537 110.898 209.507 106.723C205.023 102.077 199.891 99.3601 193.782 97.1777C188.557 95.3136 181.896 92.9292 176.69 91.212C175.132 90.6978 170.501 89.0373 170.501 89.0373L170.395 89C170.164 90.7 169.62 92.3439 168.79 93.8504C167.137 97.3389 165.094 100.634 162.699 103.673C162.333 104.11 161.952 104.537 161.559 104.955C160.264 106.319 158.838 107.554 157.301 108.644C155.821 108.017 154.39 107.283 153.019 106.45L152.631 106.596C148.138 108.708 142.089 108.443 137.795 106.865C137.349 106.705 136.916 106.509 136.501 106.281C136.175 106.568 135.853 106.853 135.535 107.135C134.121 108.164 133.178 108.87 131.459 110.025C130.73 108.297 130.129 106.468 129.307 104.492C128.213 100.551 127.454 98.5112 126.84 96.1035L126.771 95.834C120.071 98.2037 110.082 102.294 105.397 105.232C103.141 106.612 101.207 108.449 99.7228 110.622C98.2754 113.37 97.1748 116.284 96.4459 119.297H93.0526C92.5202 120.863 91.8147 122.366 90.9489 123.778C92.0896 126.859 93.0193 130.012 93.7316 133.216L93.7874 133.493C87.0944 135.856 75.0003 139.179 70 140.738C72.3819 149 75.1229 158.073 78.3008 166.128C97.6466 166.224 116.45 166.288 126.335 166.354C129.332 166.371 131.976 168.298 132.879 171.123C135.365 178.89 139.493 191.86 143.566 204.676C146.175 201.442 148.471 197.796 151.661 195.03C153.875 192.977 156.69 191.668 159.703 191.292C160.948 191.217 162.198 191.258 163.435 191.417C165.795 191.656 168.148 191.959 170.492 192.329C174.754 193 179.53 193.787 182.937 190.937C188.083 195.437 192.674 205.041 194.519 213C200.902 210.963 213.666 206.16 221.488 200.379C226.805 196.45 228.233 192.418 229.543 188.6C230.302 186.385 230.908 180.899 230.994 178.598C231.097 175.62 229.795 167.089 229.009 163.033Z" fill="#00AEEF"/>
<path d="M163.223 88.4335C165.85 85.9659 168.197 83.1935 170.218 80.1704C171.579 78.2189 172.765 76.1411 173.76 73.9632C174.257 73.0183 173.959 71.8339 173.08 71.2645C172.176 70.7234 171.022 71.0386 170.489 71.9723C169.525 74.0803 168.382 76.0941 167.073 77.9895C165.19 80.7965 162.999 83.3652 160.544 85.6435C159.814 86.4157 159.819 87.6561 160.555 88.4222C161.291 89.1882 162.482 89.1932 163.223 88.4335Z" fill="#211715"/>
<path d="M112.619 15.5512C108.148 21.0276 106.028 27.6002 105.288 34.4271C104.607 41.204 105.136 48.0412 106.854 54.6513C107.459 57.0138 111.306 56.0137 110.699 53.6464C109.143 47.5419 108.645 41.2384 109.223 34.9823C109.778 29.0846 111.571 22.9648 115.442 18.2232C116.186 17.4716 116.186 16.302 115.442 15.5504C114.66 14.8165 113.4 14.8165 112.617 15.5504L112.619 15.5512Z" fill="#211715"/>
<path d="M184.417 57.0796C185.939 53.6889 186.435 49.9331 186.751 46.2552C187.089 43.0205 187.083 39.7587 186.733 36.5253C185.817 29.238 183.769 22.1538 179.216 16.3104C174.136 9.71976 167.287 4.73924 159.483 1.96067C153.403 -0.13321 147.078 -0.389302 140.755 0.439689C136.55 0.919718 132.432 1.98536 128.517 3.6062C124.788 5.2395 121.404 7.57694 118.545 10.4927C116.858 12.195 119.475 14.8377 121.163 13.1345C125.946 8.30848 131.955 5.71487 138.55 4.52782C144.367 3.48165 150.269 3.29328 155.966 4.79481C163.184 6.82164 169.662 10.9217 174.612 16.596C176.809 18.9704 178.611 21.6869 179.95 24.6408C181.227 27.7059 182.138 30.9138 182.662 34.1963C183.247 37.6037 183.418 41.0702 183.173 44.5194C182.953 48.0401 182.676 51.9429 181.216 55.1935C180.731 56.0885 181.023 57.2101 181.881 57.7498C182.765 58.2618 183.893 57.9634 184.414 57.0796H184.417Z" fill="#211715"/>
<path d="M151.287 87.2441C143.47 91.1144 134.145 93.1409 125.908 89.2994C122.073 87.6303 118.766 84.9328 116.349 81.5012C114.129 77.9306 112.644 73.947 111.984 69.7871C110.903 64.0206 110.451 58.1307 109.54 52.3339C109.269 51.3696 108.279 50.8034 107.318 51.063C106.371 51.35 105.816 52.3352 106.056 53.3009C106.929 58.8521 107.411 64.47 108.366 70.0069C109.045 74.6024 110.623 79.0166 113.009 82.9934C118.075 90.9508 127.69 95.4039 136.952 94.9711C142.657 94.7044 148.016 92.9068 153.111 90.3846C153.964 89.8716 154.252 88.7652 153.759 87.8966C153.243 87.0464 152.152 86.7584 151.287 87.2441H151.287Z" fill="#211715"/>
<path d="M174.103 55.7674C175.17 54.9776 176.551 54.7764 177.793 55.2301C178.525 55.4181 179.141 55.921 179.482 56.6084C180.593 58.7071 180.134 61.8348 179.453 64.0392C178.72 66.4451 177.346 68.5958 175.484 70.2513C173.919 71.5897 171.042 72.7277 168.941 71.8135C168.003 71.2943 166.831 71.6078 166.263 72.5297C165.725 73.4826 166.038 74.6995 166.965 75.2606C169.844 76.392 173.059 76.2187 175.804 74.784C178.35 73.5778 180.371 71.1006 181.699 68.6359C183.063 66.1563 183.844 63.3882 183.983 60.5488C184.099 57.9701 183.656 55.0812 181.81 53.1688C179.164 50.6336 175.158 50.2823 172.126 52.3195C171.217 52.8949 170.909 54.095 171.424 55.0512C171.976 55.995 173.167 56.3136 174.102 55.7674H174.103Z" fill="#211715"/>
<path d="M149.8 54.9215C150.277 56.9085 150.063 61.517 147.339 61.9991C143.726 62.0818 143.446 56.5183 144.619 53.8671C145.578 51.6934 148.488 50.7106 149.8 54.9215Z" fill="#211715"/>
<path d="M125.796 54.9313C126.277 56.92 126.073 61.5321 123.349 61.9994C119.739 62.0683 119.444 56.5083 120.611 53.8609C121.567 51.6874 124.475 50.7156 125.796 54.9313Z" fill="#211715"/>
<path d="M133.428 63.1127C133.041 64.2429 132.675 65.3938 132.345 66.5718C132.144 67.1916 132.027 67.874 132 68.5736C131.992 69.4694 132.236 70.3219 132.662 70.8885C132.978 71.3555 133.36 71.6861 133.774 71.85C134.044 71.9362 134.311 71.9437 134.579 72C134.946 72.0027 135.298 71.7665 135.557 71.3439C136.097 70.4656 136.097 69.0415 135.557 68.1631L135.278 67.8117C135.067 67.6103 134.826 67.5042 134.581 67.5043C134.46 67.4809 134.337 67.479 134.216 67.4546L134.583 67.5352C134.475 67.5098 134.37 67.4623 134.269 67.3937L134.599 67.6205C134.506 67.5485 134.418 67.4609 134.336 67.359L134.616 67.7105C134.554 67.6322 134.496 67.5467 134.443 67.4546L134.659 67.9092C134.641 67.8724 134.625 67.8321 134.613 67.7892L134.752 68.3262C134.736 68.2613 134.724 68.1937 134.717 68.1247L134.766 68.7226C134.761 68.6236 134.762 68.5241 134.77 68.4256L134.721 69.0235C134.743 68.8394 134.777 68.6597 134.822 68.4874L134.683 69.0244C135.015 67.7789 135.408 66.5718 135.815 65.3863C135.997 64.8595 136.047 64.2387 135.955 63.6534C135.807 62.7806 135.353 62.1365 134.802 62.0191C134.251 61.9016 133.71 62.3337 133.43 63.1155L133.428 63.1127Z" fill="#211715"/>
<path d="M120.247 30.239C116.38 32.0011 113.212 35.0075 111.246 38.7804C109.037 43.2283 108.684 48.2892 109.222 53.1633C109.251 54.1657 110.055 54.9716 111.055 55C112.065 54.9933 112.882 54.1749 112.889 53.1633C112.426 48.9749 112.527 44.4283 114.411 40.6339C116.069 37.4128 118.783 34.8618 122.098 33.4096C122.964 32.8915 123.256 31.7737 122.755 30.8964C122.231 30.0385 121.124 29.7478 120.247 30.2375V30.239Z" fill="#211715"/>
<path d="M145.736 25.9222C144.989 24.5183 144.051 23.239 142.951 22.1257C141.75 20.957 140.385 19.9932 138.904 19.269C138.45 19.0063 137.92 18.9327 137.417 19.0628C136.669 19.2813 136.117 19.9536 136.016 20.7692C135.916 21.5847 136.286 22.3847 136.956 22.7996C137.96 23.2893 138.912 23.8926 139.793 24.599L139.403 24.2795C140.206 24.9449 140.929 25.7133 141.555 26.5671L141.253 26.1531C141.674 26.7371 142.058 27.3495 142.404 27.9865C142.942 28.9617 144.124 29.2902 145.044 28.7201C145.964 28.15 146.274 26.8974 145.736 25.9222Z" fill="#211715"/>
<path d="M135.086 27.888C131.279 25.4719 126.431 24.9095 121.872 25.0112C120.838 25.0112 120 25.76 120 26.6838C120 27.6075 120.838 28.3564 121.872 28.3564C125.984 28.2644 129.848 28.6518 133.197 30.776C134.09 31.2344 135.231 30.9672 135.758 30.176C136.257 29.3759 135.961 28.3662 135.086 27.888Z" fill="#211715"/>
<path d="M168.926 52.6137C168.599 50.7363 168.196 48.8691 167.694 47.0232C167.354 45.4601 166.78 43.9467 165.988 42.5252C164.27 39.6318 161.187 37.6157 157.625 37.0558C156.524 36.8117 155.405 37.3898 155.072 38.3748C154.776 39.3791 155.422 40.4133 156.522 40.6965C157.957 40.8743 159.315 41.3942 160.459 42.2035L160.632 42.3191C160.531 42.246 160.528 42.2405 160.621 42.3136C160.74 42.4048 160.854 42.4984 160.967 42.5983C161.08 42.6982 161.2 42.8225 161.313 42.9397C161.341 42.9695 161.612 43.2779 161.462 43.097C161.89 43.6155 162.27 44.1656 162.598 44.7415C162.654 44.8375 162.702 44.9374 162.76 45.0325C163.008 45.4345 162.674 44.7093 162.784 45.0672C162.885 45.4069 163.017 45.742 163.13 46.081C163.374 46.8494 163.596 47.6241 163.802 48.4019C164.257 50.1252 164.628 51.8626 164.933 53.6157C165.244 54.6164 166.382 55.2041 167.486 54.9347C168.573 54.6368 169.212 53.6143 168.936 52.6121L168.926 52.6137Z" fill="#211715"/>
<path d="M160.749 37.9049C158.498 33.1867 154.537 28.5439 149.508 27.0745C148.453 26.7727 147.363 27.4153 147.072 28.5096C146.781 29.6039 147.4 30.7357 148.455 31.0374C148.736 31.123 149.015 31.2086 149.289 31.3165C149.345 31.3388 149.739 31.5006 149.464 31.3833C149.189 31.266 149.581 31.4407 149.635 31.469C150.137 31.7142 150.623 31.9936 151.09 32.3056C151.35 32.4768 151.604 32.6609 151.854 32.8502C151.898 32.8836 152.241 33.1644 152.027 32.9837C151.812 32.8031 152.152 33.0925 152.192 33.1285C152.662 33.5309 153.11 33.9599 153.538 34.4129C153.951 34.845 154.346 35.2957 154.722 35.765C154.805 35.8712 154.893 35.9774 154.976 36.0852C155.015 36.1358 155.338 36.5819 155.059 36.1914C155.232 36.4338 155.406 36.6752 155.574 36.9227C156.232 37.8962 156.818 38.9201 157.326 39.9857C157.882 40.9603 159.09 41.2891 160.036 40.7229C160.958 40.1325 161.271 38.8948 160.746 37.9109L160.749 37.9049Z" fill="#211715"/>
<path d="M147.446 76.1468C147.523 76.2315 147.593 76.3246 147.657 76.425L147.418 76.0491C147.623 76.3831 147.793 76.7477 147.922 77.1341L147.769 76.6893C147.877 76.9953 147.954 77.3166 147.998 77.6456C148.244 78.6156 149.067 79.185 149.878 78.9453C150.261 78.8147 150.588 78.5094 150.791 78.0928L150.946 77.648C151.018 77.3242 151.018 76.9828 150.946 76.659C150.916 76.4247 150.868 76.1944 150.801 75.9716C150.693 75.6002 150.565 75.2378 150.419 74.8866C150.334 74.6825 150.237 74.4859 150.13 74.2983C149.981 74.0163 149.805 73.7563 149.607 73.5233C149.001 72.8256 148.052 72.8256 147.446 73.5233C147.16 73.8739 147 74.3474 147 74.8409C146.998 75.3348 147.159 75.8091 147.446 76.1584V76.1468Z" fill="#211715"/>
<path d="M131.03 80.1761C132.923 80.8152 134.998 81.0896 137.068 80.9743C138.073 80.9408 139.071 80.8278 140.044 80.6372C141.112 80.4736 142.13 80.1647 143.05 79.726C143.958 79.3049 144.266 78.4225 143.75 77.7209C143.199 77.0291 142.012 76.7954 141.079 77.195C140.913 77.2844 140.739 77.366 140.559 77.4393C140.379 77.5163 140.435 77.4839 140.592 77.4393C140.493 77.468 140.393 77.4967 140.292 77.523C139.891 77.6274 139.478 77.7117 139.072 77.7972C138.711 77.8732 138.345 77.9343 137.975 77.9805C137.923 77.9872 137.593 78.025 137.869 77.9951C138.144 77.9652 137.808 77.9994 137.756 78.0031C137.527 78.0214 137.298 78.0352 137.068 78.0446C136.654 78.0617 136.238 78.0651 135.823 78.055C135.616 78.0493 135.409 78.0405 135.203 78.0287C135.1 78.0226 134.998 78.014 134.895 78.0073C134.606 77.9884 134.878 78.0446 134.959 78.0177C134.845 78.055 134.495 77.9609 134.37 77.9426C134.157 77.9108 133.944 77.8736 133.735 77.8308C133.556 77.7942 133.379 77.7533 133.203 77.7087C133.122 77.6867 133.037 77.6592 132.951 77.6384C132.707 77.5774 133.39 77.7868 133.002 77.6482C132.399 77.3596 131.634 77.3415 131.008 77.6012C130.382 77.8608 129.995 78.3566 130 78.8935C130.005 79.4304 130.4 79.9225 131.03 80.1761Z" fill="#211715"/>
<path d="M226.825 198C231.685 198 236.544 197.993 241.403 197.98L264.458 197.948C266.364 197.948 268.269 197.946 270.175 197.942C272.606 197.942 272.611 194 270.175 194C265.182 194 260.189 194.007 255.196 194.02L232.253 194.052C230.444 194.052 228.634 194.054 226.825 194.058C224.394 194.058 224.39 198 226.825 198Z" fill="#211715"/>
<path d="M1.77862 198C10.2318 198 18.6841 197.961 27.1365 197.943C28.4978 197.94 29.8593 197.937 31.2211 197.935C33.5907 197.935 33.5953 194 31.2211 194C22.6644 194 14.1092 194.038 5.55092 194.057C4.29297 194.06 3.03554 194.063 1.77862 194.065C-0.590955 194.065 -0.594792 198 1.77862 198Z" fill="#211715"/>
<path d="M195.456 214.895C201.145 213.055 206.703 210.845 212.091 208.278C218.021 205.438 224.389 202.052 228.166 196.563C231.302 192.005 232.351 186.573 232.867 181.204C233.352 176.156 232.413 171.061 231.587 166.087C230.076 157.229 228.102 148.452 225.673 139.792C223.708 132.666 221.848 125.457 218.903 118.647C216.382 112.817 213.213 107.158 208.25 102.988C202.866 98.4647 196.441 96.1019 189.861 93.7797C184.029 91.7218 178.15 89.7949 172.318 87.7401C171.682 87.5155 171.046 87.2901 170.409 87.064C169.394 86.7991 168.349 87.3805 168.061 88.3709C167.802 89.3647 168.391 90.3809 169.394 90.6729C173.964 92.2972 178.574 93.8062 183.157 95.3954C189.434 97.5734 196.062 99.441 201.749 102.919C204.398 104.511 206.782 106.494 208.816 108.796C210.607 110.969 212.138 113.334 213.382 115.847C216.775 122.32 218.74 129.278 220.723 136.255C223.224 145.06 225.474 153.898 227.152 162.891C228.171 167.708 228.858 172.588 229.209 177.496C229.25 179.68 229.087 181.865 228.721 184.02C228.386 186.418 227.755 188.768 226.841 191.017C224.545 196.686 219.576 200.062 214.323 202.927C209.02 205.759 203.495 208.171 197.8 210.142C196.686 210.538 195.567 210.92 194.442 211.286C192.122 212.042 193.116 215.658 195.457 214.895H195.456Z" fill="#211715"/>
<path d="M184.999 183.74C189.089 181.941 193.021 179.843 197.016 177.835C197.962 177.255 198.281 175.993 197.731 175.006C197.158 174.044 195.959 173.718 195.004 174.264C191.009 176.272 187.078 178.37 182.988 180.169C182.531 180.446 182.199 180.9 182.065 181.43C181.931 181.961 182.006 182.525 182.273 182.998C182.85 183.954 184.044 184.279 184.999 183.74Z" fill="#211715"/>
<path d="M98.5149 121.619C99.0273 119.097 99.8164 116.648 100.866 114.323C102.12 111.75 104.033 109.611 106.381 108.154C110.845 105.178 115.861 103.026 120.737 100.964C123.384 99.8424 126.052 98.7703 128.755 97.8153C130.944 97.0421 130.007 93.3285 127.798 94.1065C122.347 96.0558 116.997 98.3155 111.772 100.876C106.717 103.332 100.899 106.184 98.1077 111.638C96.6911 114.452 95.6592 117.468 95.0437 120.595C94.5735 123.01 98.0433 124.041 98.5149 121.618V121.619Z" fill="#211715"/>
<path d="M188.079 149.363L194.107 170.651C194.777 173.016 198.593 172.012 197.921 169.637L191.892 148.349C191.222 145.984 187.406 146.988 188.079 149.363Z" fill="#211715"/>
<path d="M181.158 187.473C178.422 189.133 175.025 188.762 171.965 188.318C168.18 187.769 164.31 187.052 160.473 187.001C152.648 186.898 147.512 192.825 143.259 198.261C142.73 199.135 143.037 200.25 143.95 200.765C144.872 201.25 146.033 200.961 146.586 200.108C148.593 197.541 150.676 194.824 153.451 192.95C154.735 192.05 156.179 191.377 157.715 190.963C159.373 190.622 161.082 190.569 162.76 190.806C166.335 191.143 169.859 191.781 173.425 192.17C176.738 192.533 180.213 192.385 183.103 190.633C185.19 189.37 183.256 186.2 181.158 187.473Z" fill="#211715"/>
<path d="M153.629 201.572L147.569 207.611C146.806 208.391 146.811 209.643 147.58 210.417C148.35 211.19 149.595 211.195 150.371 210.428L156.431 204.389C157.194 203.609 157.189 202.357 156.42 201.583C155.65 200.81 154.405 200.805 153.629 201.572Z" fill="#211715"/>
<path d="M153.458 220.426C156.581 216.891 160.005 213.605 163.418 210.336C164.198 209.569 164.193 208.336 163.407 207.574C162.62 206.813 161.346 206.808 160.554 207.563C157.137 210.831 153.717 214.118 150.594 217.652C150.082 218.147 149.882 218.869 150.069 219.546C150.256 220.223 150.802 220.752 151.501 220.933C152.2 221.115 152.947 220.921 153.458 220.426Z" fill="#211715"/>
<path d="M157.268 226.463C159.449 224.314 161.658 222.188 163.799 220.001C165.69 218.069 167.523 216.084 169.448 214.184C170.188 213.451 170.183 212.275 169.437 211.548C168.692 210.822 167.484 210.817 166.732 211.537C164.806 213.438 162.971 215.422 161.082 217.355C158.942 219.542 156.733 221.668 154.552 223.816C153.812 224.549 153.817 225.725 154.563 226.452C155.308 227.178 156.516 227.183 157.268 226.463Z" fill="#211715"/>
<path d="M175.915 218C179.824 217.559 183.65 216.583 187.279 215.103C188.806 214.506 190.24 213.705 191.539 212.722C191.802 212.515 192.062 212.305 192.323 212.097C192.452 211.994 192.58 211.892 192.709 211.793C192.955 211.602 192.494 211.94 192.678 211.817C193.441 211.313 194.238 210.859 195.063 210.459C195.967 209.937 196.269 208.804 195.738 207.922C195.207 207.039 194.043 206.738 193.131 207.248C191.817 207.897 190.581 208.687 189.446 209.602C189.083 209.913 188.702 210.205 188.306 210.477C187.558 210.915 186.777 211.299 185.97 211.625C182.771 212.987 179.383 213.882 175.915 214.28C174.871 214.312 174.032 215.126 174 216.14C174.007 217.165 174.86 217.994 175.915 218Z" fill="#211715"/>
<path d="M182.902 191.557C185.877 193.851 188.042 197.529 189.766 200.914C191.812 204.939 193.363 209.214 194.382 213.638C194.933 216.023 198.494 215.015 197.942 212.623C196.812 207.775 195.087 203.097 192.808 198.702C190.777 194.772 188.252 190.947 184.764 188.257C183.882 187.732 182.756 188.037 182.237 188.942C181.748 189.855 182.039 191.005 182.899 191.553L182.902 191.557Z" fill="#211715"/>
<path d="M165.187 212.96C164.41 214.569 163.603 216.164 162.843 217.779C162.238 218.945 161.701 220.147 161.234 221.379C160.931 222.423 160.922 223.534 161.208 224.583C161.515 225.868 162.352 226.947 163.497 227.534C164.641 228.121 165.976 228.155 167.147 227.628C169.43 226.687 170.936 224.401 172.489 222.528C174.289 220.21 176.283 218.062 178.449 216.109C179.184 215.336 179.184 214.094 178.449 213.321C177.697 212.576 176.513 212.576 175.761 213.321C172.259 216.278 169.704 220.184 166.551 223.498C166.502 223.549 166.235 223.765 166.444 223.605C166.672 223.433 166.197 223.756 166.144 223.787C166.054 223.84 165.691 224.009 165.97 223.897C165.858 223.942 165.406 224.077 165.508 224.061C165.343 224.129 165.156 224.094 165.025 223.971C165.21 224.083 164.919 223.783 165.09 224.053C165.028 223.955 164.972 223.853 164.923 223.748C165.011 223.93 164.958 223.874 164.923 223.717C164.883 223.539 164.831 223.365 164.801 223.185C164.863 223.558 164.814 223.043 164.808 222.918C164.808 222.836 164.824 222.753 164.816 222.671C164.82 222.715 164.722 223 164.796 222.817C164.821 222.757 164.82 222.677 164.841 222.614C164.936 222.325 164.755 222.79 164.9 222.468C165.322 221.54 165.736 220.609 166.167 219.687C166.913 218.1 167.706 216.538 168.468 214.96C168.971 214.016 168.671 212.829 167.787 212.263C166.879 211.724 165.722 212.039 165.186 212.97L165.187 212.96Z" fill="#211715"/>
<path d="M153.288 241.932C159.216 239.261 165.092 236.46 170.971 233.666C177.76 230.444 184.54 227.202 191.311 223.938C193.582 222.845 195.848 221.754 198.105 220.636C198.964 220.085 199.255 218.891 198.756 217.955C198.236 217.041 197.14 216.732 196.271 217.252C184.423 223.121 172.464 228.744 160.51 234.356C158.909 235.108 157.306 235.857 155.702 236.601C155.032 236.912 154.361 237.221 153.69 237.529C153.538 237.598 152.661 237.999 153.114 237.793L152.322 238.151C151.375 238.468 150.82 239.523 151.053 240.562C151.325 241.602 152.321 242.212 153.288 241.932Z" fill="#211715"/>
<path d="M29.4178 164.001C53.128 164.405 107.255 164.532 126.581 164.665C129.519 164.682 132.11 166.643 132.995 169.518C137.594 184.445 147.935 218.239 152.802 234.217C153.215 235.572 152.974 237.049 152.152 238.191C151.331 239.334 150.027 240.006 148.643 240C127.7 239.921 71.275 239.715 49.5817 239.265C47.7133 239.228 46.0787 237.965 45.5278 236.132C41.2506 221.934 30.2657 186.152 25.2045 169.809C24.7804 168.441 25.0242 166.947 25.8595 165.795C26.6948 164.644 28.0193 163.976 29.4178 164.001Z" fill="white"/>
<path d="M28.3089 167.709C39.4962 167.893 50.685 167.964 61.8731 168.035C74.943 168.12 88.013 168.186 101.083 168.234C106.581 168.258 112.078 168.284 117.576 168.311C119.723 168.321 121.87 168.333 124.018 168.345C126.404 168.359 128.857 168.216 130.436 170.369C131.072 171.433 131.533 172.592 131.799 173.801C132.166 174.953 132.533 176.106 132.899 177.26C133.773 180.011 134.647 182.764 135.52 185.517C137.548 191.913 139.575 198.311 141.598 204.709C143.593 211.013 145.586 217.318 147.577 223.623C148.417 226.281 149.256 228.94 150.095 231.6C150.698 233.516 152.47 236.839 149.843 238.031C148.957 238.433 147.82 238.258 146.864 238.254L143.771 238.244L136.636 238.217C130.951 238.196 125.265 238.172 119.579 238.146C106.643 238.087 93.708 238.01 80.7724 237.915C70.2767 237.837 59.7803 237.756 49.2862 237.552C48.1192 237.53 47.0091 237.254 46.473 236.093C46.1 235.13 45.7882 234.144 45.5395 233.142C44.7895 230.746 44.0375 228.352 43.2833 225.96C41.4007 219.979 39.5115 214 37.6158 208.023C33.8945 196.274 30.1602 184.53 26.413 172.79C26.0854 171.766 25.4794 170.582 25.8116 169.515C26.144 168.427 27.1644 167.691 28.3097 167.713C30.7105 167.682 30.7175 163.975 28.3097 164.006C26.4188 164.011 24.6296 164.856 23.4318 166.308C22.234 167.761 21.7532 169.669 22.1209 171.51C22.4281 172.718 22.7979 173.909 23.2287 175.079C23.6364 176.354 24.0438 177.63 24.4509 178.906C26.3984 185.01 28.3411 191.114 30.2787 197.22C34.1193 209.317 37.9436 221.418 41.7515 233.523C42.6073 236.263 43.19 239.287 46.0786 240.637C48.2624 241.657 51.1673 241.3 53.5402 241.336C58.8651 241.419 64.1909 241.483 69.5174 241.528C82.6745 241.655 95.8316 241.746 108.989 241.802C120.641 241.863 132.294 241.912 143.947 241.952L147.099 241.964C148.433 242.076 149.775 241.928 151.051 241.53C152.842 240.822 154.21 239.344 154.769 237.514C155.277 235.855 154.86 234.306 154.359 232.716C152.561 227.01 150.76 221.304 148.956 215.6C144.899 202.763 140.834 189.929 136.762 177.096C135.973 174.613 135.376 171.905 134.26 169.546C132.68 166.202 129.323 164.67 125.756 164.647C121.105 164.618 116.454 164.594 111.803 164.576C98.8883 164.518 85.9739 164.458 73.0595 164.396C60.4665 164.33 47.8695 164.253 35.271 164.098C32.9495 164.071 30.628 164.038 28.3066 164C25.905 163.962 25.9042 167.669 28.3089 167.709Z" fill="#211715"/>
<path d="M136.945 109.734C139.742 111.197 142.814 111.966 145.931 111.984C149.074 112.113 152.202 111.461 155.067 110.078C155.963 109.511 156.265 108.284 155.747 107.322C155.204 106.382 154.061 106.063 153.155 106.599C150.877 107.636 148.404 108.1 145.931 107.954C143.483 107.957 141.066 107.376 138.858 106.254C136.706 105.038 134.789 108.515 136.945 109.734Z" fill="#211715"/>
<path d="M169.341 86.364C168.825 90.1033 166.756 93.4832 164.808 96.6648C162.847 99.9584 160.249 102.834 157.163 105.125H159.053C156.647 103.955 154.308 102.654 152.046 101.228C149.76 99.8696 147.4 98.6018 145.243 97.042C144.506 96.6269 143.581 96.7453 142.974 97.3324C140.962 98.9472 138.969 100.585 137.024 102.28C135.275 103.798 133.435 105.208 131.513 106.503L134.263 107.615C132.409 103.099 130.877 98.4602 129.677 93.7318C129.081 91.4153 125.47 92.3973 126.066 94.72C127.266 99.4484 128.799 104.087 130.652 108.603C131.075 109.622 132.297 110.462 133.403 109.713C135.525 108.29 137.557 106.738 139.487 105.067C141.489 103.315 143.543 101.625 145.619 99.9603L143.35 100.251C145.507 101.811 147.868 103.078 150.154 104.433C152.416 105.859 154.755 107.159 157.161 108.329C157.746 108.665 158.466 108.665 159.051 108.329C162.589 105.756 165.585 102.52 167.871 98.8032C170.041 95.3179 172.378 91.4695 172.946 87.3507C173.185 86.3656 172.613 85.3652 171.638 85.0644C170.642 84.7991 169.617 85.3774 169.336 86.3625L169.341 86.364Z" fill="#211715"/>
<path d="M94.5008 124.111C97.7487 118.744 98.7832 112.428 97.4045 106.381C97.0552 104.469 96.3291 102.636 95.2642 100.978C94.0299 99.1832 91.9468 98.0737 89.6863 98.0072C87.5115 97.9175 85.3512 98.6779 83.3747 99.4413C79.514 100.929 75.2117 103.852 76.1237 108.381C76.53 110.525 78.3005 112.203 80.5632 112.589C81.8911 112.674 83.2234 112.503 84.4793 112.087L88.4348 111.087C90.8287 110.478 89.8132 106.96 87.4104 107.567C85.6306 108.017 83.8507 108.546 82.0492 108.913C81.5872 109.072 81.0741 109.023 80.6549 108.78C80.2357 108.537 79.9559 108.127 79.8945 107.665C79.3125 104.915 83.288 103.35 85.3624 102.602C86.7521 102.101 88.328 101.517 89.8453 101.667C91.2173 101.802 91.9888 102.719 92.5476 103.837C93.7827 106.573 94.3246 109.545 94.1299 112.515C93.99 115.945 92.9758 119.291 91.1739 122.269C89.9408 124.312 93.2693 126.152 94.5008 124.111Z" fill="#211715"/>
<path d="M92.0652 124.66C93.0642 127.857 93.8684 131.132 94.4716 134.46C94.7412 135.574 95.7286 136.228 96.6867 135.927C97.6302 135.595 98.1838 134.458 97.9443 133.343C97.3413 130.014 96.5372 126.739 95.5379 123.543C95.2735 122.424 94.2818 121.768 93.3228 122.076C92.3639 122.384 91.8008 123.541 92.0652 124.659V124.66Z" fill="#211715"/>
<path d="M97.6674 132.063C89.4598 135.29 80.7689 137.28 72.3517 139.892C71.378 140.174 70.8065 141.167 71.0601 142.137C73.3482 150.057 75.7334 157.962 78.6835 165.67C78.9784 166.624 79.9775 167.184 80.9585 166.945C81.9388 166.671 82.5145 165.671 82.2509 164.7C79.3008 156.992 76.9156 149.087 74.6267 141.167L73.3351 143.412C81.7523 140.8 90.4439 138.809 98.6508 135.579C99.6154 135.288 100.183 134.305 99.9463 133.338C99.6688 132.37 98.6547 131.802 97.6705 132.063H97.6674Z" fill="#211715"/>
<path d="M77.6496 92.1858C76.311 88.7167 74.9651 85.2507 73.641 81.777C73.1437 80.4705 72.5864 79.048 73.0942 77.6639C73.4707 76.6448 74.3063 76.4988 75.3374 76.9115C76.4603 77.3603 77.0696 78.5838 77.618 79.5322C78.2013 80.542 78.7278 81.5818 79.2268 82.6316C80.4194 85.1377 81.4497 87.7146 82.4151 90.3068C83.443 93.0658 84.3987 95.8563 85.1735 98.6898C85.8023 100.986 89.5594 100.012 88.929 97.7092C87.2697 91.6493 85.0338 85.7444 82.2488 80.0671C80.8883 77.3004 79.2754 73.9673 75.8315 73.2011C73.9599 72.6808 71.9382 73.1877 70.5833 74.5168C69.3514 75.9748 68.8024 77.8464 69.0637 79.6974C69.3339 81.9684 70.4218 84.144 71.2421 86.2744C72.1264 88.5723 73.0117 90.8696 73.8982 93.1665C74.2069 94.1316 75.2601 94.698 76.2931 94.4545C77.3245 94.177 77.9299 93.1669 77.6529 92.1858H77.6496Z" fill="#211715"/>
<path d="M69.5216 116.409C71.6243 118.18 74.8891 121.075 77.9032 119.854C79.2428 119.239 80.2626 118.126 80.7269 116.772C81.1911 115.419 81.0595 113.942 80.3626 112.684C79.202 111.123 77.8437 109.706 76.3189 108.466C74.3334 106.686 71.9671 105.343 69.3849 104.53C67.0695 103.726 63.9195 103.661 62.1872 105.589C60.4363 107.534 58.996 110.149 59 112.783C59.0049 115.615 60.5139 117.947 62.332 120.033C64.1176 122.144 66.0286 124.156 68.0553 126.057C69.1472 126.932 70.0726 127.982 70.7905 129.16C70.839 129.252 70.881 129.349 70.9239 129.443C70.843 129.257 70.8835 129.353 70.9368 129.484C71.036 129.731 71.1323 129.979 71.2256 130.228C71.4221 130.757 71.6032 131.291 71.7787 131.827C72.4087 133.746 73.0023 135.696 73.4479 137.663C73.9793 140.004 77.7221 139.014 77.1915 136.673C76.5441 133.55 75.5687 130.498 74.2801 127.564C73.3477 125.561 71.524 124.114 69.9211 122.614C68.2895 121.034 66.7441 119.375 65.2911 117.642C64.0869 116.255 62.6571 114.521 62.8965 112.429C63.0426 111.591 63.3119 110.778 63.6963 110.013C64.0653 109.22 64.5925 108.504 65.2482 107.905C66.4468 107.213 68.7727 108.216 70.0715 108.78C71.6276 109.508 73.0354 110.497 74.2284 111.701C74.9514 112.377 75.6695 113.061 76.3472 113.78C76.496 113.936 76.6432 114.098 76.7864 114.261C76.94 114.444 76.9586 114.462 76.8422 114.316C76.9053 114.397 76.9651 114.48 77.0225 114.566C77.1228 114.829 77.1507 115.112 77.1034 115.389C77.0689 115.729 76.9159 116.048 76.6691 116.294C76.3456 116.577 76.3125 116.45 75.9081 116.249C74.6001 115.566 73.3814 114.736 72.2777 113.777C70.4055 112.204 67.6494 114.828 69.5329 116.411L69.5216 116.409Z" fill="#211715"/>
<path d="M68.3741 103.098C68.2876 102.978 68.2078 102.855 68.135 102.727C68.0808 102.629 67.9381 102.266 68.0465 102.565C67.9817 102.388 67.9266 102.207 67.8815 102.024C67.8688 101.971 67.8018 101.435 67.8241 101.752C67.8078 101.547 67.8078 101.341 67.8241 101.136C67.7986 101.427 67.8983 100.85 67.9038 100.831C67.9222 100.771 68.1429 100.256 67.9532 100.642C68.0186 100.508 68.0919 100.383 68.1605 100.251C68.3781 99.8351 67.9684 100.612 68.178 100.232C68.2196 100.187 68.2637 100.146 68.3103 100.107C68.4195 100.011 68.3685 100.052 68.1589 100.228C68.2552 100.156 68.3605 100.097 68.4721 100.052C68.221 100.155 68.1653 100.18 68.3023 100.129C68.3637 100.107 68.4251 100.086 68.4864 100.067C68.7596 99.9745 69.0401 99.9061 69.3249 99.8626C68.9097 99.9151 69.5106 99.8901 69.5497 99.8917C69.7378 99.899 69.9259 99.9183 70.1124 99.9402C70.1921 99.9491 70.6751 100.03 70.3021 99.9628C70.5204 100.002 70.738 100.044 70.954 100.096C71.386 100.201 71.8108 100.339 72.234 100.471C72.5959 100.585 72.9577 100.701 73.3156 100.827C73.4949 100.891 73.6726 100.959 73.8512 101.026C74.2154 101.164 73.7117 100.937 74.0903 101.131C74.4258 101.305 74.7462 101.485 75.065 101.689C75.3368 101.863 75.0531 101.659 75.1925 101.788C75.332 101.916 75.4651 102.045 75.5911 102.184C75.6771 102.285 75.6763 102.277 75.5911 102.158C75.6476 102.234 75.7002 102.312 75.7505 102.392C75.8523 102.551 75.9447 102.717 76.027 102.887C76.0852 103.01 76.082 103.001 76.0191 102.86C76.0525 102.949 76.082 103.039 76.1075 103.13C76.1693 103.342 76.218 103.558 76.2534 103.776C76.5375 104.807 77.5879 105.412 78.6062 105.132C79.6064 104.823 80.1933 103.774 79.942 102.745C79.4839 100.482 77.9522 98.5943 75.8501 97.7025C73.8765 96.7379 71.7394 96.1644 69.5537 96.0127C67.6536 95.8799 65.8312 96.7989 64.7891 98.4152C63.6417 100.506 63.7526 103.074 65.076 105.055C65.6248 105.959 66.7778 106.265 67.6934 105.751C68.5955 105.202 68.9003 104.023 68.3796 103.097L68.3741 103.098Z" fill="#211715"/>
<path d="M69.9347 98.6135V98.3832C69.9093 98.5268 69.9118 98.5251 69.9421 98.3832C69.9528 98.336 70.0864 97.921 69.9987 98.1328C70.0613 97.9934 70.1325 97.8586 70.2118 97.7292C70.338 97.506 70.2692 97.625 70.3675 97.5086C70.553 97.2893 70.753 97.0845 70.9659 96.8957C70.7479 97.0892 70.9332 96.922 71.0619 96.8371C71.166 96.7688 71.2684 96.7005 71.3758 96.6375C71.4668 96.5841 71.7644 96.4457 71.5209 96.5499C71.6835 96.4838 71.8497 96.4279 72.0185 96.3827C72.2621 96.3057 72.5145 96.265 72.7685 96.2619C73.5346 96.2251 74.3022 96.2544 75.0638 96.3494C75.4376 96.3914 74.8539 96.3118 75.2023 96.3669C75.3712 96.3932 75.5384 96.4238 75.7056 96.4545C76.0393 96.5228 76.3713 96.5998 76.7024 96.6804C77.3464 96.8149 77.9737 97.0279 78.5722 97.3151C79.0012 97.5228 79.3695 97.8508 79.6379 98.2642C79.9633 98.7345 80.115 99.3165 80.0642 99.8988C80.0642 100.649 80.4391 101.343 81.0478 101.718C81.6565 102.094 82.4065 102.094 83.0152 101.718C83.6239 101.343 83.9989 100.649 83.9989 99.8988C84.0411 97.4794 82.8891 95.2146 80.9659 93.9356C79.1489 92.874 77.1319 92.2616 75.0638 92.1434C73.0409 91.7711 70.9595 92.1284 69.1478 93.159C67.2963 94.285 66.1098 96.341 66 98.6135C66 99.774 66.8808 100.715 67.9674 100.715C69.0539 100.715 69.9347 99.774 69.9347 98.6135Z" fill="#211715"/>
<path d="M221.331 75.1994C220.992 74.6007 220.909 73.901 221.102 73.2463C222.047 69.6417 223.359 66.1322 225.018 62.7669C225.018 62.7669 225.27 62.4439 225.606 62C229.856 64.3329 234.343 66.2538 239 67.7337C238.957 68.2803 238.929 68.6884 238.929 68.6884C239.242 69.4744 236.303 75.6163 234.813 78.1136C234.552 78.5539 234.219 78.953 233.828 79.2966C233.034 79.7905 232.095 80.0351 231.145 79.9959C228.563 79.1767 226.052 78.168 223.635 76.9791C222.749 76.6075 221.976 76.0307 221.387 75.302C221.37 75.2662 221.351 75.2328 221.331 75.1994Z" fill="white"/>
<path d="M251.531 40.7627C251.829 41.1485 252.122 41.5591 252.405 42.0036C255.434 46.492 255.843 52.3958 253.464 57.3039C252.447 59.53 251.018 61.5163 249.26 63.1443C247.976 64.4199 246.537 65.5079 244.98 66.3794C243.7 67.0816 242.347 67.6254 240.949 68C236.341 66.4466 231.926 64.3168 227.795 61.6556C225.664 59.3783 224.791 54.1352 225.042 51.3268C225.17 49.2696 225.588 47.2442 226.281 45.3174C227.108 43.2053 228.316 41.284 229.837 39.6607C231.815 37.4186 234.391 35.8672 237.221 35.2124C240.324 34.6945 243.501 35.1283 246.378 36.4626C248.375 37.4752 250.134 38.9437 251.531 40.7627Z" fill="#FFDA71"/>
<path d="M250.255 42.0391C251.73 43.8973 252.732 46.1013 253.169 48.4532C253.571 51.1326 253.181 53.8738 252.049 56.3248C249.664 61.318 245.266 64.9968 240.008 66.3964H240.98C237.115 65.1754 233.387 63.5402 229.857 61.5182C229.105 61.1726 228.403 60.7208 227.774 60.176C227.219 59.4407 226.806 58.6043 226.556 57.7113C225.953 55.9362 225.654 54.0683 225.671 52.1893C225.805 44.1706 231.895 36.2205 240.193 36.7592C244.123 37.0005 247.773 38.9156 250.258 42.0391C250.974 42.7606 252.124 42.7606 252.841 42.0391C253.533 41.3008 253.533 40.1351 252.841 39.3968C248.122 33.6561 239.892 31.2933 233.064 34.3295C230.499 35.5204 228.243 37.313 226.481 39.5619C223.801 42.9867 222.248 47.1902 222.043 51.5719C221.796 55.1029 222.606 58.6271 224.364 61.6762C225.436 63.3835 227.085 64.2453 228.794 65.1795C230.551 66.1348 232.357 66.9857 234.189 67.7782C235.805 68.4789 237.438 69.1422 239.104 69.7081C239.845 70.0279 240.669 70.0868 241.446 69.8755C242.552 69.5519 243.631 69.1417 244.675 68.6486C247.699 67.201 250.373 65.0903 252.51 62.4664C255.299 59.1822 256.886 55.0086 257 50.6595C256.932 46.5261 255.463 42.5451 252.844 39.3968C252.128 38.6736 250.977 38.6736 250.261 39.3968C249.569 40.1344 249.566 41.2982 250.255 42.0391Z" fill="#211715"/>
<path d="M225.014 71.2072C229.054 73.3552 233.195 75.2626 237.419 76.9212C238.509 77.245 239.631 76.5421 239.937 75.3448C240.208 74.147 239.579 72.9253 238.508 72.5682C236.542 71.7932 234.599 70.9514 232.672 70.0692C232.544 70.0121 232.417 69.9538 232.291 69.8942C232.258 69.8801 231.909 69.7174 232.059 69.7879C232.21 69.8585 231.861 69.6939 231.829 69.6788L231.45 69.5001C230.952 69.2631 230.454 69.0229 229.957 68.7797C228.991 68.3056 228.032 67.8153 227.081 67.3086C226.449 66.9015 225.669 66.8969 225.033 67.2964C224.398 67.696 224.004 68.4391 224 69.2458C223.996 70.0524 224.383 70.8001 225.014 71.2072Z" fill="#211715"/>
<path d="M225.866 62.8618C225.35 63.7866 224.917 64.7539 224.57 65.7527C224.054 67.0491 223.577 68.3612 223.14 69.689C222.723 70.8606 222.378 72.0563 222.109 73.2695C221.649 75.579 222.674 77.3466 224.659 78.5403C225.929 79.2484 227.244 79.8754 228.595 80.4177C229.86 81.0498 231.186 81.5547 232.553 81.9248C234.304 82.2269 236.088 81.6062 237.261 80.2867C238.071 79.1964 238.75 78.0167 239.285 76.7713C240.004 75.2891 240.685 73.7812 241.282 72.2468C241.665 71.2544 242.216 70.0099 241.912 68.9312C241.277 66.6823 237.729 67.6376 238.366 69.8971C238.327 69.7183 238.324 69.5336 238.358 69.3536C238.314 69.4884 238.281 69.6267 238.261 69.7669C238.144 70.1969 237.989 70.6178 237.832 71.0341C237.413 72.1416 237.076 72.8857 236.558 73.9962C236.084 75.0121 235.59 76.0211 235.054 77.0067C234.856 77.4289 234.591 77.8173 234.27 78.1573C234.612 77.8364 234.145 78.1778 233.964 78.2474C233.781 78.2796 233.602 78.3265 233.427 78.3874C233.657 78.3799 233.222 78.3413 233.121 78.3117C232.899 78.2466 232.68 78.1702 232.462 78.093C231.902 77.8924 231.39 77.6857 230.884 77.4685C229.668 76.9451 228.465 76.3918 227.275 75.8084C226.334 75.3459 225.464 75.0143 225.718 73.9447C225.972 72.8751 226.303 71.807 226.651 70.7556C227.08 69.4571 227.544 68.1702 228.044 66.895C228.155 66.6119 228.269 66.3303 228.385 66.0502C228.427 65.9472 228.47 65.845 228.514 65.7428C228.354 66.1138 228.548 65.6671 228.569 65.6247C228.707 65.3058 228.864 64.9954 229.04 64.6952C230.279 62.6952 227.101 60.8679 225.865 62.861L225.866 62.8618Z" fill="#211715"/>
<path d="M263.467 29.2317C261.705 30.1189 259.935 30.9978 258.157 31.8686C257.64 32.0988 257.257 32.4558 257.08 32.8729C256.918 33.3103 257.003 33.7757 257.317 34.1686C257.63 34.5451 258.133 34.821 258.722 34.939C259.333 35.0603 259.986 34.9991 260.532 34.7695C262.309 33.8978 264.079 33.0188 265.842 32.1326C266.359 31.9016 266.742 31.5446 266.919 31.1276C267.082 30.6905 266.997 30.2251 266.682 29.8327C266.371 29.4556 265.868 29.1795 265.279 29.0623C264.668 28.9391 264.013 29.0003 263.467 29.2317Z" fill="#211715"/>
<path d="M253.7 27.2834C254.317 26.2277 254.996 25.193 255.736 24.1791C255.995 23.8395 256.067 23.4406 255.936 23.0637C255.795 22.7012 255.469 22.3917 255.026 22.1981C254.571 22.0042 254.029 21.9499 253.519 22.0473C253.009 22.1447 252.574 22.3858 252.308 22.7175C251.57 23.7309 250.891 24.7659 250.273 25.8224C250.13 25.9833 250.049 26.169 250.037 26.3604C249.978 26.5518 249.99 26.7511 250.072 26.9377C250.213 27.3002 250.539 27.6096 250.983 27.8028C251.446 27.9987 251.997 28.0512 252.514 27.9488C253.017 27.8545 253.446 27.6149 253.701 27.2852L253.7 27.2834Z" fill="#211715"/>
<path d="M245 26.8983C244.835 24.7721 244.628 22.6432 244.316 20.5414C244.199 20.0144 243.92 19.5647 243.539 19.2872C242.73 18.7022 241.691 19.0394 241.218 20.0402C241.008 20.5369 240.947 21.1104 241.047 21.6574C241.172 22.4971 241.276 23.3403 241.368 24.186L241.307 23.628C241.425 24.7152 241.524 25.8059 241.609 26.8983C241.622 27.4522 241.798 27.9812 242.104 28.3852C242.767 29.2049 243.841 29.2049 244.503 28.3852C244.825 27.994 245.004 27.4568 244.998 26.8983H245Z" fill="#211715"/>
<path d="M245.991 58.9145C245.919 56.9805 245.199 55.1318 243.951 53.6832C242.774 52.1838 241.227 50.5504 239.308 50.2169C237.589 49.9336 235.835 50.4297 234.498 51.5774C232.956 52.9375 232.336 55.1034 232.914 57.1067C233.452 58.9662 234.915 60.3882 236.749 60.8362C238.578 61.3282 240.518 60.6915 241.732 59.2011C243.106 57.7249 243.64 55.6228 243.145 53.6436C242.631 51.8714 241.59 50.3096 240.169 49.1785C238.541 47.6115 236.343 46.8306 234.123 47.0309C231.902 47.2311 229.87 48.3937 228.532 50.2282C227.823 50.9959 227.823 52.2009 228.532 52.9686C229.271 53.7161 230.456 53.7161 231.195 52.9686C232.631 51.2302 234.49 50.2678 236.525 51.3045C237.425 51.771 238.211 52.4409 238.824 53.2641C239.105 53.6253 239.32 54.0356 239.459 54.4753C239.488 54.5722 239.513 54.6699 239.538 54.7684C239.548 54.8136 239.603 55.2165 239.584 55.0041C239.572 54.8507 239.499 55.7542 239.571 55.4256C239.504 55.8116 239.331 56.1697 239.073 56.4575C238.987 56.5538 238.896 56.6452 238.8 56.7312C238.8 56.7312 238.545 56.9525 238.691 56.8378C238.577 56.9274 238.451 56.9993 238.333 57.08L238.151 57.1842C238.273 57.1414 238.275 57.139 238.158 57.1761C237.916 57.2875 238.415 57.2068 238.147 57.1705C237.938 57.143 238.122 57.1842 238.162 57.189C237.887 57.1483 237.618 57.0757 237.359 56.9726C237.568 57.0534 237.066 56.8168 236.952 56.7304C237.158 56.8838 236.912 56.6812 236.887 56.6626L236.758 56.5261C236.839 56.6521 236.844 56.6596 236.773 56.5487C236.705 56.4454 236.644 56.3375 236.591 56.2258C236.457 55.9553 236.65 56.468 236.576 56.1636C236.545 56.0384 236.509 55.9149 236.485 55.7873C236.425 55.47 236.49 56.0376 236.485 55.7017C236.447 55.3504 236.54 54.9972 236.745 54.7135C236.843 54.6017 236.95 54.4971 237.062 54.4002C237 54.4599 236.732 54.6053 237.024 54.4446C237.189 54.3533 237.346 54.2492 237.514 54.1636C237.772 54.0328 237.258 54.2443 237.546 54.1555C237.663 54.12 237.777 54.0821 237.894 54.0481C237.939 54.0352 238.313 53.9674 238.102 53.9948C237.891 54.0223 238.378 53.9948 238.423 53.9892C238.578 53.9826 238.732 54.0102 238.876 54.0699C239.073 54.1713 239.257 54.2969 239.425 54.4438C239.992 54.9349 240.519 55.4731 241 56.053C241.399 56.5213 241.729 57.0461 241.983 57.6113C242.121 57.923 241.92 57.4087 242.024 57.726C242.077 57.8875 242.126 58.0489 242.166 58.2153C242.2 58.346 242.226 58.4787 242.245 58.6125C242.206 58.2896 242.233 58.8725 242.234 58.908C242.249 61.4014 246.015 61.4062 246 58.908L245.991 58.9145Z" fill="#211715"/>
<path d="M106.055 138.599C106.966 142.595 107.981 146.551 109.019 150.492C109.242 151.585 110.078 152.227 110.886 151.926C111.693 151.624 112.168 150.494 111.945 149.401C110.907 145.463 109.892 141.503 108.981 137.507C108.837 136.8 108.425 136.251 107.9 136.066C107.375 135.881 106.818 136.089 106.437 136.612C106.056 137.134 105.911 137.892 106.055 138.599Z" fill="#211715"/>
</svg>
