<?xml version="1.0" encoding="utf-8"?>
<svg width="446px" height="446px" viewBox="0 0 446 446" version="1.1" xmlns:xlink="http://www.w3.org/1999/xlink" xmlns="http://www.w3.org/2000/svg">
  <path d="M223 0C99.8405 0 0 99.8405 0 223C0 346.16 99.8405 446 223 446C346.159 446 446 346.159 446 223C446 99.8405 346.16 3.05176e-05 223 0L223 0ZM223.06 67.0101C240.936 66.6278 257.266 77.1021 264.373 93.5095C271.481 109.917 267.952 128.994 255.447 141.773C242.941 154.553 223.945 158.493 207.388 151.742C190.831 144.99 180.007 128.89 180.003 111.009C179.874 99.4636 184.34 88.3403 192.415 80.088C200.491 71.8358 211.515 67.1313 223.06 67.0101L223.06 67.0101ZM91.4621 312.231C85.9721 310.042 80.9379 306.851 76.6172 302.819C72.4058 298.872 69.0093 294.138 66.62 288.885C61.7933 278.04 61.7933 265.658 66.62 254.814C68.9797 249.587 72.3815 244.897 76.6171 241.03C80.968 237.081 85.9972 233.951 91.4621 231.791C97.2271 229.503 103.379 228.347 109.582 228.388L171.763 228.388C175.878 228.502 179.864 226.948 182.816 224.081C185.725 221.348 187.352 217.518 187.297 213.528C187.365 209.584 185.733 205.802 182.816 203.147C179.843 200.312 175.871 198.764 171.763 198.839L78.2331 198.839L78.2331 170.002L171.763 170.002C177.964 169.952 184.117 171.1 189.883 173.383C195.307 175.522 200.283 178.656 204.555 182.622C208.697 186.534 212.034 191.216 214.38 196.406C219.207 207.25 219.207 219.632 214.38 230.477C209.572 241.154 200.781 249.531 189.883 253.823C184.129 256.165 177.975 257.372 171.763 257.377L109.647 257.377C105.429 257.259 101.334 258.807 98.249 261.684C95.3365 264.343 93.7048 268.123 93.7675 272.065C93.6346 276.133 95.2687 280.06 98.249 282.833C101.335 285.709 105.429 287.256 109.647 287.141L202.81 287.141L202.81 316L109.647 316C103.398 315.933 97.2222 314.653 91.4621 312.231L91.4621 312.231ZM317.434 334.366L312.107 339.451L292.689 358L166.92 358L140 332.287L320 332L317.434 334.366ZM379.337 289.161C376.937 294.434 373.533 299.187 369.315 303.152C364.996 307.197 359.96 310.398 354.466 312.588C348.699 314.882 342.545 316.04 336.341 315.999L243.216 315.999L243.216 287.067L336.406 287.067C340.625 287.187 344.722 285.636 347.806 282.749C350.787 279.968 352.422 276.032 352.289 271.953C352.358 268 350.724 264.209 347.806 261.547C344.722 258.66 340.625 257.108 336.406 257.229L274.25 257.229C268.046 257.269 261.892 256.111 256.125 253.817C245.224 249.515 236.431 241.116 231.621 230.413C226.793 219.541 226.793 207.128 231.621 196.256C233.962 191.05 237.301 186.355 241.449 182.438C245.75 178.541 250.733 175.474 256.147 173.391C261.908 171.107 268.055 169.956 274.25 170.001L367.807 170.001L367.807 198.933L274.25 198.933C270.141 198.858 266.168 200.409 263.194 203.251C260.272 205.91 258.638 209.704 258.712 213.658C258.657 217.659 260.284 221.498 263.194 224.238C266.147 227.113 270.134 228.67 274.25 228.556L336.384 228.556C342.589 228.504 348.745 229.663 354.509 231.967C359.978 234.128 365.01 237.266 369.358 241.23C373.595 245.111 377.004 249.812 379.38 255.048C384.207 265.912 384.207 278.318 379.38 289.183L379.337 289.161Z" id="Shape" fill="#00AEEF" fill-opacity="0.2813888" fill-rule="evenodd" stroke="none" />
</svg>