<svg width="119" height="119" viewBox="0 0 119 119" fill="none" xmlns="http://www.w3.org/2000/svg">
<mask id="path-1-inside-1_0_284" fill="white">
<path fill-rule="evenodd" clip-rule="evenodd" d="M59.5 0C26.6391 0 0 26.6391 0 59.5C4.40129e-06 92.361 26.6391 119 59.5 119C92.3609 119 119 92.3609 119 59.5C119 26.6391 92.361 8.80258e-06 59.5 0H59.5ZM59.2543 18.0026C63.9265 17.9027 68.1945 20.6403 70.0521 24.9286C71.9098 29.2169 70.9876 34.203 67.719 37.5431C64.4504 40.8832 59.4855 41.913 55.1582 40.1484C50.8309 38.3838 48.0018 34.1758 48.0007 29.5025C47.9672 26.4848 49.1342 23.5776 51.2449 21.4207C53.3555 19.2639 56.2368 18.0343 59.2544 18.0026H59.2543ZM24.7123 82.9932C23.2247 82.4086 21.8606 81.556 20.6898 80.4792C19.5487 79.4248 18.6283 78.1602 17.9809 76.757C16.673 73.8601 16.673 70.5526 17.9809 67.6557C18.6203 66.2596 19.5421 65.0068 20.6898 63.9738C21.8687 62.919 23.2315 62.0828 24.7123 61.5058C26.2744 60.8945 27.9415 60.5859 29.6222 60.5968H46.4712C47.5862 60.6272 48.6663 60.2122 49.4662 59.4462C50.2546 58.7162 50.6953 57.6932 50.6805 56.6272C50.699 55.5739 50.2566 54.5636 49.4662 53.8543C48.6606 53.097 47.5843 52.6836 46.4712 52.7037H21.1277V45.0004H46.4712C48.1516 44.9871 49.8188 45.2938 51.3811 45.9036C52.8508 46.4751 54.1992 47.3121 55.3569 48.3717C56.4791 49.4165 57.3834 50.6672 58.0191 52.0536C59.327 54.9505 59.327 58.258 58.0191 61.1548C56.7162 64.0069 54.3342 66.2447 51.3811 67.3911C49.8219 68.0167 48.1546 68.339 46.4712 68.3403H29.6397C28.4968 68.3089 27.3873 68.7223 26.5513 69.4909C25.7622 70.2012 25.32 71.2108 25.337 72.2639C25.301 73.3506 25.7438 74.3995 26.5513 75.1404C27.3876 75.9085 28.4969 76.3218 29.6397 76.291H54.884V84H29.6397C27.9466 83.9821 26.2731 83.6401 24.7123 82.9932H24.7123ZM85.3158 88.6369L83.8952 90.006L78.7171 95H45.1785L38 88.0774L86 88L85.3158 88.6369ZM101.031 76.8308C100.396 78.2392 99.4957 79.5087 98.3801 80.5681C97.2376 81.6486 95.9055 82.5035 94.4523 83.0885C92.9269 83.7012 91.2991 84.0106 89.6579 83.9997H65.0248V76.2714H89.675C90.7912 76.3034 91.8748 75.889 92.6907 75.1179C93.4793 74.3751 93.9117 73.3236 93.8765 72.2342C93.8946 71.1782 93.4626 70.1654 92.6907 69.4543C91.8748 68.6832 90.7912 68.2687 89.675 68.3008H73.234C71.5928 68.3117 69.965 68.0023 68.4396 67.3895C65.556 66.2402 63.2301 63.9968 61.9578 61.1376C60.6807 58.2335 60.6807 54.9177 61.9578 52.0135C62.5771 50.6228 63.4604 49.3687 64.5574 48.3224C65.6951 47.2814 67.0132 46.4621 68.4453 45.9058C69.9693 45.2958 71.5951 44.9883 73.234 45.0003H97.9811V52.7287H73.234C72.147 52.7085 71.0961 53.123 70.3095 53.8822C69.5364 54.5924 69.1041 55.6058 69.1237 56.6621C69.1093 57.7307 69.5396 58.7563 70.3095 59.4881C71.0905 60.2561 72.1452 60.6721 73.234 60.6416H89.6693C91.3107 60.6278 92.9391 60.9373 94.4637 61.5529C95.9103 62.13 97.2412 62.9684 98.3915 64.0271C99.5123 65.0639 100.414 66.3195 101.042 67.7183C102.319 70.6204 102.319 73.9344 101.042 76.8366L101.031 76.8308Z"/>
</mask>
<path d="M0 59.5L-2 59.5L-2 59.5L0 59.5ZM119 59.5L117 59.5L117 59.5L119 59.5ZM59.5 0L59.5 -2H59.5V0ZM59.2543 18.0026L59.2116 16.0031L59.2543 20.0026V18.0026ZM70.0521 24.9286L68.2169 25.7236L68.2169 25.7236L70.0521 24.9286ZM67.719 37.5431L69.1484 38.9419L69.1484 38.9419L67.719 37.5431ZM55.1582 40.1484L54.403 42.0003L54.403 42.0003L55.1582 40.1484ZM48.0007 29.5025L50.0007 29.502L50.0007 29.4911L50.0006 29.4802L48.0007 29.5025ZM51.2449 21.4207L52.6743 22.8196L52.6743 22.8196L51.2449 21.4207ZM59.2544 18.0026L59.2753 20.0025L59.2544 16.0026V18.0026ZM24.7123 82.9932L23.9808 84.8546L24.3334 84.9932H24.7123V82.9932ZM20.6898 80.4792L19.3326 81.9481L19.3359 81.9512L20.6898 80.4792ZM17.9809 76.757L16.1581 77.5799L16.1614 77.5874L16.1649 77.5949L17.9809 76.757ZM17.9809 67.6557L16.1625 66.8229L16.1581 66.8328L17.9809 67.6557ZM20.6898 63.9738L19.3562 62.4833L19.3519 62.4872L20.6898 63.9738ZM24.7123 61.5058L25.4385 63.3693L25.4411 63.3683L24.7123 61.5058ZM29.6222 60.5968L29.6093 62.5968H29.6222V60.5968ZM46.4712 60.5968L46.5257 58.5975L46.4984 58.5968H46.4712V60.5968ZM49.4662 59.4462L48.1074 57.9786L48.095 57.9901L48.0829 58.0017L49.4662 59.4462ZM50.6805 56.6272L48.6808 56.5921L48.6803 56.6235L48.6807 56.6549L50.6805 56.6272ZM49.4662 53.8543L48.0964 55.3116L48.1132 55.3274L48.1304 55.3428L49.4662 53.8543ZM46.4712 52.7037V54.7037H46.4893L46.5073 54.7034L46.4712 52.7037ZM21.1277 52.7037H19.1277V54.7037H21.1277V52.7037ZM21.1277 45.0004V43.0004H19.1277V45.0004H21.1277ZM46.4712 45.0004V47.0004H46.4791L46.487 47.0004L46.4712 45.0004ZM51.3811 45.9036L50.6539 47.7667L50.6564 47.7677L51.3811 45.9036ZM55.3569 48.3717L56.7197 46.9079L56.7135 46.9021L56.7072 46.8963L55.3569 48.3717ZM58.0191 52.0536L59.842 51.2306L59.8371 51.22L58.0191 52.0536ZM58.0191 61.1548L59.8383 61.9859L59.8419 61.9778L58.0191 61.1548ZM51.3811 67.3911L50.6573 65.5267L50.6468 65.5307L50.6364 65.5349L51.3811 67.3911ZM46.4712 68.3403L46.4712 70.3403L46.4728 70.3403L46.4712 68.3403ZM29.6397 68.3403L29.5848 70.3396L29.6123 70.3403H29.6397V68.3403ZM26.5513 69.4909L27.8892 70.9775L27.8972 70.9704L27.905 70.9632L26.5513 69.4909ZM25.337 72.2639L27.3359 72.3301L27.3375 72.2809L27.3367 72.2316L25.337 72.2639ZM26.5513 75.1404L27.9042 73.6674L27.9034 73.6667L26.5513 75.1404ZM29.6397 76.291V74.291H29.6128L29.5859 74.2917L29.6397 76.291ZM54.884 76.291H56.884V74.291H54.884V76.291ZM54.884 84V86H56.884V84H54.884ZM29.6397 84L29.6185 85.9999L29.6291 86H29.6397V84ZM24.7123 82.9932L25.4781 81.1456L25.1104 80.9932H24.7123V82.9932ZM85.3158 88.6369L83.9531 87.173L83.9404 87.1848L83.928 87.1968L85.3158 88.6369ZM83.8952 90.006L82.5073 88.5658L82.5068 88.5664L83.8952 90.006ZM78.7171 95V97H79.5244L80.1055 96.4396L78.7171 95ZM45.1785 95L43.7902 96.4396L44.3713 97H45.1785V95ZM38 88.0774L37.9968 86.0774L33.0531 86.0854L36.6117 89.517L38 88.0774ZM86 88L87.3627 89.4639L91.0927 85.9918L85.9968 86L86 88ZM101.031 76.8308L101.935 75.0466L100.068 74.1009L99.2076 76.009L101.031 76.8308ZM98.3801 80.5681L99.7544 82.0212L99.7573 82.0184L98.3801 80.5681ZM94.4523 83.0885L95.1978 84.9443L95.1992 84.9438L94.4523 83.0885ZM89.6579 83.9997L89.6712 81.9997H89.6579V83.9997ZM65.0248 83.9997H63.0248V85.9997H65.0248V83.9997ZM65.0248 76.2714V74.2714H63.0248V76.2714H65.0248ZM89.675 76.2714L89.7325 74.2722L89.7038 74.2714H89.675V76.2714ZM92.6907 75.1179L91.3194 73.662L91.3171 73.6643L92.6907 75.1179ZM93.8765 72.2342L91.8768 72.1999L91.8759 72.2493L91.8775 72.2987L93.8765 72.2342ZM92.6907 69.4543L91.3171 70.9079L91.3263 70.9166L91.3356 70.9251L92.6907 69.4543ZM89.675 68.3008V70.3008H89.7038L89.7325 70.2999L89.675 68.3008ZM73.234 68.3008L73.234 66.3007L73.2207 66.3008L73.234 68.3008ZM68.4396 67.3895L69.1851 65.5337L69.1801 65.5316L68.4396 67.3895ZM61.9578 61.1376L60.127 61.9427L60.1305 61.9507L61.9578 61.1376ZM61.9578 52.0135L60.1308 51.1999L60.127 51.2084L61.9578 52.0135ZM64.5574 48.3224L63.2073 46.8468L63.192 46.8608L63.177 46.8751L64.5574 48.3224ZM68.4453 45.9058L69.1695 47.7701L69.1791 47.7664L69.1886 47.7626L68.4453 45.9058ZM73.234 45.0003L73.2193 47.0003L73.2266 47.0003H73.234V45.0003ZM97.9811 45.0003H99.9811V43.0003H97.9811V45.0003ZM97.9811 52.7287V54.7287H99.9811V52.7287H97.9811ZM73.234 52.7287L73.1969 54.7284L73.2154 54.7287H73.234V52.7287ZM70.3095 53.8822L71.6625 55.355L71.6806 55.3384L71.6983 55.3213L70.3095 53.8822ZM69.1237 56.6621L71.1235 56.6891L71.124 56.6571L71.1234 56.625L69.1237 56.6621ZM70.3095 59.4881L71.7116 58.062L71.6996 58.0502L71.6874 58.0386L70.3095 59.4881ZM73.234 60.6416V58.6416H73.206L73.178 58.6424L73.234 60.6416ZM89.6693 60.6416V62.6416H89.6777L89.6862 62.6415L89.6693 60.6416ZM94.4637 61.5529L93.7149 63.4074L93.7226 63.4105L94.4637 61.5529ZM98.3915 64.0271L99.7497 62.559L99.7459 62.5555L98.3915 64.0271ZM101.042 67.7183L102.873 66.9129L102.87 66.9058L102.867 66.8987L101.042 67.7183ZM101.042 76.8366L100.139 78.6207L102.023 79.575L102.873 77.642L101.042 76.8366ZM59.5 -2C25.5345 -2 -2 25.5345 -2 59.5H2C2 27.7436 27.7436 2 59.5 2V-2ZM-2 59.5C-2 93.4655 25.5345 121 59.5 121V117C27.7436 117 2 91.2564 2 59.5L-2 59.5ZM59.5 121C93.4655 121 121 93.4655 121 59.5L117 59.5C117 91.2564 91.2564 117 59.5 117V121ZM121 59.5C121 25.5345 93.4655 -1.99999 59.5 -2L59.5 2C91.2564 2.00001 117 27.7436 117 59.5H121ZM59.5 -2H59.5V2H59.5V-2ZM59.2971 20.0022C63.1566 19.9196 66.6824 22.1811 68.2169 25.7236L71.8874 24.1336C69.7067 19.0995 64.6964 15.8858 59.2116 16.0031L59.2971 20.0022ZM68.2169 25.7236C69.7515 29.2661 68.9897 33.385 66.2895 36.1442L69.1484 38.9419C72.9854 35.0209 74.0681 29.1677 71.8874 24.1336L68.2169 25.7236ZM66.2895 36.1442C63.5894 38.9034 59.4881 39.7541 55.9134 38.2964L54.403 42.0003C59.483 44.0718 65.3113 42.8629 69.1484 38.9419L66.2895 36.1442ZM55.9134 38.2964C52.3387 36.8388 50.0016 33.3626 50.0007 29.502L46.0007 29.5029C46.002 34.989 49.3231 39.9288 54.403 42.0003L55.9134 38.2964ZM50.0006 29.4802C49.9729 26.9932 50.9348 24.5971 52.6743 22.8196L49.8154 20.0219C47.3336 22.558 45.9614 25.9764 46.0008 29.5247L50.0006 29.4802ZM52.6743 22.8196C54.4138 21.042 56.7884 20.0286 59.2753 20.0025L59.2334 16.0028C55.6852 16.04 52.2973 17.4858 49.8154 20.0219L52.6743 22.8196ZM59.2544 16.0026H59.2543V20.0026H59.2544V16.0026ZM25.4438 81.1318C24.1848 80.637 23.032 79.9161 22.0438 79.0071L19.3359 81.9512C20.6892 83.196 22.2646 84.1802 23.9808 84.8546L25.4438 81.1318ZM22.0471 79.0102C21.0977 78.1331 20.3337 77.0826 19.7969 75.9191L16.1649 77.5949C16.9229 79.2379 17.9996 80.7166 19.3326 81.9481L22.0471 79.0102ZM19.8037 75.934C18.7321 73.5603 18.7321 70.8523 19.8037 68.4787L16.1581 66.8328C14.614 70.2529 14.614 74.1598 16.1581 77.5799L19.8037 75.934ZM19.7993 68.4885C20.3242 67.3423 21.082 66.3116 22.0277 65.4604L19.3519 62.4872C18.0022 63.7019 16.9164 65.1769 16.1625 66.8229L19.7993 68.4885ZM22.0234 65.4643C23.023 64.5699 24.1798 63.8598 25.4385 63.3693L23.9861 59.6423C22.2832 60.3059 20.7145 61.268 19.3562 62.4833L22.0234 65.4643ZM25.4411 63.3683C26.7664 62.8497 28.1818 62.5875 29.6093 62.5967L29.6352 58.5968C27.7012 58.5843 25.7824 58.9394 23.9836 59.6433L25.4411 63.3683ZM29.6222 62.5968H46.4712V58.5968H29.6222V62.5968ZM46.4167 62.596C48.0615 62.6409 49.6606 62.0292 50.8495 60.8907L48.0829 58.0017C47.672 58.3952 47.1108 58.6135 46.5257 58.5975L46.4167 62.596ZM50.825 60.9137C52.0255 59.8021 52.703 58.2373 52.6803 56.5995L48.6807 56.6549C48.6875 57.1491 48.4837 57.6302 48.1074 57.9786L50.825 60.9137ZM52.6802 56.6624C52.709 55.0235 52.0202 53.459 50.802 52.3658L48.1304 55.3428C48.493 55.6682 48.689 56.1243 48.6808 56.5921L52.6802 56.6624ZM50.836 52.397C49.6474 51.2798 48.0656 50.6746 46.4351 50.704L46.5073 54.7034C47.1031 54.6926 47.6737 54.9143 48.0964 55.3116L50.836 52.397ZM46.4712 50.7037H21.1277V54.7037H46.4712V50.7037ZM23.1277 52.7037V45.0004H19.1277V52.7037H23.1277ZM21.1277 47.0004H46.4712V43.0004H21.1277V47.0004ZM46.487 47.0004C47.9138 46.9891 49.3288 47.2495 50.6539 47.7667L52.1083 44.0405C50.3087 43.3381 48.3894 42.9852 46.4554 43.0005L46.487 47.0004ZM50.6564 47.7677C51.8964 48.2498 53.0325 48.9554 54.0066 49.847L56.7072 46.8963C55.366 45.6688 53.8052 44.7003 52.1058 44.0396L50.6564 47.7677ZM53.994 49.8355C54.9258 50.703 55.675 51.7399 56.2011 52.8872L59.8371 51.22C59.0918 49.5945 58.0324 48.13 56.7197 46.9079L53.994 49.8355ZM56.1963 52.8766C57.2679 55.2502 57.2679 57.9582 56.1963 60.3319L59.8419 61.9778C61.386 58.5577 61.386 54.6507 59.8419 51.2306L56.1963 52.8766ZM56.1999 60.3238C55.116 62.6964 53.1302 64.5666 50.6573 65.5267L52.1049 69.2555C55.5382 67.9227 58.3163 65.3174 59.8383 61.9859L56.1999 60.3238ZM50.6364 65.5349C49.314 66.0655 47.899 66.3392 46.4696 66.3403L46.4728 70.3403C48.4103 70.3388 50.3299 69.9678 52.1258 69.2473L50.6364 65.5349ZM46.4712 66.3403H29.6397V70.3403H46.4712V66.3403ZM29.6946 66.3411C28.0355 66.2955 26.4196 66.8951 25.1977 68.0187L27.905 70.9632C28.355 70.5495 28.9581 70.3224 29.5848 70.3396L29.6946 66.3411ZM25.2134 68.0043C23.9984 69.0978 23.3108 70.6596 23.3373 72.2962L27.3367 72.2316C27.3292 71.7621 27.5259 71.3046 27.8892 70.9775L25.2134 68.0043ZM23.3381 72.1976C23.2826 73.8727 23.9657 75.4824 25.1992 76.6141L27.9034 73.6667C27.5218 73.3166 27.3194 72.8284 27.3359 72.3301L23.3381 72.1976ZM25.1985 76.6134C26.4204 77.7357 28.0352 78.3349 29.6936 78.2903L29.5859 74.2917C28.9586 74.3086 28.3549 74.0813 27.9042 73.6674L25.1985 76.6134ZM29.6397 78.291H54.884V74.291H29.6397V78.291ZM52.884 76.291V84H56.884V76.291H52.884ZM54.884 82H29.6397V86H54.884V82ZM29.6609 82.0001C28.2229 81.9849 26.8022 81.6944 25.4781 81.1456L23.9465 84.8408C25.744 85.5858 27.6703 85.9792 29.6185 85.9999L29.6609 82.0001ZM24.7123 80.9932H24.7123V84.9932H24.7123V80.9932ZM83.928 87.1968L82.5073 88.5658L85.283 91.4461L86.7036 90.077L83.928 87.1968ZM82.5068 88.5664L77.3287 93.5604L80.1055 96.4396L85.2836 91.4455L82.5068 88.5664ZM78.7171 93H45.1785V97H78.7171V93ZM46.5669 93.5604L39.3883 86.6377L36.6117 89.517L43.7902 96.4396L46.5669 93.5604ZM38.0032 90.0774L86.0032 90L85.9968 86L37.9968 86.0774L38.0032 90.0774ZM84.6373 86.5361L83.9531 87.173L86.6785 90.1008L87.3627 89.4639L84.6373 86.5361ZM99.2076 76.009C98.679 77.182 97.9297 78.2378 97.003 79.1178L99.7573 82.0184C101.062 80.7797 102.113 79.2965 102.854 77.6526L99.2076 76.009ZM97.0059 79.115C96.0447 80.0241 94.9252 80.7421 93.7054 81.2332L95.1992 84.9438C96.8857 84.2648 98.4306 83.2732 99.7544 82.0212L97.0059 79.115ZM93.7068 81.2326C92.4222 81.7486 91.0521 82.0089 89.6712 81.9998L89.6446 85.9997C91.5461 86.0123 93.4317 85.6538 95.1978 84.9443L93.7068 81.2326ZM89.6579 81.9997H65.0248V85.9997H89.6579V81.9997ZM67.0248 83.9997V76.2714H63.0248V83.9997H67.0248ZM65.0248 78.2714H89.675V74.2714H65.0248V78.2714ZM89.6176 78.2705C91.2675 78.318 92.865 77.7049 94.0644 76.5715L91.3171 73.6643C90.8845 74.073 90.3148 74.2889 89.7325 74.2722L89.6176 78.2705ZM94.0621 76.5737C95.2711 75.4348 95.929 73.8283 95.8755 72.1696L91.8775 72.2987C91.8943 72.8188 91.6874 73.3154 91.3194 73.662L94.0621 76.5737ZM95.8762 72.2684C95.904 70.6459 95.2406 69.0841 94.0459 67.9834L91.3356 70.9251C91.6846 71.2467 91.8852 71.7105 91.8768 72.1999L95.8762 72.2684ZM94.0644 68.0006C92.865 66.8672 91.2675 66.2542 89.6175 66.3016L89.7325 70.2999C90.3148 70.2832 90.8845 70.4991 91.3171 70.9079L94.0644 68.0006ZM89.675 66.3008H73.234V70.3008H89.675V66.3008ZM73.2207 66.3008C71.8398 66.31 70.4697 66.0497 69.1851 65.5337L67.6941 69.2454C69.4602 69.9549 71.3458 70.3134 73.2473 70.3007L73.2207 66.3008ZM69.1801 65.5316C66.7855 64.5773 64.8472 62.7114 63.7851 60.3245L60.1305 61.9507C61.613 65.2823 64.3264 67.9032 67.6991 69.2474L69.1801 65.5316ZM63.7886 60.3325C62.7371 57.9414 62.7371 55.2097 63.7886 52.8186L60.127 51.2084C58.6243 54.6256 58.6243 58.5255 60.127 61.9427L63.7886 60.3325ZM63.7848 52.8272C64.2985 51.6738 65.0303 50.6351 65.9378 49.7696L63.177 46.8751C61.8904 48.1023 60.8558 49.5719 60.1308 51.1999L63.7848 52.8272ZM65.9074 49.798C66.8631 48.9236 67.9692 48.2364 69.1695 47.7701L67.7211 44.0416C66.0573 44.6879 64.5271 45.6393 63.2073 46.8468L65.9074 49.798ZM69.1886 47.7626C70.472 47.2488 71.8404 46.9902 73.2193 47.0003L73.2486 43.0004C71.3498 42.9865 69.4666 43.3427 67.702 44.0491L69.1886 47.7626ZM73.234 47.0003H97.9811V43.0003H73.234V47.0003ZM95.9811 45.0003V52.7287H99.9811V45.0003H95.9811ZM97.9811 50.7287H73.234V54.7287H97.9811V50.7287ZM73.2711 50.729C71.6499 50.699 70.0869 51.3175 68.9206 52.4431L71.6983 55.3213C72.1053 54.9286 72.6441 54.7181 73.1969 54.7284L73.2711 50.729ZM68.9564 52.4094C67.7585 53.5099 67.0939 55.0744 67.124 56.6991L71.1234 56.625C71.1143 56.1372 71.3143 55.6749 71.6625 55.355L68.9564 52.4094ZM67.1239 56.6351C67.102 58.2572 67.7548 59.8192 68.9315 60.9377L71.6874 58.0386C71.3243 57.6934 71.1166 57.2043 71.1235 56.6891L67.1239 56.6351ZM68.9073 60.9143C70.0737 62.0611 71.6539 62.6866 73.2899 62.6408L73.178 58.6424C72.6365 58.6575 72.1073 58.451 71.7116 58.062L68.9073 60.9143ZM73.234 62.6416H89.6693V58.6416H73.234V62.6416ZM89.6862 62.6415C91.0649 62.6299 92.4331 62.8899 93.7149 63.4074L95.2125 59.6983C93.4451 58.9847 91.5566 58.6257 89.6525 58.6417L89.6862 62.6415ZM93.7226 63.4105C94.9421 63.897 96.0653 64.6043 97.0371 65.4987L99.7459 62.5555C98.4171 61.3325 96.8785 60.363 95.2048 59.6953L93.7226 63.4105ZM97.0333 65.4952C97.9558 66.3486 98.6994 67.3833 99.218 68.5378L102.867 66.8987C102.129 65.2557 101.069 63.7792 99.7497 62.559L97.0333 65.4952ZM99.2117 68.5237C100.263 70.9127 100.263 73.6422 99.2117 76.0312L102.873 77.642C104.376 74.2266 104.376 70.3282 102.873 66.9129L99.2117 68.5237ZM101.946 75.0524L101.935 75.0466L100.127 78.615L100.139 78.6207L101.946 75.0524Z" fill="url(#paint0_linear_0_284)" mask="url(#path-1-inside-1_0_284)"/>
<defs>
<linearGradient id="paint0_linear_0_284" x1="47.8647" y1="-5.78263" x2="-6.74004" y2="91.6976" gradientUnits="userSpaceOnUse">
<stop stop-color="#4C8AF4"/>
<stop offset="0.599521" stop-color="#95F1FF"/>
<stop offset="1" stop-color="#00AEEF"/>
</linearGradient>
</defs>
</svg>
