<svg width="244" height="42" viewBox="0 0 244 42" fill="none" xmlns="http://www.w3.org/2000/svg">
<mask id="mask0_0_13" style="mask-type:luminance" maskUnits="userSpaceOnUse" x="0" y="0" width="244" height="42">
<path fill-rule="evenodd" clip-rule="evenodd" d="M0 0H244V42H0V0Z" fill="white"/>
</mask>
<g mask="url(#mask0_0_13)">
<path fill-rule="evenodd" clip-rule="evenodd" d="M60.3344 13V16.1716H50.0741C49.5944 16.1716 49.1901 16.3268 48.8623 16.6349C48.5336 16.9437 48.3701 17.3236 48.3701 17.7753C48.3701 18.2269 48.5336 18.6121 48.8623 18.9331C49.1901 19.2534 49.5944 19.414 50.0741 19.414H56.8893C57.5955 19.414 58.2579 19.5383 58.8769 19.7882C59.4947 20.0384 60.0378 20.3762 60.5055 20.8042C60.9718 21.2316 61.3376 21.7363 61.6025 22.3186C61.8678 22.9002 62 23.5239 62 24.1895C62 24.8546 61.8678 25.4783 61.6025 26.0603C61.3376 26.6424 60.9718 27.1537 60.5055 27.5927C60.0378 28.0324 59.4947 28.3758 58.8769 28.6264C58.2579 28.8756 57.5955 29 56.8893 29H46.6665V25.828H56.8893C57.3936 25.828 57.8103 25.6744 58.1382 25.3651C58.4664 25.057 58.6304 24.665 58.6304 24.1895C58.6304 23.7378 58.4664 23.3582 58.1382 23.0489C57.8103 22.7403 57.3936 22.586 56.8893 22.586H50.0741C49.367 22.586 48.7042 22.4614 48.086 22.2113C47.4674 21.9621 46.9309 21.6177 46.4771 21.1785C46.0224 20.7388 45.6628 20.2282 45.398 19.6459C45.1327 19.0638 45 18.4406 45 17.7753C45 17.1102 45.1327 16.4865 45.398 15.9044C45.6628 15.3228 46.0224 14.8178 46.4771 14.39C46.9309 13.962 47.4674 13.6237 48.086 13.374C48.7042 13.1248 49.367 13 50.0741 13H60.3344" fill="#0B0B09"/>
<path fill-rule="evenodd" clip-rule="evenodd" d="M81 13V20.9824C81 22.0752 80.7785 23.1087 80.3367 24.0826C79.895 25.057 79.2826 25.9124 78.501 26.6478C77.7185 27.3851 76.8162 27.9609 75.7934 28.3761C74.7714 28.7924 73.6673 29 72.481 29C71.3193 29 70.2214 28.7922 69.1865 28.3761C68.1512 27.9609 67.2498 27.3851 66.4798 26.6478C65.7093 25.9124 65.1032 25.0572 64.6628 24.0826C64.2202 23.109 64 22.0752 64 20.9824V13H67.3691V20.9824C67.3691 21.6475 67.5022 22.2779 67.7675 22.8712C68.0324 23.4648 68.3977 23.9817 68.8649 24.4207C69.3317 24.8604 69.8744 25.2043 70.4939 25.4547C71.1116 25.7031 71.7744 25.8277 72.4815 25.8277C73.1872 25.8277 73.8567 25.7031 74.4874 25.4547C75.118 25.204 75.6674 24.8604 76.1346 24.4207C76.6023 23.9817 76.9681 23.4646 77.2329 22.8712C77.4978 22.2777 77.6305 21.6475 77.6305 20.9824V13H81" fill="#0B0B09"/>
<path fill-rule="evenodd" clip-rule="evenodd" d="M91.4878 25.2243C92.118 24.9792 92.6679 24.6418 93.1351 24.2102C93.6023 23.7786 93.9685 23.2717 94.2329 22.6878C94.4978 22.1052 94.6305 21.4876 94.6305 20.8346C94.6305 20.1825 94.4983 19.5704 94.2329 18.9991C93.9685 18.4277 93.6023 17.9257 93.1351 17.4948C92.6679 17.0635 92.118 16.725 91.4878 16.48C90.8567 16.2356 90.1876 16.1129 89.4815 16.1129C88.774 16.1129 88.1116 16.2356 87.4934 16.48C86.8748 16.725 86.3321 17.0637 85.8658 17.4948C85.3986 17.9257 85.0333 18.4277 84.768 18.9991C84.5031 19.5704 84.3704 20.1825 84.3704 20.8346V25.5914H89.4819C90.1876 25.5914 90.8567 25.4696 91.4878 25.2243ZM89.4815 13C90.6678 13 91.7719 13.2051 92.7943 13.6121C93.8167 14.021 94.7185 14.5797 95.5014 15.2908C96.2835 16.003 96.8954 16.8305 97.3367 17.7743C97.7785 18.7191 98 19.7394 98 20.8348C98 21.9079 97.7785 22.9223 97.3367 23.8779C96.8954 24.834 96.2831 25.6736 95.5014 26.3963C94.7185 27.1188 93.8167 27.6849 92.7943 28.0921C91.7714 28.5008 90.6678 28.7043 89.4815 28.7043H84.37V35H81V20.8346C81 19.7392 81.2211 18.7189 81.6628 17.774C82.1041 16.8303 82.7098 16.0027 83.4803 15.2905C84.2498 14.5795 85.1516 14.021 86.1874 13.6119C87.2223 13.2051 88.3197 13 89.4815 13V13Z" fill="#0B0B09"/>
<path fill-rule="evenodd" clip-rule="evenodd" d="M109.488 25.2243C110.118 24.9792 110.668 24.6418 111.135 24.2102C111.602 23.7786 111.968 23.2717 112.233 22.6878C112.498 22.1052 112.631 21.4876 112.631 20.8346C112.631 20.1825 112.498 19.5704 112.233 18.9991C111.968 18.4277 111.602 17.9257 111.135 17.4948C110.668 17.0635 110.118 16.725 109.488 16.48C108.857 16.2356 108.188 16.1129 107.481 16.1129C106.774 16.1129 106.112 16.2356 105.494 16.48C104.875 16.725 104.333 17.0637 103.866 17.4948C103.399 17.9257 103.033 18.4277 102.768 18.9991C102.503 19.5704 102.37 20.1825 102.37 20.8346V25.5914H107.482C108.188 25.5914 108.857 25.4696 109.488 25.2243ZM107.481 13C108.668 13 109.772 13.2051 110.795 13.6121C111.817 14.021 112.719 14.5797 113.501 15.2908C114.284 16.003 114.896 16.8305 115.338 17.7743C115.779 18.7191 116 19.7394 116 20.8348C116 21.9079 115.779 22.9223 115.338 23.8779C114.896 24.834 114.284 25.6736 113.501 26.3963C112.719 27.1188 111.817 27.6849 110.795 28.0921C109.772 28.5008 108.668 28.7043 107.481 28.7043H102.37V35H99V20.8346C99 19.7392 99.2211 18.7189 99.6628 17.774C100.104 16.8303 100.71 16.0027 101.48 15.2905C102.25 14.5795 103.152 14.021 104.187 13.6119C105.222 13.2051 106.32 13 107.481 13V13Z" fill="#0B0B09"/>
<path fill-rule="evenodd" clip-rule="evenodd" d="M120.332 20.9823C120.332 21.6476 120.464 22.2769 120.729 22.8704C120.994 23.4656 121.359 23.9818 121.827 24.4215C122.294 24.8612 122.843 25.205 123.475 25.4547C124.105 25.7044 124.774 25.8288 125.48 25.8288C126.187 25.8288 126.857 25.7044 127.488 25.4547C128.118 25.205 128.668 24.8612 129.134 24.4215C129.601 23.9818 129.968 23.4654 130.232 22.8704C130.498 22.2769 130.629 21.6476 130.629 20.9823C130.629 20.318 130.498 19.6943 130.232 19.1122C129.968 18.5301 129.601 18.0187 129.134 17.5797C128.668 17.1402 128.118 16.7954 127.488 16.5457C126.857 16.2968 126.187 16.1717 125.48 16.1717C124.774 16.1717 124.105 16.2968 123.475 16.5457C122.843 16.7954 122.294 17.1404 121.827 17.5797C121.36 18.0187 120.995 18.5301 120.729 19.1122C120.464 19.6943 120.332 20.318 120.332 20.9823ZM117 20.9823C117 19.8663 117.221 18.8268 117.662 17.8641C118.104 16.9027 118.709 16.0595 119.48 15.3339C120.25 14.6095 121.152 14.0405 122.187 13.6237C123.222 13.209 124.32 13 125.481 13C126.667 13 127.772 13.209 128.794 13.6237C129.816 14.0403 130.718 14.6095 131.501 15.3339C132.283 16.0595 132.895 16.9027 133.338 17.8641C133.778 18.8268 134 19.8663 134 20.9823C134 22.0756 133.778 23.1091 133.338 24.0828C132.895 25.0568 132.283 25.9122 131.501 26.6485C130.718 27.3847 129.816 27.9614 128.794 28.3763C127.772 28.7926 126.667 29 125.481 29C124.32 29 123.222 28.7926 122.187 28.3763C121.152 27.9611 120.25 27.3847 119.48 26.6485C118.709 25.912 118.104 25.0568 117.662 24.0828C117.221 23.1094 117 22.0756 117 20.9823V20.9823Z" fill="#0B0B09"/>
<path fill-rule="evenodd" clip-rule="evenodd" d="M145 13.0002V16.1717H143.333C142.641 16.1717 141.994 16.2968 141.389 16.5458C140.783 16.7955 140.253 17.1393 139.796 17.5795C139.34 18.019 138.981 18.53 138.722 19.1116C138.463 19.6937 138.334 20.3174 138.334 20.9825V29H135V20.9825C135 19.8658 135.216 18.8262 135.648 17.8642C136.08 16.902 136.679 16.0588 137.445 15.3339C138.209 14.6099 139.098 14.0388 140.111 13.6237C141.123 13.2074 142.197 13 143.333 13H145V13.0002" fill="#0B0B09"/>
<path fill-rule="evenodd" clip-rule="evenodd" d="M156 24.8867V28H154.365C153.223 28 152.146 27.7961 151.13 27.3877C150.113 26.9801 149.221 26.4151 148.453 25.6914C147.685 24.9696 147.084 24.1303 146.65 23.1737C146.217 22.2181 146 21.2035 146 20.1309V6H149.309V15.4446H156V18.557H149.309V20.1309C149.309 20.7837 149.439 21.4025 149.699 21.9848C149.959 22.5674 150.318 23.0747 150.777 23.5055C151.235 23.9371 151.774 24.2746 152.394 24.5204C153.013 24.7642 153.67 24.8865 154.365 24.8865H156V24.8867" fill="#0B0B09"/>
<path fill-rule="evenodd" clip-rule="evenodd" d="M172.334 13V16.1716H162.073C161.594 16.1716 161.19 16.3268 160.862 16.6349C160.533 16.9437 160.37 17.3236 160.37 17.7753C160.37 18.2269 160.533 18.6121 160.862 18.9331C161.19 19.2534 161.594 19.414 162.073 19.414H168.889C169.595 19.414 170.258 19.5383 170.877 19.7882C171.495 20.0384 172.037 20.3762 172.505 20.8042C172.972 21.2316 173.338 21.7363 173.603 22.3186C173.868 22.9002 174 23.5239 174 24.1895C174 24.8546 173.868 25.4783 173.603 26.0603C173.338 26.6424 172.972 27.1537 172.505 27.5927C172.037 28.0324 171.495 28.3758 170.877 28.6264C170.258 28.8756 169.595 29 168.889 29H158.666V25.828H168.889C169.394 25.828 169.81 25.6744 170.138 25.3651C170.465 25.057 170.63 24.665 170.63 24.1895C170.63 23.7378 170.465 23.3582 170.138 23.0489C169.81 22.7403 169.394 22.586 168.889 22.586H162.073C161.367 22.586 160.704 22.4614 160.086 22.2113C159.467 21.9621 158.931 21.6177 158.477 21.1785C158.022 20.7388 157.663 20.2282 157.398 19.6459C157.133 19.0638 157 18.4406 157 17.7753C157 17.1102 157.133 16.4865 157.398 15.9044C157.663 15.3228 158.022 14.8178 158.477 14.39C158.931 13.962 159.467 13.6237 160.086 13.374C160.704 13.1248 161.367 13 162.073 13H172.334" fill="#2D92C4"/>
<path fill-rule="evenodd" clip-rule="evenodd" d="M188.63 25.8278V20.9822C188.63 20.3169 188.497 19.6935 188.232 19.1114C187.967 18.5298 187.601 18.0185 187.135 17.5793C186.667 17.1391 186.125 16.7952 185.507 16.5455C184.888 16.2966 184.226 16.1715 183.519 16.1715C182.811 16.1715 182.143 16.2966 181.513 16.5455C180.881 16.7952 180.332 17.1391 179.865 17.5793C179.398 18.0187 179.032 18.5298 178.767 19.1114C178.502 19.6935 178.37 20.3171 178.37 20.9822C178.37 21.6473 178.502 22.2778 178.767 22.8711C179.032 23.4646 179.398 23.9815 179.865 24.4205C180.332 24.8602 180.881 25.2041 181.513 25.4545C182.143 25.7029 182.811 25.8275 183.519 25.8275H188.63V25.8278ZM183.519 13C184.705 13 185.809 13.2074 186.832 13.6237C187.854 14.0389 188.75 14.61 189.52 15.3339C190.29 16.0586 190.895 16.9018 191.337 17.8642C191.778 18.8262 192 19.8657 192 20.9824V29H183.519C182.358 29 181.26 28.7922 180.225 28.3761C179.19 27.9609 178.281 27.3851 177.499 26.6478C176.716 25.9124 176.104 25.0572 175.663 24.0827C175.221 23.109 175 22.0753 175 20.9824C175 19.8657 175.221 18.8262 175.663 17.8642C176.104 16.902 176.716 16.0588 177.499 15.3339C178.281 14.61 179.19 14.0389 180.225 13.6237C181.26 13.2074 182.358 13 183.519 13V13Z" fill="#2D92C4"/>
<path fill-rule="evenodd" clip-rule="evenodd" d="M195.369 20.8345C195.369 21.4873 195.502 22.1061 195.766 22.6884C196.032 23.271 196.398 23.7783 196.864 24.2092C197.332 24.6407 197.88 24.9782 198.512 25.224C199.143 25.4678 199.811 25.5902 200.518 25.5902H205.668V20.8345C205.668 20.1815 205.535 19.5696 205.271 18.9983C205.005 18.4275 204.639 17.9256 204.172 17.4945C203.705 17.0625 203.156 16.725 202.525 16.4799C201.894 16.2356 201.226 16.1128 200.518 16.1128C199.811 16.1128 199.143 16.2356 198.512 16.4799C197.88 16.725 197.332 17.0625 196.864 17.4945C196.398 17.9259 196.032 18.4275 195.766 18.9983C195.502 19.5694 195.369 20.1815 195.369 20.8345ZM200.519 13C201.705 13 202.81 13.2035 203.832 13.6121C204.854 14.0196 205.75 14.5802 206.521 15.2908C207.29 16.002 207.895 16.8296 208.338 17.7742C208.778 18.7184 209 19.7387 209 20.8347V27.1304C209 28.2264 208.778 29.2463 208.338 30.1902C207.895 31.1351 207.29 31.9684 206.521 32.6909C205.75 33.4139 204.854 33.9797 203.832 34.3879C202.81 34.7956 201.705 35 200.519 35H198.815V31.8872H200.519C201.655 31.8872 202.658 31.5903 203.529 30.9949C204.399 30.4001 205.011 29.6363 205.365 28.7039H200.519C199.358 28.7039 198.26 28.4999 197.225 28.0915C196.19 27.684 195.281 27.1189 194.498 26.3952C193.716 25.6734 193.104 24.8341 192.662 23.8776C192.221 22.922 192 21.9074 192 20.8347C192 19.7387 192.221 18.7184 192.662 17.7742C193.104 16.8298 193.716 16.0022 194.498 15.2908C195.281 14.5801 196.19 14.0196 197.225 13.6121C198.26 13.2035 199.358 13 200.519 13V13Z" fill="#2D92C4"/>
<path fill-rule="evenodd" clip-rule="evenodd" d="M214.638 17.5607C213.671 18.5112 213.189 19.652 213.189 20.9819C213.189 21.718 213.357 22.42 213.696 23.0837C213.986 22.7999 214.426 22.366 215.018 21.7839C215.61 21.2023 216.237 20.5845 216.903 19.9306C217.566 19.2773 218.207 18.654 218.823 18.06C219.439 17.4658 219.915 17.0032 220.254 16.6706C219.335 16.2189 218.363 16.0646 217.337 16.2068C216.31 16.3501 215.41 16.8014 214.638 17.5607ZM222.717 23.2978L225 25.5431L223.877 26.6486C223.103 27.4086 222.222 27.9899 221.231 28.3936C220.241 28.799 219.203 29 218.116 29C217.029 29 215.99 28.799 215 28.3936C214.009 27.9899 213.128 27.4086 212.355 26.6486C211.558 25.8643 210.966 24.9795 210.58 23.9932C210.193 23.0079 210 22.0039 210 20.9821C210 19.9611 210.193 18.9631 210.58 17.9883C210.966 17.0154 211.558 16.1366 212.355 15.3519C213.152 14.5679 214.052 13.9799 215.055 13.5888C216.056 13.1961 217.077 13 218.116 13C219.154 13 220.175 13.1959 221.178 13.5888C222.18 13.9799 223.08 14.5681 223.877 15.3519L225 16.4569L215.979 25.3297C216.895 25.7813 217.868 25.9297 218.895 25.7752C219.922 25.6207 220.821 25.1634 221.595 24.403L222.717 23.2978V23.2978Z" fill="#2D92C4"/>
<path fill-rule="evenodd" clip-rule="evenodd" d="M242.335 13V16.1716H232.074C231.594 16.1716 231.19 16.3268 230.862 16.6349C230.534 16.9437 230.37 17.3236 230.37 17.7753C230.37 18.2269 230.534 18.6121 230.862 18.9331C231.19 19.2534 231.594 19.414 232.074 19.414H238.889C239.595 19.414 240.258 19.5383 240.877 19.7882C241.495 20.0384 242.037 20.3762 242.505 20.8042C242.971 21.2316 243.338 21.7363 243.603 22.3186C243.868 22.9002 244 23.5239 244 24.1895C244 24.8546 243.868 25.4783 243.603 26.0603C243.338 26.6424 242.971 27.1537 242.505 27.5927C242.037 28.0324 241.495 28.3758 240.877 28.6264C240.258 28.8756 239.595 29 238.889 29H228.666V25.828H238.889C239.394 25.828 239.81 25.6744 240.138 25.3651C240.466 25.057 240.63 24.665 240.63 24.1895C240.63 23.7378 240.466 23.3582 240.138 23.0489C239.81 22.7403 239.394 22.586 238.889 22.586H232.074C231.367 22.586 230.704 22.4614 230.086 22.2113C229.467 21.9621 228.931 21.6177 228.477 21.1785C228.022 20.7388 227.663 20.2282 227.397 19.6459C227.132 19.0638 227 18.4406 227 17.7753C227 17.1102 227.132 16.4865 227.397 15.9044C227.663 15.3228 228.022 14.8178 228.477 14.39C228.931 13.962 229.467 13.6237 230.086 13.374C230.704 13.1248 231.367 13 232.074 13H242.335" fill="#2D92C4"/>
<path fill-rule="evenodd" clip-rule="evenodd" d="M35.7905 27.2066C35.5621 27.7082 35.2465 28.1466 34.8447 28.524C34.4421 28.9046 33.9744 29.1993 33.4422 29.4142C32.9092 29.6293 32.3381 29.7367 31.7299 29.7367H22.925V27.0074H31.7299C32.1647 27.0074 32.5227 26.8735 32.806 26.6086C33.0883 26.3435 33.2302 26.0054 33.2302 25.5969C33.2302 25.2081 33.0883 24.8811 32.806 24.6159C32.5227 24.3508 32.1647 24.2167 31.7299 24.2167H25.8602C25.2506 24.2167 24.68 24.1091 24.1476 23.8942C23.615 23.6807 23.153 23.3839 22.7613 23.0054C22.3701 22.6278 22.0607 22.1875 21.8322 21.6871C21.6038 21.1855 21.4896 20.65 21.4896 20.0766C21.4896 19.5049 21.6038 18.9673 21.8322 18.4664C22.0607 17.9662 22.3701 17.5312 22.7613 17.1642C23.153 16.7962 23.615 16.5048 24.1476 16.2896C24.6798 16.0757 25.2506 15.9679 25.8602 15.9679H34.698V18.6974H25.8602C25.447 18.6974 25.0984 18.831 24.816 19.0955C24.5329 19.3616 24.3924 19.6888 24.3924 20.0766C24.3924 20.4662 24.5329 20.7972 24.816 21.0737C25.0984 21.3495 25.447 21.4881 25.8602 21.4881H31.7299C32.3381 21.4881 32.9092 21.594 33.4422 21.8092C33.9744 22.0231 34.4421 22.3157 34.8447 22.6837C35.2465 23.0507 35.5621 23.4864 35.7905 23.9873C36.0187 24.4884 36.1327 25.0244 36.1327 25.5969C36.1327 26.17 36.0187 26.7057 35.7905 27.2066ZM29.8396 31.5043L27.5233 33.681H15.7403L13.2197 31.3116L30.0744 31.2856L29.8396 31.5043ZM8.55776 29.4144C8.02533 29.1995 7.55786 28.9046 7.1551 28.5257C6.75299 28.1466 6.43786 27.7082 6.20946 27.2076C5.98106 26.7064 5.86729 26.1698 5.86729 25.5969C5.86729 25.0244 5.98106 24.4884 6.20946 23.9873C6.43786 23.4867 6.75299 23.0509 7.1551 22.6837C7.55786 22.3157 8.02533 22.0243 8.55776 21.8099C9.09085 21.5956 9.66116 21.4881 10.2696 21.4881H16.1395C16.553 21.4881 16.9013 21.3502 17.1837 21.0737C17.4666 20.7972 17.6074 20.4662 17.6074 20.0766C17.6074 19.6895 17.4666 19.3623 17.1837 19.0962C16.9013 18.831 16.553 18.6974 16.1395 18.6974H7.30176V15.9686H16.1395C16.749 15.9686 17.3197 16.0762 17.8524 16.2896C18.3848 16.5045 18.8466 16.7962 19.2387 17.1642C19.6296 17.5312 19.9393 17.9672 20.1678 18.4671C20.3959 18.9696 20.5101 19.5049 20.5101 20.0766C20.5101 20.65 20.3959 21.186 20.1678 21.6871C19.9393 22.1878 19.6296 22.6287 19.2387 23.0054C18.8466 23.3843 18.3848 23.6798 17.8524 23.8949C17.32 24.1091 16.749 24.2174 16.1395 24.2174H10.2694C9.83508 24.2174 9.47635 24.3505 9.19347 24.6157C8.91102 24.8813 8.76956 25.2081 8.76956 25.5966C8.76956 26.0051 8.91102 26.3432 9.19347 26.6084C9.47662 26.8742 9.83508 27.0071 10.2694 27.0071H19.0745V29.7364H10.2694C9.66116 29.7369 9.09085 29.6293 8.55776 29.4144ZM20.925 6.44169C23.1366 6.44169 24.93 8.27417 24.93 10.5362C24.93 12.7974 23.1366 14.6296 20.925 14.6296C18.7127 14.6296 16.9184 12.7974 16.9184 10.5362C16.9184 8.27417 18.7129 6.44169 20.925 6.44169ZM20.9999 0C9.40197 0 0 9.40202 0 21C0 32.598 9.40197 42 20.9999 42C32.5983 42 42 32.598 42 21C42 9.40202 32.5983 0 20.9999 0V0Z" fill="#2D92C4"/>
</g>
</svg>
