<svg width="291" height="228" viewBox="0 0 291 228" fill="none" xmlns="http://www.w3.org/2000/svg">
<path d="M119.139 114.193C120.005 113.551 121.082 113.267 122.15 113.4C123.521 113.449 124.758 114.236 125.389 115.46C126.386 117.457 126.066 120.961 125.124 123.072C124.335 125.127 122.954 126.899 121.158 128.161C119.963 128.85 118.614 129.223 117.237 129.243C117.081 129.586 116.972 129.828 116.972 129.828C116.508 130.909 115.385 132.813 115.385 132.813C114.604 134.096 113.753 135.334 112.836 136.522C112.836 137.607 112.836 138.479 112.836 138.479C109.369 143.803 105.266 148.68 100.618 153L98.2759 152.996C95.5194 150.766 92.0857 148.356 91.1106 147.652V147.525C85.8386 147.874 80.6273 146.229 76.5004 142.914C71.7077 139.281 69.4509 133.341 68.4604 126.713C67.8895 122.891 67.3608 118.735 66.6485 114.585C66.6485 114.585 59.9981 95.9895 89.2899 93.2242C118.582 90.4588 119.139 114.193 119.139 114.193Z" fill="white"/>
<path d="M52.9374 138.107C53.0264 138.239 53.1117 138.373 53.1935 138.509C54.275 140.264 55.1399 142.139 55.7697 144.096C56.3132 145.71 55.5144 147.466 53.9281 148.143L54.1108 149.606C54.6091 149.676 55.0784 149.879 55.4676 150.193C55.9289 150.661 56.2902 151.214 56.5301 151.821C57.4029 153.752 56.9579 155.651 56.0289 157.557C55.0145 159.424 53.6745 161.103 52.0701 162.515C49.9732 164.525 48.0105 167.772 42.8581 169.751C42.6466 171.699 42.7292 173.667 43.1032 175.592C38.1357 176.267 29.9933 177.353 25.3037 178C25.2709 177.604 25.2483 177.355 25.2483 177.355C25.0119 174.698 24.6367 172.056 24.1241 169.437C24.0596 169.06 24.0182 168.68 24 168.298C24.2116 161.835 26.7909 150.412 28.5115 145.227C29.0682 143.55 29.8754 142.824 31.1346 141.566C31.8879 140.889 32.751 140.341 33.6882 139.944C36.9609 138.318 40.3453 136.919 43.8167 135.758C45.4843 135.217 47.2697 134.75 48.9778 135.15C50.6279 135.613 52.0411 136.668 52.9374 138.107Z" fill="white"/>
<path d="M139.725 124.798C139.441 124.135 139.223 123.445 139.076 122.738C138.895 120.804 138.938 118.38 140.328 116.991C143.489 114.976 146.753 113.13 150.106 111.461C151.003 111.036 153.359 110.67 154.437 112.247C154.839 112.809 155.022 113.501 154.951 114.191L155.078 113.737C155.142 112.535 156.022 111.886 157.411 111.255C158.197 110.922 159.082 110.915 159.873 111.236C161.781 112.401 163.323 115.058 163.905 117.28C164.094 118.102 164 118.964 163.638 119.724C163.198 120.638 162.221 120.994 160.612 120.9C161.518 121.944 161.753 124.63 159.914 125.269C160.715 125.334 162.598 125.173 163.125 126.66C163.356 127.294 163.324 127.995 163.037 128.605C162.655 129.293 162.168 129.916 161.594 130.451C161.016 130.938 160.705 131.677 160.76 132.435C160.793 133.713 161.441 136.301 161.328 137.546C161.218 138.847 160.729 140.086 159.922 141.107C159.629 141.458 156.519 142.64 154.384 143.334C153.711 143.623 152.301 144.205 151.218 143.926C146.711 142.757 144.879 135.749 141.763 129.558C141.518 129.065 140.44 126.66 139.725 124.798Z" fill="white"/>
<path d="M225.562 5.72879C225.386 5.80276 225.219 5.89971 225.065 6.01744C224.29 6.70375 223.87 7.74397 223.934 8.81596L223.952 9.55078L223.878 9.49001C222.771 8.76722 221.334 9.03364 220.521 10.1121C219.724 11.1339 219.771 12.5708 220.08 13.8629L220.116 14.0148L218.953 13.591C218.219 13.4199 217.451 13.5803 216.832 14.034C216.134 14.9009 215.854 16.0645 216.073 17.1827C216.545 18.8771 217.261 20.4828 218.196 21.9418C219.246 23.4882 220.506 24.6604 221.911 24.5509L222.056 24.5397C222.073 25.4786 222.22 26.4097 222.492 27.303C223.487 29.1045 224.844 30.648 226.465 31.8222C227.562 32.5667 228.829 32.9742 230.129 33C231.246 32.9869 232.354 32.7773 233.407 32.3795C235.002 31.6951 236.757 30.9123 238.58 29.9808L239.784 31.3049C242.723 28.4774 245.799 25.817 249 23.3347C247.574 21.9586 246.291 20.424 245.171 18.7571L245.029 18.4893C243.175 13.7438 241.205 7.88685 238.004 4.208C237.525 3.74723 237.007 3.3345 236.457 2.97505C235.324 2.18822 233.963 1.86135 232.624 2.05393C231.521 2.1155 228.383 3.39482 228.996 6.77144L229.002 6.80422L228.577 6.29729C227.775 5.46894 226.581 5.24387 225.562 5.72879Z" fill="white"/>
<path d="M242.793 18.5268C240.857 13.9148 239.242 9.03411 236.335 4.92262C234.899 2.88866 232.985 0.883455 230.493 0.264637C228.62 -0.240499 226.629 -0.0173469 224.911 0.89003C222.746 2.06784 221.61 4.5491 222.122 6.98042C222.365 7.85216 223.256 8.36454 224.122 8.13095C224.975 7.87313 225.476 6.98187 225.26 6.10849C224.999 4.53802 226.276 3.68581 227.409 3.3916C227.534 3.35873 228.051 3.30942 227.533 3.34558C227.846 3.32339 228.161 3.31353 228.476 3.31764C229.04 3.30349 229.602 3.39487 230.134 3.58719C231.213 4.07527 232.161 4.81883 232.897 5.75511C236.29 9.87564 237.944 15.325 239.985 20.1885C240.441 20.9681 241.433 21.2312 242.209 20.7785C242.965 20.3057 243.222 19.3165 242.792 18.5292L242.793 18.5268Z" fill="#211715"/>
<path d="M225.04 6.94493C225.202 8.01688 225.458 9.06594 225.806 10.0749C226.112 11.105 226.512 12.0933 226.998 13.0225C227.484 13.9018 228.219 14.5496 229.073 14.8501C229.757 15.1033 230.497 15.0338 231.138 14.6563C232.021 13.9141 232.661 12.8401 232.955 11.6117C233.142 10.7924 232.733 9.94843 232.039 9.71948C231.344 9.51553 230.635 9.98969 230.43 10.7964C230.407 10.8733 230.383 10.9502 230.358 11.0271C230.426 10.8456 230.43 10.8328 230.37 10.9887C230.312 11.1256 230.256 11.2633 230.192 11.3971C230.147 11.491 230.099 11.584 230.048 11.6748C230.016 11.7325 229.983 11.7894 229.949 11.8456C230.07 11.6671 230.088 11.6399 230.003 11.764C229.952 11.831 229.903 11.8987 229.85 11.9617C229.768 12.0587 229.511 12.2594 229.867 11.9687C229.636 12.1579 230.241 11.8348 229.932 11.9333C229.67 12.0148 230.274 11.9133 230.069 11.9148C230.022 11.9148 229.974 11.9202 229.927 11.9202C229.755 11.9202 229.674 11.8063 230.017 11.9502C229.952 11.9217 229.867 11.9187 229.797 11.8971C229.74 11.8794 229.685 11.8556 229.628 11.8356C229.424 11.7633 229.951 12.0271 229.653 11.8433C229.594 11.8071 229.537 11.7664 229.481 11.7248C229.194 11.5079 229.626 11.9048 229.466 11.7156C229.4 11.6387 229.338 11.5748 229.279 11.4979C229.065 11.2217 229.394 11.7379 229.258 11.4741C229.149 11.2625 229.046 11.051 228.95 10.8302C228.842 10.58 228.737 10.3279 228.635 10.0741C228.586 9.95255 228.538 9.83025 228.491 9.70717C228.463 9.63025 228.26 9.18257 228.426 9.53641C228.218 9.02708 228.053 8.49507 227.934 7.94799C227.777 7.35245 227.654 6.74554 227.565 6.13111C227.371 5.31293 226.652 4.83199 225.955 5.05421C225.27 5.29815 224.868 6.12969 225.039 6.94647L225.04 6.94493Z" fill="#211715"/>
<path d="M226.852 17.7847C227.82 18.1842 228.887 18.022 229.741 17.3456C230.012 17.1346 230.245 16.8622 230.429 16.5436C230.561 16.3038 230.669 16.0457 230.749 15.775C230.887 15.329 230.972 14.8619 231 14.3875C231 14.0196 230.878 13.6667 230.661 13.4066C230.444 13.1463 230.15 13 229.843 13C229.536 13 229.241 13.1463 229.024 13.4066L228.844 13.6841C228.74 13.8963 228.685 14.138 228.686 14.384C228.682 14.4222 228.679 14.4597 228.675 14.4978L228.716 14.1287C228.681 14.4471 228.612 14.7587 228.51 15.0556L228.626 14.724C228.569 14.884 228.496 15.0352 228.409 15.1742L228.59 14.8932C228.54 14.9664 228.485 15.0331 228.424 15.0923L228.658 14.8759C228.51 15.005 228.351 15.1139 228.183 15.2006L228.46 15.0618C228.271 15.1578 228.072 15.2238 227.868 15.2581L228.176 15.2082C227.992 15.2344 227.805 15.2326 227.621 15.2026L227.928 15.2526C227.77 15.2235 227.615 15.1749 227.465 15.1076C227.165 15.0093 226.843 15.0592 226.573 15.2463C226.022 15.6331 225.836 16.4829 226.158 17.1444C226.321 17.4455 226.565 17.6705 226.85 17.7819L226.852 17.7847Z" fill="#211715"/>
<path d="M225.559 12.6031C224.884 11.5442 224.301 10.4287 223.816 9.26893C223.598 8.78697 223.418 8.28803 223.278 7.77693C223.236 7.61778 223.199 7.45863 223.169 7.29551C223.102 6.97721 223.148 7.41646 223.142 7.06713C223.142 6.943 223.132 6.81966 223.135 6.69552C223.135 6.643 223.187 6.22365 223.15 6.42497C223.109 6.6438 223.189 6.26583 223.2 6.22922C223.235 6.09554 223.279 5.96583 223.325 5.83613C223.208 6.15442 223.37 5.77486 223.4 5.72473C223.429 5.67459 223.64 5.40643 223.507 5.55444C223.374 5.70244 223.673 5.40643 223.705 5.37381C223.854 5.21466 223.463 5.50192 223.691 5.39449C223.781 5.35957 223.866 5.31416 223.945 5.25922C223.928 5.33879 223.621 5.3754 223.954 5.27434C224.058 5.24251 224.164 5.22182 224.269 5.19477C224.546 5.12315 224.061 5.1701 224.238 5.19477C224.353 5.20122 224.468 5.19776 224.582 5.18442C224.81 5.17726 224.731 5.13668 224.566 5.16373C224.683 5.17128 224.798 5.19677 224.907 5.23933C225.073 5.28787 225.192 5.42314 224.968 5.25126C225.061 5.32288 225.177 5.36983 225.273 5.43826C225.054 5.27911 225.218 5.412 225.322 5.5234C225.941 6.13742 226.933 6.13742 227.552 5.5234C228.149 4.8944 228.149 3.90128 227.552 3.27227C226.468 2.19525 224.908 1.76198 223.431 2.1272C221.934 2.46475 220.727 3.57974 220.262 5.05551C219.811 6.63202 219.946 8.32039 220.641 9.80367C221.221 11.345 221.957 12.8219 222.837 14.2112C223.276 14.9702 224.242 15.2258 224.993 14.7822C225.745 14.3385 225.998 13.3636 225.559 12.6047V12.6031Z" fill="#211715"/>
<path d="M221.226 17.9309C221.079 17.8641 220.935 17.7956 220.796 17.7155C220.763 17.6966 220.42 17.468 220.568 17.5777C220.715 17.6875 220.41 17.4308 220.383 17.4069C220.062 17.1255 220.54 17.6685 220.274 17.2798C219.942 16.7945 219.606 16.315 219.312 15.8075C219.159 15.5442 219.016 15.276 218.882 15.0003C218.979 15.2075 218.862 14.9475 218.83 14.865C218.781 14.7362 218.735 14.6075 218.694 14.4771C218.61 14.2058 218.541 13.9303 218.487 13.6518C218.46 13.5098 218.442 13.3349 218.468 13.5775C218.452 13.4306 218.438 13.2845 218.432 13.1368C218.42 12.8956 218.428 12.6537 218.458 12.4138C218.405 12.8034 218.492 12.3478 218.506 12.295C218.521 12.2422 218.652 11.8914 218.565 12.0936C218.479 12.2958 218.651 11.9492 218.675 11.9112C218.86 11.5704 218.503 12.0425 218.752 11.7982C218.828 11.7239 218.912 11.6554 218.985 11.5803C219.116 11.4466 218.734 11.7222 219.004 11.572C219.118 11.5093 219.236 11.4499 219.348 11.3855C219.165 11.4903 219.166 11.4491 219.365 11.3855C219.47 11.3533 219.576 11.3311 219.682 11.303C220.058 11.2031 219.352 11.2881 219.74 11.298C219.846 11.3055 219.953 11.3071 220.06 11.303C220.241 11.2881 219.754 11.2064 220.041 11.3104C220.103 11.3245 220.164 11.3418 220.223 11.3624C220.343 11.4029 220.303 11.3864 220.104 11.3121C220.205 11.3839 220.326 11.4359 220.43 11.5068C221.25 11.962 222.299 11.6976 222.78 10.9143C223.234 10.1242 222.963 9.13083 222.164 8.65628C220.741 7.80527 218.945 7.78018 217.497 8.59108C216.013 9.41248 215.073 10.9085 215.006 12.5525C214.946 14.1398 215.337 15.7129 216.136 17.1032C216.909 18.5598 217.898 20.0561 219.486 20.7741C220.305 21.2342 221.358 20.9691 221.837 20.1819C222.316 19.3948 222.04 18.3836 221.22 17.9235L221.226 17.9309Z" fill="#211715"/>
<path d="M251.58 22.6177C250.074 21.2398 248.563 19.8585 247.11 18.4234C246.558 17.8777 246.013 17.325 245.495 16.7507C245.38 16.6225 245.266 16.4935 245.154 16.3618L245.027 16.2099C244.878 16.0321 245.044 16.2099 245.088 16.2886C244.969 16.0795 244.796 15.899 244.673 15.6906C244.414 15.2606 243.939 14.9973 243.427 15C242.914 15.0027 242.442 15.2709 242.188 15.7036C241.934 16.1363 241.937 16.6678 242.196 17.0978C242.988 18.2795 243.929 19.3601 244.997 20.3143C246.475 21.7779 248.009 23.1879 249.551 24.5915C250.111 25.136 251.019 25.1362 251.58 24.5919C252.14 24.0476 252.14 23.165 251.58 22.6205V22.6177Z" fill="#211715"/>
<path d="M239.493 30.3058C238.032 28.6491 236.492 27.046 234.938 25.4578C234.26 24.8474 233.169 24.8474 232.491 25.4578C231.836 26.0823 231.836 27.0653 232.491 27.6897C234.048 29.277 235.585 30.8778 237.046 32.5377C237.371 32.8336 237.811 32.9999 238.27 33C238.728 32.9972 239.167 32.8313 239.493 32.5377C239.817 32.2413 239.999 31.8404 240 31.4221C239.975 31.0083 239.796 30.6145 239.493 30.3058Z" fill="#211715"/>
<path d="M236.587 26.8846C234.288 27.9944 231.758 29.4322 229.188 29.707C226.66 29.9777 224.818 28.679 223.115 26.9198C222.172 26.0731 221.543 24.9233 221.334 23.6624C221.181 22.4148 221.248 21.1496 221.531 19.9258C221.761 18.8855 222.043 17.8526 222.361 16.8369C222.433 16.6087 222.513 16.383 222.588 16.1556C222.614 16.0738 222.645 15.988 222.678 15.9103C222.546 16.091 222.644 15.9921 222.678 15.9103C222.916 15.6266 223.226 15.4154 223.574 15.3002C223.726 15.2356 223.886 15.1926 224.049 15.1726C223.732 15.1726 224.049 15.2094 224.118 15.2756C224.256 15.3782 224.381 15.498 224.489 15.6322C224.675 16.0662 224.794 16.5265 224.842 16.9972C225.142 18.4169 225.405 19.8448 225.686 21.2678C226.096 23.3296 229.2 22.4569 228.79 20.3977C228.478 18.8291 228.2 17.2515 227.851 15.6903C227.611 14.1019 226.558 12.7629 225.087 12.1736C223.443 11.706 221.68 12.1994 220.505 13.456C219.578 14.3883 219.267 15.8677 218.922 17.1027C218.066 20.176 217.306 24.0926 219.066 26.9893C220.772 29.7977 223.748 32.3935 227.021 32.8948C230.964 33.4984 234.762 31.3794 238.208 29.716C238.968 29.2545 239.225 28.2588 238.785 27.4776C238.324 26.7143 237.353 26.4558 236.583 26.8912L236.587 26.8846Z" fill="#211715"/>
<path d="M217.339 10.1621C215.862 9.63641 214.286 10.4203 213.508 12.068C212.835 13.7978 212.831 15.8144 213.496 17.5485C214.016 19.198 214.718 20.7489 215.583 22.1561C216.569 23.7079 217.972 25.0881 219.648 24.9956C220.388 24.9768 220.985 24.2346 221 23.3134C220.993 22.3882 220.392 21.6403 219.648 21.6312C219.523 21.6413 219.397 21.6396 219.271 21.6262C219.559 21.664 219.204 21.5808 219.142 21.5639C218.837 21.4798 219.271 21.6851 218.992 21.4908C218.875 21.4066 218.762 21.3225 218.647 21.2384C218.334 21.0004 218.762 21.3932 218.477 21.0811C218.367 20.9609 218.259 20.8398 218.155 20.7111C217.936 20.443 217.732 20.1569 217.544 19.8548C217.009 18.915 216.553 17.9094 216.183 16.8538C216.137 16.7276 216.091 16.6015 216.048 16.4736C216.146 16.7571 216.007 16.3416 215.989 16.2835C215.906 16.0161 215.828 15.7452 215.765 15.4694C215.661 15.0287 215.657 14.561 215.753 14.1177C215.753 14.1034 215.893 13.6063 215.793 13.9024C215.844 13.7656 215.901 13.6328 215.965 13.5046C215.864 13.7258 215.931 13.5475 216.028 13.4373C215.825 13.6703 216.169 13.4112 215.911 13.5323C216.022 13.4793 216.139 13.4524 216.254 13.4112C216.502 13.3271 216.154 13.4045 216.3 13.4011C216.406 13.4151 216.513 13.4126 216.619 13.3935C216.73 13.4019 216.685 13.391 216.484 13.3607C216.531 13.3702 216.578 13.3842 216.623 13.4028C217.089 13.5625 217.588 13.4009 217.932 12.9789C218.276 12.5569 218.413 11.9386 218.291 11.3569C218.17 10.7751 217.808 10.3184 217.342 10.1587L217.339 10.1621Z" fill="#211715"/>
<path d="M162.279 96.208C163.623 94.8781 165.094 93.6847 166.67 92.6448C169.636 90.6799 172.944 89.2924 175.925 87.3499C177.773 86.1922 179.408 84.7205 180.757 83C180.991 83.7702 181.183 84.398 181.183 84.398C181.987 86.6441 182.963 88.8237 184.103 90.9169C188.513 98.7767 192.544 105.682 197.606 113.131C198.917 115.106 200.386 116.969 202 118.701V164H179.679C179.998 158.68 180.604 143.398 179.072 140.29C178.389 138.904 173.696 127.852 173.422 126.329C172.143 119.141 171.614 115.543 170.334 108.355L156 105.205C156.691 103.997 157.539 102.31 158.096 101.425C159.286 99.529 160.69 97.7784 162.279 96.208Z" fill="white"/>
<path d="M169.052 110.944C170.034 116.474 170.923 122.022 171.892 127.554C172.457 130.785 173.77 133.731 175.019 136.751C175.72 138.448 176.434 140.14 177.159 141.826C177.397 142.377 177.635 142.927 177.882 143.474C177.953 143.627 178.023 143.787 178.098 143.942C178.181 144.114 178.162 144.096 178.091 143.904C178.134 144.02 178.177 144.134 178.21 144.255C178.562 145.596 178.754 146.974 178.782 148.361C178.916 150.455 178.947 152.555 178.946 154.654C178.946 158.944 178.801 163.239 178.547 167.522C178.43 169.496 181.469 169.489 181.586 167.522C181.809 163.767 181.939 160.007 181.976 156.243C182.015 152.361 182.092 148.346 181.391 144.511C181.164 143.493 180.815 142.507 180.351 141.575C179.712 140.135 179.098 138.683 178.488 137.23C177.789 135.56 177.105 133.884 176.437 132.201C175.935 131.056 175.511 129.878 175.168 128.675C174.462 125.764 174.124 122.709 173.63 119.752C173.092 116.542 172.55 113.333 171.981 110.128C171.753 109.313 170.921 108.835 170.111 109.053C169.313 109.292 168.844 110.126 169.048 110.942L169.052 110.944Z" fill="#211715"/>
<path d="M175.936 70.0893L155.008 57.3997C153.109 52.3515 152.092 47.0112 152 41.6143C152.037 36.7322 153.28 31.9361 155.617 27.6578C159.653 20.803 166.572 15.8647 175.864 13.7836C182.416 12.3154 189.269 12.5952 197.556 17.3756C204.244 20.2051 210.376 29.0736 211.983 37.3368C212.739 41.0006 213.233 44.7141 213.463 48.4489C213.956 54.9265 215.526 58.8343 216.517 61.8277C217.836 65.8081 216.6 68.2304 210.981 72.1383L204.247 78C204.247 78 185.059 75.621 175.936 70.0893Z" fill="#85807F"/>
<path d="M157.167 56.4873C157.439 53.3225 159.535 51.0981 161.363 49.0563C164.251 45.8327 167.446 42.9896 170.505 39.6028C170.792 42.2394 170.139 48.9743 171.845 48.04C178.852 44.3052 183.941 38.4782 187.383 31C190.426 38.0026 198.131 47.4901 201.548 48.3927L206.823 48.9008C207.584 48.1676 208.589 47.7622 209.631 47.7678C210.955 47.6557 212.235 48.2877 212.98 49.4214C214.165 51.2737 214.251 54.7673 213.58 56.9614C213.053 59.0799 211.924 60.9881 210.337 62.4419C209.255 63.27 207.985 63.7966 206.647 63.971C206.559 64.3229 206.497 64.5742 206.497 64.5742C206.173 65.6934 205.306 67.702 205.306 67.702C204.733 68.9812 204.094 70.2284 203.393 71.4384C204.636 74.6238 207.19 77.0745 210.363 78.1254C209.326 82.6677 208.471 87.2239 207.75 91.7979C206.33 93.2605 204.146 96.0448 202.058 97.1662C200.845 97.7388 199.573 98.1669 198.266 98.4424C196.67 98.8758 195.019 99.0583 193.37 98.9838C191.419 98.8682 189.48 98.6066 187.566 98.2011C186.848 96.9151 186.124 95.6068 185.393 94.276C184.242 92.1174 183.256 89.8697 182.444 87.5534C182.444 87.5534 182.16 86.5031 181.832 85.2981C177.347 85.7342 172.848 84.6457 169.021 82.199C164 79.1757 161.158 73.5815 159.458 67.1613C158.669 64.1782 157.882 60.974 157 57.7511L157.164 56.1865" fill="white"/>
<path d="M199.07 95.6366C198.737 95.7262 198.418 95.8045 198.132 95.8677C196.472 96.3157 194.754 96.5044 193.039 96.4273C191.009 96.3075 188.991 96.0371 187 95.6182C190.796 102.376 194.485 108.607 198.93 115.241C200.307 117.297 202.744 120.654 204.448 122C205.258 110.866 206.263 99.8867 208 89C206.523 90.511 204.25 93.3892 202.078 94.5485C201.114 95.0144 200.106 95.3789 199.07 95.6366Z" fill="#7ABEE6"/>
<path d="M209.482 76.2645C210.631 77.075 212.046 77.6413 213.312 77.2259C222.05 73.9053 230.561 70.0171 238.789 65.5864C241.212 64.281 244.316 61.4735 245.528 59.01L247.988 54.0483C245.565 50.5677 242.877 47.2783 239.946 44.2092C237.208 41.2506 233.642 37.4494 230.903 34.4879C235.9 29.517 241.334 25.0029 247.141 21C248.748 22.904 266.142 39.3782 266.74 40.0241C271.543 45.2336 275.898 49.9467 279.301 56.1528C280.466 58.5374 281.047 61.1627 280.997 63.8139C280.865 65.3098 280.421 66.7617 279.692 68.0763C277.611 72.1456 274.982 74.7872 271.3 77.5076C267.617 80.228 245.528 94.7937 238.921 99.9026L235.872 102.323L234.509 103.404C235.263 106.894 236.757 112.354 238.061 116.504L203 120C204.146 105.114 205.714 90.5126 209.205 76.0317" fill="white"/>
<path d="M186.997 70.4756C186.977 69.7837 186.639 69.1292 186.063 68.6631C185.486 68.197 184.72 67.9596 183.942 68.0056C182.708 68.1002 181.491 68.3231 180.316 68.6697C179.131 68.9559 177.957 69.2894 176.801 69.6598C176.263 69.8027 175.741 69.9909 175.242 70.2217C174.518 70.6286 174.058 71.3199 174.006 72.0794C173.91 73.24 174.929 74.1467 175.768 74.9265C176.61 75.6945 177.518 76.404 178.482 77.0486C179.293 77.6738 180.336 78.0124 181.41 77.9997C182.578 77.9623 183.673 77.4866 184.423 76.6911C185.196 75.7098 185.792 74.6272 186.188 73.4827C186.602 72.5161 186.874 71.5062 186.997 70.4779C186.994 69.6493 186.238 68.9783 185.304 68.9754C184.379 68.9968 183.635 69.6571 183.611 70.4779C183.582 70.7453 183.636 70.4065 183.632 70.3809C183.628 70.4533 183.615 70.5251 183.593 70.595C183.563 70.7453 183.526 70.8993 183.487 71.0503C183.402 71.3838 183.292 71.7128 183.173 72.0381C183.055 72.3634 182.919 72.6909 182.783 73.0147C182.717 73.1649 182.648 73.3197 182.577 73.4699C182.69 73.2333 182.582 73.4541 182.56 73.4969C182.507 73.6021 182.455 73.7073 182.4 73.8117C182.244 74.1122 182.069 74.3976 181.902 74.6899C181.774 74.9152 181.902 74.7071 181.953 74.6575C181.899 74.7116 181.846 74.7665 181.788 74.8168C181.737 74.8716 181.677 74.9197 181.611 74.9595C181.77 74.9077 181.82 74.8393 181.611 74.9302C181.267 75.0805 181.82 74.9122 181.533 74.9625C181.458 74.983 181.383 75.0001 181.307 75.0136C181.285 74.9746 181.69 75.0046 181.41 74.9993C181.335 74.9993 181.249 74.9993 181.175 74.9993C180.893 75.0121 181.303 74.9866 181.274 75.0174C181.214 75.0118 181.156 74.9999 181.1 74.9821C180.859 74.928 180.944 75.0024 181.106 75.0069C180.978 75.0069 180.774 74.8423 180.674 74.7815C180.59 74.7312 180.514 74.6756 180.435 74.623C180.391 74.5944 180.189 74.4472 180.412 74.6072C180.073 74.3668 179.743 74.1257 179.42 73.8733C178.778 73.3769 178.176 72.8417 177.617 72.2717C177.548 72.2011 177.48 72.129 177.413 72.0569C177.383 72.0253 177.164 71.8203 177.306 71.9397C177.405 72.0231 177.289 71.7714 177.319 71.9818C177.333 72.0794 177.378 72.1696 177.382 72.2747C177.372 72.0171 177.367 72.3499 177.356 72.3882C177.313 72.5131 177.234 72.626 177.127 72.7157C177.192 72.6518 177.357 72.5474 177.05 72.7668C176.859 72.902 176.977 72.7983 177.145 72.7427C177.982 72.4633 178.828 72.2051 179.685 71.9682C180.7 71.6865 181.732 71.4356 182.771 71.2253C183.001 71.1787 183.23 71.1344 183.461 71.0916C183.575 71.0705 183.691 71.0525 183.805 71.0307C184.292 70.9361 183.653 71.0037 183.875 71.0172C183.936 71.0172 184.229 70.9947 183.989 70.9992C183.854 70.9777 183.866 70.9817 184.024 71.0112L183.86 70.9398L183.972 70.9954L183.833 70.906L183.739 70.7941C183.65 70.3208 183.609 70.2157 183.614 70.4786C183.614 71.3084 184.372 71.981 185.307 71.981C186.242 71.981 187 71.3084 187 70.4786L186.997 70.4756Z" fill="#211715"/>
<path d="M217.308 50.8137C217.739 50.5445 218.004 50.0436 218 49.5029C217.87 46.5334 217.549 43.5774 217.04 40.6564C216.687 38.0704 216.097 35.5292 215.28 33.0707C213.217 27.2694 209.775 21.8371 205.033 18.2696C203.552 17.1546 202.154 19.7877 203.623 20.8913C207.872 24.0899 211.033 29.2232 212.785 34.4529C213.497 36.7343 214.02 39.0808 214.347 41.464C214.805 44.1188 215.093 46.8053 215.207 49.5037L215.898 48.1928C214.303 49.0938 215.713 51.7147 217.308 50.8145V50.8137Z" fill="#211715"/>
<path d="M182.304 57.7226C181.791 56.7639 181.693 54.4475 183.924 54.0213C186.912 53.7309 187.477 56.4846 186.663 57.8904C185.997 59.0414 183.643 59.733 182.304 57.7226Z" fill="#211715"/>
<path d="M162.328 58.6991C161.798 57.7355 161.661 55.4187 163.882 55.0169C166.862 54.7589 167.475 57.5187 166.686 58.9148C166.041 60.057 163.7 60.7226 162.328 58.6991Z" fill="#211715"/>
<path d="M173.122 63.8451C172.767 64.4358 172.439 65.0351 172.159 65.6436C172.014 65.9373 171.967 66.2485 172.022 66.5554C172.119 67.0357 172.551 67.4575 173.189 67.6931C173.644 67.8744 174.159 67.9788 174.689 67.9971C174.884 68.0069 175.074 67.989 175.269 67.9879C175.727 67.9832 176.165 67.8628 176.493 67.6512C176.988 67.3225 177.136 66.8283 176.868 66.399C176.6 65.9696 175.969 65.6896 175.269 65.6895C175.053 65.7007 174.836 65.7019 174.619 65.693L175.08 65.7338C174.976 65.7226 174.875 65.7043 174.777 65.6792L175.19 65.7941C175.047 65.7526 174.91 65.7004 174.784 65.6384L175.131 65.8182C175.103 65.8047 175.078 65.7888 175.056 65.7711L175.326 66.0038C175.296 65.9777 175.271 65.9493 175.251 65.9194L175.424 66.194C175.407 66.1622 175.395 66.1296 175.387 66.0963L175.449 66.4014C175.44 66.3417 175.44 66.2814 175.449 66.2216L175.388 66.5267C175.503 66.1584 175.67 65.7981 175.887 65.4505C176.066 65.1167 176.253 64.784 176.452 64.4547C176.575 64.1561 176.513 63.8371 176.278 63.5693C175.796 63.0214 174.736 62.837 173.91 63.1573L173.56 63.3366C173.348 63.4773 173.194 63.6521 173.115 63.8439L173.122 63.8451Z" fill="#211715"/>
<path d="M199.711 74.5426C202.955 70.8928 205.416 66.6266 206.942 62.0041C207.177 61.1612 206.677 60.2896 205.826 60.0573C204.975 59.825 204.096 60.32 203.861 61.1628C203.724 61.6076 203.56 62.0436 203.389 62.4773C203.295 62.7163 203.198 62.9537 203.098 63.1895C203.054 63.2988 203.008 63.4072 202.962 63.5156C203.007 63.4088 203.047 63.3185 202.977 63.4776C202.626 64.2769 202.242 65.0603 201.835 65.8335C200.63 68.1501 199.159 70.3212 197.452 72.3038C196.849 72.9305 196.849 73.915 197.452 74.5418C198.078 75.1527 199.084 75.1527 199.711 74.5418V74.5426Z" fill="#211715"/>
<path d="M197.234 13.2959C192.308 10.7412 186.804 9.63761 181.319 10.1045C176.256 10.6121 171.348 12.1968 166.898 14.7604C162.821 17.1181 159.328 20.4326 156.696 24.4408C153.822 29.0636 152.206 34.4111 152.021 39.914C151.838 46.0516 152.869 52.1628 155.047 57.8693C155.284 58.6797 156.088 59.1559 156.878 58.9535C157.667 58.7219 158.132 57.8731 157.92 57.0484C154.523 47.8675 153.36 36.5909 158.234 27.7213C162.684 19.6269 170.997 14.9238 179.647 13.4307C185.132 12.5383 190.748 13.4257 195.732 15.9724C197.454 16.8243 198.966 14.1525 197.234 13.2983V13.2959Z" fill="#211715"/>
<path d="M194.74 77.6531C188.546 81.7832 181.136 84.4051 173.773 82.0038C170.476 80.9894 167.528 79.0681 165.263 76.4575C163.231 73.8787 161.717 70.9287 160.803 67.7708C159.365 63.2692 158.374 58.6221 157.042 54.0865C156.483 52.1797 153.507 52.9915 154.071 54.9091C155.36 59.2993 156.347 63.7815 157.692 68.1539C158.707 71.7046 160.357 75.04 162.562 77.9967C167.448 84.2743 175.896 86.9496 183.584 85.7005C188.154 84.8397 192.489 83.0072 196.297 80.326C197.942 79.2287 196.4 76.5465 194.742 77.6531H194.74Z" fill="#211715"/>
<path d="M207.812 49.5213C208.575 48.9422 209.608 48.7338 210.576 48.9634C210.785 49.0037 210.987 49.0682 211.177 49.1554C211.218 49.1749 211.617 49.4109 211.432 49.2846C211.567 49.3861 211.694 49.4961 211.811 49.6137C211.892 49.696 211.876 49.6736 211.766 49.548C211.811 49.6021 211.855 49.6577 211.897 49.714C212.801 51.2781 213.056 53.0773 212.619 54.7936C212.282 56.508 211.423 58.1062 210.136 59.4128C209.942 59.5976 209.732 59.7672 209.53 59.9411C209.272 60.136 209.234 60.1685 209.417 60.0386C209.328 60.0956 209.238 60.1497 209.145 60.2017C208.787 60.4025 208.412 60.5772 208.022 60.7242C207.081 61.122 206.018 61.2309 205 61.0338C202.994 60.5358 202.137 63.3203 204.141 63.8176C206.489 64.2841 208.949 63.8464 210.918 62.6116C212.821 61.359 214.254 59.6203 215.028 57.625C215.834 55.823 216.146 53.8746 215.937 51.9428C215.721 50.1117 215.129 48.202 213.424 47.0349C211.003 45.5042 207.716 45.6881 205.527 47.4766C203.993 48.7339 206.279 50.7714 207.812 49.5184V49.5213Z" fill="#211715"/>
<path d="M159.738 108.298C160.922 106.023 162.32 103.86 163.913 101.84C165.747 99.7122 167.904 97.8756 170.309 96.3953C175.402 93.2669 181.347 91.3049 184.76 86.1208C185.787 84.5588 183.25 83.1127 182.226 84.6661C178.92 89.6902 172.552 91.3669 167.754 94.5969C165.387 96.1775 163.264 98.0851 161.452 100.261C159.854 102.337 158.434 104.538 157.205 106.843C156.266 108.457 158.801 109.91 159.739 108.298H159.738Z" fill="#211715"/>
<path d="M203.06 72.9397C204.88 77.091 208.948 80.116 213.836 80.9526C214.746 81.1568 215.674 80.6835 215.943 79.8783C216.182 79.0618 215.65 78.2234 214.744 77.9908C214.239 77.9139 213.739 77.8091 213.248 77.677C213.003 77.6102 212.76 77.5366 212.52 77.456C212.412 77.4192 212.304 77.3793 212.195 77.3424C212.575 77.4714 212.144 77.3202 212.091 77.2979C211.625 77.1063 211.173 76.8895 210.736 76.6488C210.518 76.5286 210.303 76.4025 210.093 76.2705C209.998 76.2107 209.904 76.1485 209.809 76.0879C209.433 75.8439 210.071 76.2867 209.713 76.0204C209.316 75.7292 208.937 75.4193 208.576 75.092C208.414 74.9421 208.256 74.7886 208.102 74.6316C208.01 74.5372 207.922 74.4406 207.831 74.3446C207.598 74.0976 207.987 74.5472 207.755 74.261C207.465 73.9083 207.196 73.5421 206.95 73.1638C206.821 72.9648 206.7 72.7625 206.587 72.5569C206.525 72.4441 206.467 72.3267 206.408 72.2169C206.253 71.9185 206.513 72.4548 206.363 72.121C206.093 71.3169 205.166 70.8442 204.257 71.0468C203.35 71.2787 202.817 72.1182 203.058 72.9351L203.06 72.9397Z" fill="#211715"/>
<path d="M252.775 56.3149C250.108 52.0799 247.106 48.0642 243.799 44.3057C240.149 40.2043 236.341 36.2408 232.615 32.2076V34.3747C237.6 29.3898 243.026 24.8657 248.827 20.858L246.968 20.619C248.42 22.3242 250.138 23.8432 251.74 25.4037C254.412 28.0046 257.095 30.5931 259.791 33.169C261.876 35.1707 263.969 37.1654 266.047 39.174C269.015 42.0975 271.787 45.2131 274.345 48.5005C276.275 50.8952 277.985 53.459 279.454 56.1609C280.665 58.4601 281.176 61.0633 280.922 63.6489C280.546 66.3645 278.73 69.1001 276.989 71.1561C275.4 72.9849 273.599 74.6179 271.623 76.0205C265.945 80.1479 260.021 83.9513 254.226 87.9048C248.312 91.938 242.362 95.9367 236.758 100.395L235.502 101.399C234.908 102 234.908 102.965 235.502 103.566C236.109 104.145 237.065 104.145 237.672 103.566C238.68 102.764 239.689 101.962 240.698 101.159C240.725 101.137 240.845 101.042 240.717 101.142C240.589 101.242 240.928 100.982 240.968 100.951C241.249 100.737 241.533 100.525 241.818 100.314C242.456 99.8404 243.099 99.3721 243.746 98.9089C247.097 96.5005 250.497 94.1595 253.906 91.8315C260.141 87.5647 266.471 83.4227 272.636 79.0547C276.725 76.1568 280.316 72.7127 282.574 68.177C283.927 65.5023 284.333 62.4484 283.724 59.5138C283.11 56.6074 281.911 53.8558 280.2 51.426C275.781 44.583 270.047 38.758 264.195 33.1475C259.361 28.5115 254.415 23.9551 249.766 19.129C249.551 18.9069 249.335 18.684 249.134 18.448C248.64 17.9567 247.877 17.8583 247.274 18.2083C241.251 22.3578 235.615 27.0434 230.438 32.2076C229.854 32.8124 229.854 33.77 230.438 34.3747C234.093 38.3313 237.824 42.2236 241.414 46.2399C244.628 49.8725 247.541 53.7591 250.125 57.8615C251.184 59.52 253.841 57.9848 252.775 56.3149Z" fill="#211715"/>
<path d="M232.093 100.141C231.896 101.603 232.013 103.085 232.435 104.505C232.757 105.965 233.138 107.414 233.534 108.856C234.461 112.23 235.488 115.578 236.614 118.902C237.268 120.832 240.572 120.005 239.914 118.064C238.846 114.914 237.868 111.739 236.98 108.539C236.594 107.153 236.223 105.764 235.895 104.361C235.771 103.832 235.653 103.302 235.553 102.77C235.509 102.54 235.468 102.311 235.43 102.081C235.494 102.484 235.404 101.859 235.393 101.729C235.359 101.479 235.36 101.225 235.398 100.975C235.812 98.9927 232.514 98.1436 232.099 100.137L232.093 100.141Z" fill="#211715"/>
<path d="M188.072 98.1616C190.273 98.6512 192.514 98.9319 194.766 99C196.894 98.9912 199.007 98.6528 201.032 97.9966C202.747 97.52 204.338 96.672 205.693 95.5121C207.094 94.3085 208.274 92.8814 209.566 91.5668C210.916 90.1922 208.808 88.0699 207.455 89.446C206.336 90.5859 205.3 91.8083 204.13 92.8956C203.031 93.9386 201.695 94.6957 200.239 95.1012C198.527 95.659 196.743 95.9621 194.943 96.0011C192.897 95.9647 190.86 95.7179 188.864 95.2646C186.993 94.8492 186.193 97.7394 188.071 98.1571L188.072 98.1616Z" fill="#211715"/>
<path d="M214.941 72.7492C216.865 71.3438 218.969 69.7835 220.161 67.6021C221.017 65.9807 221.228 64.07 220.748 62.2861C220.33 60.5379 219.639 58.8599 219.164 57.1264C218.475 54.5859 218.029 51.9794 217.833 49.3458C217.7 47.5591 215.023 47.5437 215.161 49.3458C215.556 53.6444 216.461 57.8746 217.854 61.9384C218.294 63.3081 218.589 64.6154 218.018 65.868C217.146 67.7914 215.205 69.1526 213.595 70.3281C212.192 71.3515 213.528 73.7831 214.944 72.7492H214.941Z" fill="#211715"/>
<path d="M168.227 38.5028C165.181 41.7158 161.827 44.6228 158.747 47.8068C156.053 50.589 153.434 53.4155 153 57.3895C153.005 58.2767 153.737 58.9947 154.642 59C155.541 58.9804 156.264 58.2707 156.284 57.3895C156.637 54.1443 159.569 51.5859 161.753 49.3851C164.643 46.4749 167.725 43.7563 170.547 40.7793C171.985 39.263 169.668 36.98 168.225 38.502L168.227 38.5028Z" fill="#211715"/>
<path d="M175.65 92.0711L174.049 99.2181C173.875 99.8668 174.175 100.545 174.791 100.897L180.205 104.058L179.626 102.023C178.687 103.277 177.882 104.611 177.224 106.008C176.865 106.659 176.594 107.348 176.416 108.059C176.301 108.84 176.609 109.622 177.241 110.154C178.593 111.622 179.907 113.116 181.3 114.555C184.44 117.797 187.693 120.964 191.093 123.977C192.155 125.017 193.332 125.953 194.605 126.769C196.383 127.779 198.005 125.208 196.237 124.201C196.103 124.126 195.978 124.039 195.851 123.953C196.237 124.212 195.586 123.743 195.462 123.644C194.944 123.232 194.444 122.805 193.948 122.373C192.542 121.15 191.178 119.886 189.827 118.61C186.777 115.726 183.784 112.777 180.981 109.686C180.667 109.339 180.356 108.99 180.05 108.639C179.929 108.453 179.78 108.284 179.607 108.135C179.288 107.949 179.763 108.269 179.655 108.363C179.77 108.173 179.854 107.968 179.904 107.755C180.565 106.263 181.406 104.844 182.409 103.524C182.846 102.813 182.589 101.911 181.829 101.489L176.415 98.3279L177.157 100.008L178.758 92.8616C179.178 90.9927 176.063 90.194 175.642 92.0703L175.65 92.0711Z" fill="#211715"/>
<path d="M215.752 75.7933C217.674 77.3502 219.311 79.3255 220.571 81.6075L221.04 79.5539C219.229 80.98 217.447 82.446 215.633 83.8624C215.24 84.1378 215 84.6291 215 85.1587C215 85.6882 215.24 86.1795 215.633 86.455C217.439 87.5413 219.142 88.8406 220.714 90.3319L220.385 88.8727C218.835 94.9526 217.365 101.061 215.829 107.146C215.36 109.005 217.877 109.799 218.346 107.944C219.882 101.859 221.352 95.7512 222.901 89.6706C223.031 89.1498 222.902 88.589 222.566 88.2099C220.832 86.5409 218.951 85.0841 216.955 83.8631V86.4557C218.769 85.0393 220.552 83.5704 222.362 82.1465C222.973 81.7183 223.18 80.8106 222.83 80.0928C221.325 77.3822 219.369 75.0403 217.075 73.2015C216.452 72.7893 215.657 73.0294 215.29 73.7404C214.943 74.4586 215.149 75.3642 215.758 75.7941L215.752 75.7933Z" fill="#211715"/>
<path d="M180.087 87.9129C181.16 91.0907 182.491 94.1566 184.065 97.0736C185.788 100.373 187.529 103.663 189.332 106.911C191.134 110.16 192.996 113.367 194.93 116.522C196.567 119.382 198.449 122.065 200.55 124.535C201.854 125.972 203.884 123.75 202.58 122.314C200.573 119.945 198.778 117.37 197.22 114.626C195.354 111.57 193.55 108.47 191.809 105.325C190.065 102.182 188.376 99.003 186.714 95.8088C185.191 93.0306 183.9 90.1076 182.857 87.0755C182.247 85.1814 179.472 85.9969 180.089 87.9113L180.087 87.9129Z" fill="#211715"/>
<path d="M207.621 120.493C208.602 105.193 209.98 89.9044 212.959 74.9558C213.351 72.9933 210.827 72.1541 210.435 74.1213C207.403 89.3369 206.003 104.92 205.005 120.493C204.874 122.508 207.491 122.497 207.622 120.493H207.621Z" fill="#211715"/>
<path d="M208.718 79.5956C209.865 80.4654 211.246 80.9556 212.675 81C214.198 80.9717 215.713 80.1112 217.102 79.5455C220.12 78.3189 223.113 77.0293 226.08 75.6767C228.979 74.3547 231.849 72.9709 234.69 71.525C237.453 70.2622 240.122 68.794 242.674 67.1326C245.214 65.4348 247.318 63.1424 248.811 60.4469C249.738 58.5981 247.001 56.961 246.071 58.8163C244.647 61.4184 242.55 63.5733 240.008 65.047C236.818 66.9718 233.408 68.6024 230.07 70.2419C226.715 71.8854 223.321 73.4436 219.888 74.9163C218.166 75.6527 216.435 76.3662 214.694 77.0568C213.984 77.4654 213.192 77.7052 212.378 77.7582C211.624 77.6162 210.916 77.2877 210.316 76.8015C208.624 75.6266 207.035 78.4256 208.714 79.5924L208.718 79.5956Z" fill="#211715"/>
<path d="M287.213 196.297C281.34 193.124 275.291 189.893 268.65 189.039C265.138 188.702 261.601 188.705 258.09 189.046L246.737 189.785L245.902 188.813C245.853 188.574 243.096 184.295 241.427 182C237.812 187.438 233.533 192.42 228.687 196.833L226.576 197.977C223.701 195.699 218.898 189.955 218.721 189.689C217.764 191.397 215.807 194.895 215.343 195.863L214.328 196.035C209.178 197.429 203.995 198.834 199.187 201.119C194.379 203.404 189.914 206.656 187.013 211.07C187.013 211.07 186.852 212.185 187.674 212.372C203.813 214.035 259.237 217.869 275.794 211.281C279.377 209.856 285.882 201.219 287.976 197.449C288.162 197.168 287.213 196.297 287.213 196.297Z" fill="white"/>
<path d="M225.098 203.881L225.152 204.117C225.753 206.693 226.478 209.233 227.323 211.727C227.46 213.965 227.338 216.894 227.483 219.609C227.483 219.609 227.529 220.486 227.529 221C231.651 220.225 235.818 219.76 240 219.609C238.343 216.682 237.021 213.549 236.063 210.279C235.824 208.033 235.778 205.768 235.926 203.512C233.763 201.833 231.712 199.991 229.79 198H227.338C226.442 199.759 225.661 201.583 225 203.46L225.098 203.881Z" fill="#3D8DCC"/>
<path d="M105.22 149.882C103.512 151.795 101.699 153.614 99.7895 155.33L97.2846 155.325C94.3365 152.971 90.664 150.427 89.6211 149.684C88.2778 151.213 87.0666 152.852 86 154.582C86 154.714 87.1341 157.356 88.5267 160.201L87.4589 161.051C87.7734 163.018 88.4126 164.919 89.3508 166.679C93.595 175.785 97.4995 183.799 102.514 192.509C103.81 194.759 106.125 198.447 107.833 200C110.528 183.106 113.633 166.584 119 150.405L116.599 149.767C117.117 148.173 117.456 147.098 117.445 147.041C117.395 146.793 114.563 142.372 112.855 140C110.53 143.455 107.979 146.756 105.22 149.882Z" fill="white"/>
<path d="M98.115 173.013C98.0867 171.051 98.0605 169.398 98.0156 168.67C97.2497 166.415 96.5931 164.118 96.0483 161.79L96 161.566C96.7835 159.903 97.5566 158.266 98.2593 157L100.479 157.004C102.138 158.725 103.907 160.317 105.775 161.769C105.689 163.634 105.742 165.503 105.933 167.359C107.002 171.094 108.399 174.71 110.103 178.16L111 179.335C109.715 186.16 108.627 193.047 107.607 200C106.092 198.506 104.041 194.956 102.893 192.791C101.305 189.792 99.8387 186.88 98.4422 183.973C98.4202 183.342 98.4057 182.956 98.4057 182.956C98.2248 180.973 98.1661 176.504 98.115 173.013Z" fill="#3D8DCC"/>
<path d="M106.633 197.589C105.01 195.54 103.557 193.36 102.29 191.071C97.3839 182.428 93.5647 174.476 89.4148 165.441C88.4971 163.694 87.8719 161.807 87.5642 159.856L86.8222 152.283C80.3905 154.25 72.3467 156.731 66.4255 159.928C64.4772 160.87 62.7316 162.188 61.2875 163.807C60.3373 165.1 59.5109 166.481 58.819 167.93C56.8376 171.602 54.3467 174.97 51.4213 177.934C51.4213 177.934 48.7281 180.146 46.2338 182.195C46.0814 179.233 45.8932 176.274 45.5778 173.214C39.9027 174.013 25.748 175.933 23.2445 176.331C22.7836 180.641 21.8457 194.512 22.0217 202.015C22.1672 208.196 22.7203 214.644 25.9362 219.912C26.6848 221.214 27.6795 222.355 28.864 223.272C32.5895 225.992 37.7778 225.051 42.1205 223.512C48.5773 221.225 64.5384 210.288 69.6688 205.727L73.8484 202.528C76.4585 209.429 79.1649 216.29 81.9676 223.11L152.857 212.233C152.572 209.421 152.221 206.615 152.002 203.798C151.476 196.993 151.137 190.944 150.961 184.006L169 159.162C163.936 155.765 158.814 152.338 153.111 150.197C143.431 146.557 129.599 146.852 119.128 147.186C113.549 163.601 110.374 180.369 107.655 197.524" fill="#00AEEF"/>
<path d="M248.155 156.98C249.037 156.344 250.126 156.073 251.199 156.223C252.578 156.293 253.814 157.109 254.43 158.359C255.405 160.396 255.03 163.941 254.05 166.07C253.224 168.14 251.807 169.914 249.979 171.165C248.654 171.909 247.15 172.262 245.636 172.183C246.852 171.245 244.096 175.788 244.096 175.788C243.132 177.331 242.064 178.806 240.901 180.201C241.152 181.798 241.526 183.373 242.021 184.911L242.141 185.274C238.485 190.745 234.122 195.697 229.169 200C226.466 198.012 221.361 191.747 221.182 191.473V190.192C215.297 190.964 209.358 189.237 204.777 185.423C200.005 181.67 197.82 175.619 196.922 168.887C196.404 165.007 195.933 160.787 195.278 156.578C195.278 156.578 190.928 135 216.624 135C250.393 135 248.155 156.98 248.155 156.98Z" fill="white"/>
<path d="M40.0396 168.474C39.9036 170.299 40.1183 172.127 40.6786 173.915C41.0075 174.699 42.2162 175.16 43.3898 174.949C44.5455 174.717 45.2248 173.917 44.9321 173.133C44.7955 172.686 44.6806 172.237 44.5873 171.785L44.6666 172.178C44.4215 170.952 44.3477 169.712 44.4463 168.477C44.4385 167.663 43.4565 167.005 42.2429 167C41.0371 167.018 40.0658 167.668 40.0396 168.477V168.474Z" fill="#211715"/>
<path d="M40.8281 172.938C43.8931 172.065 46.6901 170.441 48.9638 168.214C49.7696 167.416 50.4991 166.549 51.2679 165.716C52.321 164.577 53.4579 163.54 54.4148 162.313C56.807 159.245 58.2156 154.915 55.5775 151.532C52.9624 148.182 47.7129 151.151 44.8852 152.651C43.0849 153.479 42.148 155.482 42.6692 157.389C43.1995 159.227 44.8637 159.784 46.5893 159.986C47.4056 159.981 48.0661 159.323 48.0706 158.509C48.0514 157.702 47.3994 157.052 46.5893 157.032C46.2497 156.997 45.9184 156.905 45.6088 156.761C45.5636 156.736 45.4977 156.588 45.5791 156.761C45.4896 156.568 45.453 156.355 45.4732 156.143C45.5332 155.664 45.8547 155.478 46.2457 155.271C46.8871 154.926 47.5433 154.606 48.2009 154.296C49.437 153.705 50.7835 153.008 52.187 152.998C53.4075 152.99 53.9385 154.228 54.0704 155.316C54.4111 158.138 52.0188 160.78 50.174 162.604C48.9579 163.808 47.884 165.146 46.6508 166.333C44.7855 168.1 42.5162 169.388 40.0393 170.084C38.2151 170.623 38.992 173.474 40.8266 172.932L40.8281 172.938Z" fill="#211715"/>
<path d="M43.6066 144.759C44.9379 144.94 46.1731 145.545 47.1244 146.482C47.885 147.354 48.3687 148.451 49.1602 149.295C51.126 151.391 54.8426 150.872 56.3409 148.483C57.9084 145.985 56.3409 142.941 55.1489 140.642C53.6874 137.817 51.6252 135.262 48.1861 135.001C46.3783 134.984 44.5862 135.332 42.9196 136.024C41.1666 136.625 39.4467 137.316 37.7482 138.052C36.1284 138.755 34.4829 139.469 32.9345 140.319C31.6366 141.074 30.503 142.075 29.5993 143.265C28.1098 145.139 27.6298 147.743 27.0437 150.009C26.3418 152.719 25.7344 155.452 25.2215 158.208C24.6205 161.193 24.2125 164.214 24 167.251C24.0162 168.673 24.189 170.09 24.5154 171.475C24.79 173.157 24.9719 174.852 25.1486 176.546C25.1706 177.34 25.8171 177.978 26.6211 178C27.4323 177.995 28.0888 177.347 28.0936 176.546C27.8212 173.94 27.4575 171.364 27.0054 168.783C26.6579 166.8 27.1637 164.508 27.4604 162.538C28.1738 157.765 29.2011 153.044 30.5358 148.403C30.7401 147.492 31.0435 146.605 31.4406 145.757C32.0278 144.741 32.8357 143.867 33.8062 143.197C35.0861 142.422 36.4284 141.752 37.8196 141.194C39.2737 140.532 40.7462 139.911 42.2445 139.352C44.7735 138.407 48.1221 136.855 50.4619 138.968C51.3964 139.918 52.1479 141.028 52.6795 142.244C53.3258 143.333 53.7918 144.517 54.06 145.751C54.1961 146.54 53.7422 147.313 52.9806 147.588C52.5466 147.78 52.0482 147.77 51.623 147.559C51.3839 147.419 51.1901 147.215 51.0641 146.97C50.4076 145.816 49.5867 144.761 48.6264 143.836C47.3925 142.877 45.9391 142.231 44.3936 141.955C42.5464 141.557 41.7571 144.359 43.6103 144.759H43.6066Z" fill="#211715"/>
<path d="M39.9551 150.274C40.3456 150.373 40.7361 150.493 41.1188 150.641C41.37 150.738 41.618 150.846 41.8627 150.968C41.9187 150.996 41.9734 151.026 42.0287 151.051C41.6076 150.852 41.9018 150.982 41.9975 151.037C42.1211 151.109 42.2431 151.184 42.3633 151.263C42.6222 151.431 42.8728 151.62 43.1137 151.828C43.1684 151.875 43.2224 151.923 43.2758 151.973C43.1046 151.784 43.553 152.228 43.2758 151.973C43.3871 152.093 43.4984 152.212 43.6044 152.34C43.7105 152.468 43.8147 152.605 43.913 152.746C43.9728 152.829 44.0256 152.938 44.0913 153.015C43.9943 152.901 43.9273 152.732 44.0555 152.963C44.1513 153.136 44.2397 153.315 44.3204 153.5C44.3562 153.584 44.39 153.667 44.4226 153.746C44.4629 153.85 44.6029 154.275 44.4434 153.78C44.545 154.192 44.7568 154.544 45.0415 154.776C45.3457 154.998 45.7061 155.058 46.0445 154.942C46.7342 154.691 47.1396 153.779 46.9557 152.892C46.6413 151.864 46.1698 150.926 45.5687 150.133C45.044 149.467 44.445 148.903 43.7912 148.461C42.8029 147.8 41.7439 147.328 40.6482 147.06C39.955 146.816 39.2382 147.337 39.0471 148.224C38.8561 149.111 39.2632 150.029 39.9564 150.273L39.9551 150.274Z" fill="#211715"/>
<path d="M36.3275 156.243C37.0024 156.414 37.6647 156.624 38.3101 156.873L37.8781 156.708C38.6995 157.027 39.4957 157.396 40.28 157.781C40.704 157.997 41.2023 158.056 41.6725 157.946C42.3734 157.77 42.8904 157.227 42.9847 156.568C43.079 155.91 42.7321 155.264 42.1045 154.929C40.5818 154.14 38.966 153.511 37.288 153.056C36.818 152.943 36.3185 153.002 35.8955 153.221C35.2679 153.556 34.921 154.202 35.0153 154.86C35.1096 155.519 35.6266 156.062 36.3275 156.238V156.243Z" fill="#211715"/>
<path d="M38.6788 155.769C38.7862 155.822 38.9583 155.968 39.075 155.991C38.9898 155.977 38.8331 155.809 38.9992 155.951C39.0546 155.997 39.1117 156.041 39.1696 156.088C39.2276 156.136 39.2727 156.186 39.3239 156.237C39.5684 156.47 39.1986 156.054 39.2957 156.209C39.3648 156.321 39.4423 156.436 39.5181 156.544C39.6281 156.699 39.421 156.278 39.4755 156.453C39.4943 156.513 39.5224 156.572 39.542 156.632C39.5616 156.692 39.5718 156.756 39.5931 156.815C39.6528 156.98 39.5931 156.527 39.5769 156.699C39.5676 156.82 39.5769 156.951 39.5769 157.07C39.5727 157.245 39.6621 156.789 39.5872 156.955C39.5556 157.03 39.5386 157.113 39.513 157.186C39.4363 157.408 39.513 157.116 39.5488 157.112C39.5037 157.169 39.4643 157.23 39.4312 157.293C39.3008 157.496 39.4312 157.237 39.4858 157.244C39.4679 157.244 39.34 157.377 39.3213 157.392C39.1304 157.566 39.3579 157.334 39.3878 157.353C39.375 157.345 39.1833 157.475 39.1722 157.46C39.1611 157.446 39.5011 157.372 39.2199 157.434L38.9694 157.492C38.6925 157.555 39.029 157.506 39.0376 157.492C38.9463 157.509 38.853 157.516 38.7598 157.512C38.5359 157.524 38.3114 157.524 38.0875 157.512C37.9878 157.507 37.8889 157.498 37.7892 157.491C37.5336 157.474 38.0449 157.549 37.7995 157.487C37.5847 157.433 37.3615 157.403 37.1468 157.347C36.5553 157.205 35.922 157.351 35.4886 157.729C35.0722 158.114 34.9075 158.657 35.0506 159.171C34.9654 158.634 35.0591 159.262 35.0762 159.398C35.1068 159.635 35.135 159.871 35.1614 160.108C35.2176 160.579 35.273 161.049 35.3318 161.517C35.3534 162.328 36.1039 162.981 37.036 163C37.8719 162.967 38.8484 162.343 38.7402 161.517C38.6021 160.472 38.4939 159.424 38.3312 158.381L36.2342 160.206C37.4538 160.536 38.7525 160.576 39.9962 160.323C41.2894 160.013 42.3224 159.165 42.7552 158.06C43.5596 156.194 42.2798 154.137 40.3992 153.203C39.5865 152.79 38.5425 153.028 38.0674 153.735C37.5924 154.442 37.8661 155.351 38.6788 155.764V155.769Z" fill="#211715"/>
<path d="M93.9432 138.058C94.113 137.298 93.8974 136.506 93.3609 135.919C92.9592 135.494 92.428 135.199 91.8414 135.075C90.5627 134.929 89.2672 134.996 88.0128 135.273C86.7853 135.432 85.5655 135.642 84.3558 135.898C83.1081 136.16 81.7664 136.37 81.2105 137.621C80.6716 138.834 81.2516 139.858 82.0001 140.837C82.7205 141.775 83.5109 142.664 84.3651 143.495C85.108 144.283 86.117 144.801 87.2185 144.959C88.2969 145.105 89.3935 144.858 90.287 144.266C91.2749 143.474 92.0563 142.475 92.5697 141.348C93.1781 140.315 93.6399 139.209 93.9432 138.061C94.1711 137.275 93.6855 136.463 92.8585 136.247C92.0315 136.03 91.1764 136.491 90.9485 137.277C90.8771 137.584 90.7861 137.888 90.676 138.185C90.5721 138.488 90.4458 138.783 90.2978 139.07C89.927 139.826 89.5074 140.56 89.0416 141.268C88.9833 141.357 88.922 141.445 88.8638 141.534C88.8498 141.555 88.7178 141.719 88.8288 141.589C88.9274 141.473 88.651 141.753 88.6006 141.799C88.394 141.986 88.5664 141.818 88.6176 141.789C88.547 141.829 88.4794 141.873 88.4072 141.912C88.335 141.95 88.2613 141.985 88.1875 142.017C88.3063 141.965 88.3808 141.955 88.2154 141.991C88.1378 142.007 88.0547 142.028 87.9825 142.049C87.8754 142.079 87.7333 142.041 88.0353 142.049C87.894 142.036 87.7516 142.037 87.6106 142.053C87.425 142.095 87.8373 142.134 87.6603 142.063C87.6013 142.046 87.5411 142.034 87.4802 142.025C87.4025 142.006 87.3249 141.973 87.2472 141.957C87.5299 142.015 87.3194 141.994 87.2185 141.936C87.1176 141.879 86.8412 141.683 87.0539 141.862C86.9048 141.738 86.7651 141.606 86.6261 141.471C86.3062 141.16 85.9956 140.843 85.6944 140.518C85.1524 139.96 84.6635 139.357 84.2331 138.717C84.1912 138.655 84.1555 138.59 84.1097 138.53C83.9086 138.252 84.1004 138.482 84.0872 138.547C84.0872 138.54 84.0546 138.129 84.0872 138.611C84.0918 138.676 83.9932 138.919 84.0872 138.685C84.0615 138.764 84.023 138.838 83.973 138.906C83.9396 138.945 83.671 139.12 83.8317 139.031C83.9924 138.943 83.7541 139.068 83.7393 139.07C83.9092 139.04 84.0769 139.001 84.2417 138.952C85.1082 138.755 85.9801 138.578 86.8575 138.422C87.9057 138.239 88.6968 138.127 89.6953 138.029C90.1856 137.967 90.6798 137.938 91.1744 137.941C91.1007 137.941 90.8802 137.867 91.141 137.949C91.3173 138.004 91.214 137.991 91.1123 137.933C90.8631 137.79 91.0347 137.838 91.0859 137.916C90.9316 137.739 90.8809 137.5 90.9508 137.279C90.7479 138.062 91.2254 138.859 92.0378 139.093C92.8637 139.298 93.7102 138.838 93.9432 138.058Z" fill="#211715"/>
<path d="M225.939 177.238C226.093 176.554 225.953 175.84 225.549 175.256C225.145 174.671 224.512 174.265 223.791 174.127C222.58 173.958 221.35 173.958 220.139 174.127C218.863 174.219 217.586 174.368 216.316 174.551C215.815 174.603 215.318 174.685 214.827 174.796C214.024 175.023 213.388 175.609 213.122 176.365C212.709 177.544 213.422 178.625 214.067 179.588C214.705 180.528 215.414 181.423 216.19 182.265C216.844 183.106 217.791 183.698 218.863 183.935C220.086 184.15 221.346 183.826 222.287 183.053C222.737 182.644 223.134 182.185 223.47 181.687C223.816 181.232 224.142 180.764 224.448 180.283C225.081 179.334 225.582 178.311 225.939 177.241C226.09 176.718 225.937 176.158 225.537 175.772C225.137 175.385 224.55 175.232 223.998 175.368C223.447 175.505 223.013 175.911 222.862 176.434C222.817 176.579 222.769 176.722 222.715 176.864C222.694 176.92 222.664 176.977 222.646 177.035C222.582 177.247 222.754 176.818 222.651 177.027C222.492 177.345 222.339 177.659 222.164 177.968C221.77 178.66 221.332 179.329 220.853 179.971C220.747 180.114 220.638 180.255 220.528 180.396C220.339 180.639 220.454 180.488 220.497 180.437C220.438 180.507 220.381 180.579 220.317 180.647C220.268 180.689 220.221 180.735 220.178 180.783C220.059 180.944 220.381 180.693 220.199 180.783C220.143 180.812 220.09 180.844 220.039 180.88C219.765 181.062 220.187 180.87 220.022 180.901C219.882 180.928 219.744 180.977 219.602 181.005C219.989 180.929 219.543 180.978 219.411 180.972C219.748 180.989 219.424 180.921 219.289 180.916C219.112 180.911 219.449 181.048 219.322 180.93C219.235 180.87 219.144 180.818 219.048 180.773C219.297 180.925 219.009 180.717 218.919 180.626C218.795 180.499 218.673 180.369 218.553 180.239C218.263 179.924 217.979 179.603 217.71 179.271C217.825 179.414 217.531 179.044 217.497 178.996C217.379 178.845 217.264 178.688 217.151 178.531C216.898 178.18 216.658 177.82 216.433 177.45C216.327 177.273 216.223 177.094 216.129 176.911C216.149 176.951 216.162 177.108 216.156 176.973C216.148 176.775 216.173 177.143 216.169 177.187C216.144 177.422 216.004 177.521 215.836 177.67C215.782 177.718 215.509 177.735 215.797 177.698C215.937 177.68 216.077 177.65 216.217 177.628C217.137 177.476 217.791 177.389 218.6 177.304C219.624 177.196 220.65 177.12 221.68 177.087C222.156 177.057 222.635 177.055 223.112 177.08C223.037 177.074 222.803 177.004 223.064 177.09C223.246 177.15 223.132 177.117 223.024 177.066C223.268 177.18 223.038 177.074 222.989 177.031L222.893 176.904C223.044 177.18 223.033 177.025 222.86 176.438C222.709 176.961 222.862 177.521 223.262 177.907C223.663 178.293 224.249 178.447 224.801 178.31C225.353 178.173 225.786 177.767 225.937 177.244L225.939 177.238Z" fill="#211715"/>
<path d="M64.3541 95.286C63.8442 96.9783 63.4738 98.7101 63.2467 100.464C62.6945 105.997 63.0709 111.585 64.36 116.993C64.425 116.434 64.4671 116.053 64.4671 116.053C64.7808 113.241 69.6137 105.254 73.2992 102.846C73.7311 102.563 74.3446 102.833 74.5993 103.58C74.8052 104.164 74.9028 104.78 74.8872 105.399C74.857 105.758 75.0302 106.105 75.3352 106.294C75.6401 106.483 76.0251 106.484 76.3306 106.295C78.953 104.491 83.9165 99.6379 89.6005 98.0228L94.948 98.4687C96.6837 99.0425 104.668 101.282 111.099 111.332L117.471 114.793C118.349 114.142 119.441 113.854 120.524 113.988C121.913 114.038 123.168 114.837 123.807 116.08L124.267 117C126.069 113.124 125.955 106.495 125.998 103.63C126.031 100.878 125.64 98.1374 124.839 95.506C123.259 90.2808 121.029 86.0442 116.755 82.4616L115.903 81.748L111.497 78.9362C105.667 75.0406 98.648 73.3668 91.7017 74.2157C81.6972 75.2444 73.8352 79.5673 68.755 86.2627C66.7755 88.9884 65.2859 92.0424 64.3541 95.286Z" fill="#85807F"/>
<path d="M126.085 118.506V118.498L125.872 119.277C127.97 114.951 127.95 109.843 127.997 105.146C128.075 99.3061 126.597 93.5479 123.709 88.4468C122.162 85.7609 120.14 83.3695 117.738 81.3861C116.205 80.1136 113.978 82.2866 115.522 83.5683C119.403 86.8912 122.212 91.2593 123.605 96.1348C125.13 100.967 125.069 106.109 124.643 111.111C124.544 112.409 124.352 113.698 124.071 114.97C123.936 115.568 123.77 116.158 123.571 116.738C123.275 117.294 123.066 117.891 122.952 118.509C122.952 120.495 126.085 120.498 126.085 118.509V118.506Z" fill="#211715"/>
<path d="M94.1226 101.796C94.9627 102.034 95.7962 102.28 96.6192 102.56C96.7004 102.582 96.7793 102.609 96.8548 102.643C96.9872 102.693 97.1196 102.743 97.2512 102.795C97.6336 102.944 98.0127 103.101 98.3886 103.264C99.1436 103.593 99.8812 103.952 100.602 104.339C104.767 106.645 108.293 109.722 110.926 113.35C112.063 114.866 114.875 113.455 113.732 111.927C110.836 107.94 106.972 104.55 102.409 101.995C100.082 100.763 97.5902 99.7826 94.9887 99.0765C92.9966 98.5125 92.1453 101.234 94.1251 101.796H94.1226Z" fill="#211715"/>
<path d="M65.9429 117.37C65.892 117.804 65.9894 117.207 66.0093 117.126C66.052 116.94 66.1036 116.756 66.1567 116.574C66.2861 116.143 66.4362 115.721 66.6065 115.308C68.1064 111.788 70.1041 108.554 72.5248 105.726C72.8605 105.348 73.2169 104.993 73.5918 104.663C73.6301 104.63 74.0239 104.383 74.0342 104.323L73.2039 104.261L73.2607 104.482C73.2843 104.706 73.3271 104.927 73.3883 105.142C73.3681 105.862 73.506 106.578 73.7901 107.227C74.2138 107.967 74.9362 108.436 75.7287 108.484C76.8886 108.528 77.8118 107.508 78.6679 106.776C79.5631 106.007 80.4443 105.219 81.3498 104.464C83.9727 102.278 86.7814 100.234 89.9639 99.2104C91.7823 98.6248 91.0081 95.4843 89.1793 96.0732C86.1691 97.1323 83.3457 98.7524 80.8314 100.863C79.673 101.787 78.55 102.764 77.4284 103.741C77.042 104.078 76.6578 104.416 76.2641 104.741C76.0886 104.856 75.9236 104.989 75.7715 105.138C75.5385 105.438 75.5215 105.072 75.8379 105.301C76.1117 105.233 76.2837 105.37 76.354 105.714V105.46C76.3992 104.575 76.2305 103.693 75.8651 102.903C75.5427 102.04 74.8513 101.411 74.0217 101.226C72.7622 100.967 71.6768 102.152 70.8266 103.022C68.9361 105.051 67.2963 107.345 65.9495 109.847C64.6658 112.124 63.3156 114.674 63 117.373C63.0044 118.27 63.6621 118.995 64.4748 119C65.2809 118.978 65.9297 118.262 65.9495 117.373L65.9429 117.37Z" fill="#211715"/>
<path d="M94.1462 122.61C93.7709 121.011 93.998 117.328 96.2714 117C99.2778 117 99.454 121.455 98.4501 123.555C97.6264 125.273 95.1905 126.003 94.1462 122.61Z" fill="#211715"/>
<path d="M73.1501 124.599C72.7702 123 72.9883 119.318 75.2606 119C78.2678 119.016 78.4559 123.467 77.4567 125.562C76.6391 127.277 74.2064 128 73.1501 124.599Z" fill="#211715"/>
<path d="M82.7838 124.882C82.2264 125.925 81.7215 126.996 81.2711 128.091L81.4437 127.667C81.1824 128.17 81.031 128.725 81.0001 129.295C80.9933 130.007 81.3035 130.683 81.8423 131.13C82.2423 131.501 82.7267 131.761 83.2506 131.888C83.5958 131.953 83.9306 131.963 84.2741 132C84.7316 132 85.1705 131.813 85.4943 131.481C85.8181 131.148 86 130.697 86 130.226C86 129.755 85.8181 129.304 85.4943 128.971C85.1572 128.659 84.7266 128.476 84.2741 128.451C84.1179 128.434 83.9608 128.435 83.8046 128.417L84.2637 128.48C84.1257 128.462 83.9905 128.425 83.8616 128.371L84.2732 128.548C84.1537 128.491 84.04 128.422 83.9341 128.342L84.2836 128.619C84.2044 128.557 84.1299 128.489 84.0609 128.414L84.331 128.774C84.3071 128.745 84.2868 128.712 84.2706 128.678L84.4432 129.101C84.4218 129.049 84.4059 128.995 84.3957 128.939L84.4579 129.411C84.4497 129.331 84.4497 129.251 84.4579 129.171L84.3966 129.642C84.4267 129.472 84.4762 129.306 84.5442 129.148L84.3716 129.571C84.4544 129.379 84.535 129.185 84.6132 128.991L84.4406 129.414C84.8264 128.477 85.2906 127.566 85.7626 126.672C85.9881 126.255 86.0498 125.766 85.9352 125.304C85.7512 124.616 85.1835 124.108 84.4948 124.015C83.806 123.922 83.1304 124.263 82.7803 124.88L82.7838 124.882Z" fill="#211715"/>
<path d="M109.986 143.527C112.414 141.474 114.58 139.176 116.442 136.677C117.731 135.018 118.848 133.252 119.78 131.404C120.236 130.637 119.961 129.678 119.152 129.214C118.317 128.776 117.252 129.031 116.76 129.789C115.858 131.581 114.78 133.294 113.54 134.908C111.807 137.234 109.784 139.368 107.512 141.268C107.07 141.673 106.898 142.262 107.06 142.814C107.221 143.366 107.693 143.797 108.297 143.945C108.9 144.093 109.545 143.936 109.986 143.531V143.527Z" fill="#211715"/>
<path d="M113.272 76.4128C108.173 73.0678 102.27 71.1988 96.2011 71.0074C90.604 70.8998 85.0457 71.9706 79.8769 74.1524C75.1318 76.127 70.9091 79.2031 67.5478 83.1337C63.8247 87.6978 61.3923 93.2017 60.51 99.0584C59.5583 105.676 59.9413 112.42 61.6358 118.882C62.1302 120.841 65.1226 120.01 64.6243 118.046C62.0186 107.717 62.2874 95.5824 68.7023 86.6742C74.5399 78.5703 84.5089 74.5455 94.1695 74.1665C100.377 73.9599 106.498 75.6886 111.708 79.1199C113.402 80.1986 114.962 77.479 113.272 76.405V76.4128Z" fill="#211715"/>
<path d="M100.628 145.942C93.65 149.533 85.323 151.459 77.8977 148.02C74.4964 146.551 71.5568 144.164 69.3983 141.119C67.4313 137.992 66.0922 134.502 65.4577 130.848C64.4181 125.672 63.952 120.374 63.0738 115.168C62.8384 114.324 61.9801 113.829 61.1457 114.054C60.3227 114.303 59.839 115.166 60.049 116.011C60.8927 121.014 61.3808 126.085 62.3123 131.071C62.9664 135.07 64.3735 138.903 66.4566 142.361C71.0075 149.501 79.6267 153.444 87.8895 152.96C92.9026 152.557 97.7783 151.1 102.207 148.681C104.008 147.756 102.421 145.011 100.625 145.936L100.628 145.942Z" fill="#211715"/>
<path d="M119.584 114.956C120.485 114.274 121.66 114.083 122.727 114.445C123.104 114.564 123.454 114.757 123.758 115.012C123.873 115.121 123.981 115.238 124.081 115.362C123.87 115.097 124.173 115.526 124.206 115.587C125.189 117.355 124.832 119.985 124.28 121.847C123.67 123.96 122.462 125.848 120.805 127.277C119.204 128.636 117.017 129.05 115.038 128.37C114.177 128.137 113.291 128.647 113.05 129.514C112.835 130.382 113.333 131.267 114.181 131.524C116.429 132.461 119.192 131.898 121.307 130.847C123.443 129.633 125.157 127.781 126.214 125.546C127.339 123.42 127.95 121.056 127.999 118.647C128.027 116.56 127.607 114.203 126.045 112.704C123.794 110.665 120.462 110.431 117.954 112.136C117.205 112.608 116.95 113.589 117.375 114.372C117.83 115.145 118.814 115.407 119.586 114.958L119.584 114.956Z" fill="#211715"/>
<path d="M223.131 162.566C222.773 160.961 223.041 157.285 225.316 157C228.32 157.064 228.446 161.516 227.42 163.594C226.579 165.297 224.139 165.977 223.131 162.566Z" fill="#211715"/>
<path d="M200.131 162.56C199.775 160.954 200.034 157.277 202.31 157C205.316 157.072 205.446 161.524 204.425 163.6C203.586 165.3 201.146 165.974 200.131 162.56Z" fill="#211715"/>
<path d="M211.818 165.88C211.323 166.791 210.857 167.721 210.437 168.673C210.183 169.167 210.034 169.711 210 170.27C209.99 170.983 210.295 171.661 210.827 172.112C211.222 172.484 211.7 172.748 212.219 172.879C212.561 172.949 212.893 172.957 213.233 173C213.687 173.001 214.122 172.814 214.443 172.481C214.764 172.148 214.944 171.696 214.944 171.225C214.944 170.755 214.764 170.303 214.443 169.97L214.096 169.692C213.834 169.533 213.536 169.449 213.233 169.45C213.078 169.431 212.922 169.429 212.768 169.409L213.223 169.472C213.106 169.455 212.992 169.426 212.881 169.384L213.289 169.561C213.152 169.5 213.022 169.421 212.903 169.326L213.246 169.604C213.168 169.54 213.095 169.471 213.027 169.396L213.295 169.751C213.272 169.721 213.252 169.689 213.237 169.654L213.408 170.078C213.388 170.025 213.373 169.97 213.364 169.914L213.425 170.386C213.419 170.307 213.421 170.226 213.431 170.147L213.37 170.619C213.398 170.47 213.441 170.324 213.499 170.185L213.328 170.609C213.755 169.604 214.253 168.628 214.772 167.671C214.997 167.255 215.058 166.765 214.943 166.303C214.76 165.615 214.197 165.107 213.515 165.015C212.832 164.923 212.163 165.263 211.816 165.88H211.818Z" fill="#211715"/>
<path d="M237.959 184.508C240.404 182.449 242.59 180.136 244.474 177.612C245.744 175.98 246.852 174.243 247.783 172.422C248.233 171.649 247.962 170.682 247.165 170.216C246.343 169.774 245.295 170.031 244.811 170.794C243.911 172.557 242.843 174.241 241.621 175.825C239.861 178.174 237.815 180.322 235.525 182.228C235.078 182.633 234.899 183.232 235.056 183.796C235.214 184.36 235.683 184.8 236.285 184.947C236.887 185.095 237.527 184.927 237.959 184.508Z" fill="#211715"/>
<path d="M232.595 185.228C225.559 188.644 217.184 190.424 209.782 187.012C206.349 185.531 203.387 183.147 201.217 180.116C199.22 176.96 197.885 173.437 197.289 169.756C196.31 164.605 195.918 159.338 195.106 154.157C194.869 153.321 194.001 152.83 193.158 153.054C192.327 153.302 191.838 154.155 192.049 154.991C192.829 159.967 193.246 165.006 194.118 169.966C194.728 173.991 196.13 177.856 198.242 181.343C202.772 188.394 211.389 192.339 219.691 191.977C224.753 191.643 229.69 190.27 234.191 187.944C236.023 187.054 234.419 184.337 232.592 185.225L232.595 185.228Z" fill="#211715"/>
<path d="M157.219 113.925C157.235 113.72 157.233 113.735 157.212 113.969C157.229 113.882 157.25 113.795 157.276 113.711C157.196 114.102 157.308 113.68 157.378 113.548C157.186 113.911 157.452 113.491 157.529 113.399C157.664 113.275 157.657 113.275 157.507 113.399C157.581 113.339 157.657 113.283 157.734 113.226C158.081 112.983 158.446 112.772 158.826 112.595C158.584 112.706 158.951 112.555 159.008 112.538C159.105 112.51 159.204 112.486 159.303 112.467C159.129 112.488 159.139 112.488 159.333 112.467C159.534 112.467 159.731 112.462 159.932 112.467C159.558 112.452 160.063 112.514 160.15 112.531C159.942 112.424 159.911 112.411 160.056 112.493C160.137 112.547 160.217 112.603 160.298 112.66C160.378 112.718 160.459 112.78 160.539 112.843C160.411 112.736 160.419 112.747 160.566 112.874C160.836 113.138 161.102 113.398 161.348 113.687C161.492 113.86 161.632 114.032 161.766 114.211C161.62 114.016 161.971 114.514 162.008 114.565C162.473 115.296 162.879 116.068 163.221 116.874C163.302 117.064 163.308 117.086 163.249 116.938C163.29 117.044 163.33 117.149 163.366 117.255C163.44 117.463 163.509 117.674 163.572 117.885C163.636 118.096 163.678 118.3 163.742 118.502C163.778 118.706 163.787 118.723 163.771 118.553C163.783 118.673 163.789 118.792 163.791 118.912C163.791 118.993 163.732 119.596 163.772 119.375C163.738 119.56 163.692 119.737 163.642 119.917C163.574 120.117 163.561 120.15 163.612 120.017C163.578 120.09 163.541 120.163 163.501 120.232C163.378 120.491 163.69 119.983 163.396 120.339C163.651 120.03 163.383 120.323 163.252 120.409C163.588 120.188 163.175 120.43 163.048 120.464C162.96 120.488 162.869 120.509 162.779 120.525C162.969 120.503 162.965 120.503 162.767 120.525C162.547 120.537 162.33 120.549 162.11 120.549C161.22 120.549 160.499 121.321 160.499 122.274C160.499 123.227 161.22 124 162.11 124C163.852 124 165.685 123.424 166.464 121.594C166.96 120.447 167.117 119.166 166.913 117.921C166.723 116.984 166.428 116.074 166.036 115.212C165.339 113.467 164.312 111.896 163.02 110.597C162.4 109.911 161.625 109.408 160.771 109.138C159.833 108.915 158.857 108.963 157.943 109.277C156.95 109.636 156.035 110.207 155.253 110.954C154.496 111.733 154.048 112.794 154 113.918C154.004 114.869 154.723 115.639 155.611 115.643C156.491 115.621 157.2 114.861 157.221 113.918L157.219 113.925Z" fill="#211715"/>
<path d="M154.677 119.164C154.907 119.049 154.45 119.24 154.696 119.16C154.803 119.124 154.907 119.084 155.014 119.051C155.065 119.036 155.369 118.975 155.166 119.007C154.974 119.039 155.342 119.007 155.423 119.007C155.471 119.007 155.52 119.014 155.569 119.018C155.532 119.018 155.34 118.942 155.454 119.011C155.501 119.032 155.55 119.047 155.6 119.055C155.703 119.081 155.751 119.179 155.566 119.034C155.656 119.104 155.759 119.153 155.849 119.226C155.646 119.061 155.923 119.332 155.981 119.404C156.125 119.585 155.892 119.245 156.022 119.466C156.066 119.542 156.107 119.618 156.148 119.69C156.252 119.878 156.201 119.739 156.255 119.936C156.275 120.012 156.291 120.088 156.309 120.159C156.368 120.398 156.309 119.95 156.317 120.188C156.322 120.302 156.279 120.683 156.332 120.405C156.307 120.537 156.277 120.665 156.242 120.795C156.17 121.068 156.219 120.86 156.242 120.801C156.216 120.86 156.19 120.919 156.162 120.977C156.106 121.092 156.045 121.204 155.978 121.312C155.946 121.365 155.911 121.419 155.878 121.47C156.041 121.225 155.878 121.458 155.839 121.505C155.682 121.69 155.526 121.872 155.353 122.037C155.301 122.087 155.246 122.133 155.195 122.183C155.055 122.32 155.47 121.955 155.242 122.143C154.933 122.397 154.622 122.645 154.307 122.888C153.521 123.493 152.721 124.076 151.917 124.648C151.177 125.174 150.435 125.704 149.667 126.177C149.027 126.606 148.81 127.531 149.181 128.258C149.569 128.968 150.387 129.209 151.036 128.803C152.794 127.697 154.496 126.48 156.132 125.159C157.075 124.501 157.876 123.616 158.475 122.568C159.373 120.799 159.099 118.575 157.806 117.145C156.555 115.708 154.832 115.766 153.305 116.537C152.661 116.963 152.444 117.892 152.819 118.617C153.21 119.322 154.024 119.562 154.674 119.163L154.677 119.164Z" fill="#211715"/>
<path d="M159.714 122.186C159.911 122.078 159.385 122.293 159.764 122.186L159.851 122.163C160.004 122.132 159.971 122.134 159.754 122.169C159.798 122.078 160.389 122.162 160.46 122.169C160.233 122.155 160.313 122.141 160.493 122.188C160.607 122.217 160.723 122.28 160.838 122.302C160.936 122.344 160.902 122.327 160.732 122.253C160.792 122.285 160.85 122.321 160.906 122.359C161.01 122.438 161.015 122.438 160.922 122.359C160.83 122.28 160.831 122.284 160.927 122.372C161.039 122.646 160.792 122.082 160.967 122.428C161.142 122.774 160.929 122.211 161.01 122.519C161.039 122.635 161.076 122.746 161.103 122.864C161.114 122.913 161.174 123.374 161.158 123.139C161.143 122.904 161.164 123.381 161.164 123.426C161.164 123.552 161.156 123.675 161.147 123.799C161.176 123.389 161.122 123.827 161.105 123.922C161.091 123.98 161.075 124.038 161.056 124.095C161.133 123.906 161.137 123.889 161.069 124.046C160.985 124.191 160.895 124.302 161.051 124.12C160.939 124.25 160.819 124.372 160.692 124.484C160.567 124.599 160.44 124.71 160.313 124.822C160.346 124.793 159.946 125.142 160.092 125.016C159.506 125.522 158.907 126.011 158.3 126.487C157.132 127.402 155.932 128.26 154.7 129.063C154.026 129.502 153.8 130.468 154.193 131.219C154.587 131.971 155.452 132.224 156.125 131.784C157.287 131.024 158.422 130.215 159.53 129.359C160.095 128.921 160.651 128.47 161.2 128.007C161.807 127.539 162.387 127.028 162.936 126.479C164.609 124.648 164.291 120.697 162.112 119.507C160.91 118.845 159.503 118.831 158.291 119.469C157.622 119.911 157.396 120.872 157.785 121.624C158.191 122.357 159.04 122.606 159.717 122.19L159.714 122.186Z" fill="#211715"/>
<path d="M162.82 128.237C163.197 128.263 163.749 128.276 163.936 128.637C164.266 129.275 163.493 130.047 163.106 130.461C161.943 131.696 161.256 132.745 161.447 134.511C161.723 135.922 161.907 137.349 161.998 138.783C161.966 139.524 161.767 140.248 161.416 140.903C161.299 141.067 161.195 141.24 161.105 141.42C160.98 141.81 161.118 141.483 161.137 141.47C160.933 141.596 160.718 141.704 160.495 141.794C159.172 142.363 157.819 142.862 156.441 143.288C155.179 143.702 154.004 144.394 152.704 143.745C150.223 142.506 148.927 139.351 147.833 137.01C146.6 134.372 145.345 131.738 144.138 129.089C143.657 128.03 143.192 126.965 142.766 125.886C142.585 125.423 142.404 124.957 142.257 124.482C142.203 124.306 142.157 124.13 142.114 123.951C142.142 124.067 142.148 124.473 142.119 123.922C142.104 123.656 142.08 123.392 142.071 123.126C142.029 122.442 142.072 121.755 142.201 121.081C142.27 120.735 142.382 120.399 142.536 120.08C142.604 119.945 142.695 119.824 142.769 119.694C142.949 119.381 143.019 119.433 142.827 119.578C143.567 119.064 144.337 118.596 145.135 118.176C147.44 116.852 149.775 115.559 152.166 114.393C152.502 114.178 152.883 114.041 153.281 113.991C153.87 113.855 154.49 113.958 155.002 114.277C155.467 114.702 155.581 115.385 155.278 115.935C155.18 116.138 155.225 116.053 154.957 116.302C154.82 116.43 154.58 116.626 154.499 116.689C152.453 118.171 150.296 119.496 148.047 120.655C146.351 121.589 147.871 124.163 149.57 123.227C152.009 121.962 154.34 120.503 156.541 118.865C157.906 117.914 158.623 116.293 158.401 114.659C158.087 112.647 156.392 111.126 154.334 111.009C152.931 110.938 151.539 111.275 150.329 111.978C148.937 112.67 147.567 113.407 146.205 114.154C144.898 114.87 143.594 115.595 142.318 116.365C141.098 116.995 140.139 118.028 139.61 119.284C138.971 121.034 138.831 122.923 139.205 124.746C139.521 125.95 139.954 127.12 140.5 128.24C141.782 131.26 143.262 134.193 144.614 137.183C146.063 140.389 147.652 144.192 150.817 146.12C152.425 147.112 154.42 147.276 156.171 146.558C157.843 145.94 159.545 145.403 161.193 144.722C161.892 144.505 162.544 144.158 163.112 143.702C163.97 142.752 164.554 141.592 164.804 140.343C165.256 138.36 164.682 136.487 164.461 134.518C164.345 133.491 164.558 133.294 165.235 132.575C166.189 131.7 166.809 130.526 166.988 129.252C167.172 126.682 165.125 125.423 162.819 125.264C160.882 125.132 160.89 128.111 162.819 128.243L162.82 128.237Z" fill="#211715"/>
<path d="M189.938 212.313C195.897 203.56 207.04 200.563 216.904 197.948C218.826 197.438 218.01 194.549 216.08 195.061C205.338 197.911 193.716 201.318 187.259 210.802C186.16 212.417 188.845 213.919 189.938 212.313Z" fill="#211715"/>
<path d="M249.446 191.795L260.305 191.114C263.784 190.78 267.289 190.756 270.772 191.042C277.251 191.793 283.111 194.882 288.74 197.812C290.438 198.695 291.956 196.233 290.257 195.349C284.366 192.283 278.28 189.161 271.53 188.283C267.924 187.921 264.289 187.906 260.68 188.239C256.936 188.473 253.191 188.708 249.446 188.944C247.525 189.064 247.511 191.917 249.446 191.796V191.795Z" fill="#211715"/>
<path d="M219.911 189.777C218.876 191.593 217.834 193.407 216.836 195.243C216.5 195.767 216.227 196.326 216.022 196.91C215.932 197.589 216.119 198.275 216.542 198.824C218.502 202.376 220.642 205.888 222.952 209.239C223.251 209.712 223.783 210 224.356 210C224.93 210 225.462 209.712 225.761 209.239C227.846 205.983 228.78 202.178 230.781 198.88C231.149 198.261 231.045 197.481 230.528 196.972C228.76 195.585 227.111 194.052 225.499 192.503C224.811 191.843 224.131 191.175 223.458 190.499C223.239 190.276 223.017 190.054 222.803 189.826C222.668 189.684 222.282 189.189 222.721 189.777C222.252 189.047 221.274 188.799 220.495 189.212C219.725 189.655 219.465 190.614 219.911 191.365C220.861 192.51 221.903 193.58 223.027 194.566C224.678 196.194 226.412 197.74 228.225 199.198L227.97 197.291C225.969 200.59 225.035 204.395 222.95 207.651H225.76C224.269 205.488 222.902 203.244 221.551 200.999C220.963 200.024 220.382 199.044 219.815 198.057C219.624 197.723 219.432 197.389 219.245 197.051C219.188 196.946 219.139 196.834 219.077 196.736C218.909 196.466 219.185 197.084 219.158 196.914V197.751C219.185 197.608 218.926 198.182 219.15 197.769C219.266 197.559 219.372 197.341 219.486 197.13C219.811 196.529 220.141 195.932 220.474 195.336C221.216 194.01 221.965 192.688 222.721 191.369C223.733 189.587 220.924 188.001 219.911 189.777Z" fill="#211715"/>
<path d="M250.912 189.368C250.442 188.408 249.845 187.501 249.133 186.667C248.158 185.317 247.166 183.976 246.117 182.671C245.826 182.254 245.312 182 244.758 182C244.205 182 243.691 182.254 243.4 182.671C239.703 187.634 235.355 192.189 230.448 196.242C229.851 196.793 229.851 197.666 230.448 198.217C231.265 198.989 232.154 199.698 233.105 200.337C234.498 201.347 235.925 202.322 237.359 203.285C238.595 204.115 239.841 204.933 241.097 205.738C241.74 206.232 242.458 206.641 243.232 206.953C244.069 207.149 244.929 206.715 245.167 205.975C245.749 203.981 246.577 202.026 247.299 200.069C248.294 197.367 249.302 194.667 250.279 191.959C250.632 191.253 250.864 190.504 250.968 189.737C250.942 187.941 247.795 187.936 247.821 189.737C247.813 189.178 247.826 189.566 247.719 189.877C247.593 190.248 247.459 190.618 247.325 190.988C246.896 192.182 246.461 193.374 246.019 194.563C245.007 197.314 243.984 200.061 242.982 202.815C242.691 203.615 242.369 204.415 242.132 205.229L244.067 204.252C244.788 204.47 244.08 204.192 243.839 204.042C243.429 203.791 243.025 203.533 242.62 203.274C241.385 202.483 240.16 201.679 238.947 200.862C236.827 199.438 234.426 198.023 232.673 196.231V198.206C237.767 193.982 242.28 189.237 246.116 184.07H243.399C244.398 185.314 245.347 186.591 246.277 187.877C246.662 188.407 247.044 188.94 247.417 189.478C247.551 189.672 247.686 189.865 247.814 190.063C247.921 190.228 248.084 190.651 247.877 190.099C248.515 191.807 251.553 191.081 250.912 189.368Z" fill="#211715"/>
<path d="M240.051 179.181C240.36 180.721 240.781 182.24 241.309 183.729C241.449 184.16 241.757 184.528 242.173 184.764C242.833 185.118 243.661 185.07 244.267 184.643C244.873 184.215 245.136 183.492 244.932 182.816C244.402 181.327 243.982 179.807 243.673 178.267C243.541 177.834 243.232 177.464 242.81 177.236C241.915 176.755 240.764 177.032 240.241 177.854C240.008 178.263 239.941 178.735 240.053 179.184L240.051 179.181Z" fill="#211715"/>
<path d="M87.0942 153.072C81.3039 154.665 75.6129 156.576 70.049 158.797C67.3099 159.85 64.7231 161.24 62.3531 162.932C59.7898 164.887 58.5801 167.645 56.9665 170.291C55.1502 173.256 52.9614 175.994 50.4499 178.443C49.0499 179.813 51.2378 181.927 52.6394 180.555C54.812 178.431 56.7636 176.107 58.4664 173.616C59.3177 172.372 60.0816 171.082 60.806 169.768C61.4536 168.43 62.3002 167.191 63.3189 166.09C65.27 164.181 67.9548 162.977 70.4515 161.876C73.1107 160.703 75.8582 159.721 78.6227 158.805C81.6975 157.786 84.8064 156.863 87.9169 155.953C89.8184 155.396 89.0081 152.511 87.0942 153.072Z" fill="#211715"/>
<path d="M49.6401 195.933C49.2109 189.121 49.0911 182.293 48.3445 175.5C48.3297 175.034 48.0898 174.599 47.6918 174.316C47.2938 174.033 46.7801 173.933 46.2941 174.044C38.3851 175.073 30.4461 175.959 22.5565 177.113C21.8592 177.301 21.3763 177.893 21.3677 178.57C20.7126 184.309 20.396 190.098 20.1766 195.862C19.9012 203.028 19.6097 210.708 22.1322 217.577C23.4861 221.26 25.764 225.257 29.7302 226.956C33.4924 228.567 37.8158 228.089 41.6736 227.031C47.2667 225.501 52.3537 222.42 57.2212 219.514C62.9256 216.259 68.3589 212.607 73.4749 208.59C75.0435 207.306 72.7461 205.174 71.1849 206.454C67.0401 209.708 62.6623 212.695 58.082 215.394C55.4097 217.042 52.7027 218.641 49.9341 220.14C48.7413 220.786 47.5371 221.415 46.3128 222.007C45.422 222.439 44.149 223.017 43.4737 223.274C40.4427 224.425 36.8724 225.335 33.5791 224.901C29.5351 224.368 27.1868 221.276 25.7316 217.963C22.9112 211.54 23.15 204.144 23.3663 197.324C23.5638 191.074 23.8975 184.789 24.6084 178.57L23.4197 180.026C31.3093 178.873 39.2475 177.987 47.1573 176.957L45.107 175.5C45.852 182.296 45.9718 189.121 46.4026 195.933C46.5241 197.865 49.764 197.878 49.6417 195.933H49.6401Z" fill="#211715"/>
<path d="M63.0912 178.861C67.3372 190.904 71.8702 202.849 76.69 214.693C78.0766 218.1 79.4875 221.497 80.9227 224.885C81.174 225.683 82.0182 226.152 82.8492 225.955C83.6809 225.728 84.1699 224.889 83.9455 224.075C78.9644 212.302 74.2657 200.419 69.8495 188.427C68.5808 184.977 67.3357 181.518 66.114 178.051C65.4617 176.201 62.4334 176.996 63.0935 178.863L63.0912 178.861Z" fill="#211715"/>
<path d="M117.497 150.202C130.653 149.792 144.792 149.19 156.809 155.233C160.567 157.209 164.212 159.382 167.726 161.744C169.393 162.822 170.949 160.215 169.293 159.144C163.091 155.135 156.739 151.088 149.466 149.181C142.757 147.422 135.671 147.056 128.752 147.005C125 146.977 121.248 147.073 117.498 147.191C115.505 147.253 115.496 150.264 117.498 150.202H117.497Z" fill="#211715"/>
<path d="M149.001 183.564C149.247 193.542 149.945 203.455 150.918 213.38C150.941 214.264 151.618 214.975 152.459 215C153.308 214.994 153.994 214.272 154 213.38C153.028 203.455 152.329 193.542 152.083 183.564C152.031 181.483 148.949 181.475 149.001 183.564Z" fill="#211715"/>
<path d="M85.2547 36.0119C72.5725 28.2782 59.9795 20.3898 47.3732 12.5206C44.0163 10.4245 40.6594 8.331 37.3025 6.24019C35.5913 5.17538 34.0318 7.93352 35.7384 8.99514C48.2107 16.7543 60.6511 24.5733 73.1489 32.2926C76.6576 34.4605 80.1718 36.6183 83.6914 38.766C85.4112 39.8149 86.9721 37.0583 85.2554 36.0119H85.2547Z" fill="#211715"/>
<path d="M61.9251 47.814L42.3668 43.0044L12.8651 35.7506L1.86395 33.0459C-0.00752938 32.586 -0.806284 35.7237 1.07042 36.1852L24.6105 41.978L52.9992 48.9535L61.1361 50.9541C63.0075 51.414 63.8063 48.2755 61.9296 47.814H61.9251Z" fill="#211715"/>
<path d="M48.4249 66C37.9526 67.4259 27.4362 68.474 16.9443 69.6654C14.822 69.9059 12.6998 70.1482 10.5775 70.3923C9.71605 70.4188 9.02316 71.2111 9 72.1962C9.00602 73.1895 9.70878 73.9931 10.5775 74C21.1799 72.777 31.7878 71.6045 42.3878 70.3508C44.3999 70.1127 46.4104 69.8809 48.4225 69.6077C49.2828 69.5781 49.9741 68.7875 50 67.8038C49.9948 66.8101 49.2916 66.0059 48.4225 66H48.4249Z" fill="#211715"/>
<path d="M140.284 111C134.914 101.856 121.293 79.2143 116.22 69.3514C115.752 68.421 116.053 67.2766 116.912 66.7159C120.841 64.042 125.096 61.9148 129.566 60.3895C134.135 58.7144 138.875 57.5808 143.693 57.0107C144.782 56.8977 145.762 57.6944 145.908 58.8119C147.169 68.8075 150.458 94.41 152 105.904" fill="#FFDA71"/>
<path d="M140.112 111.737C132.246 99.0411 123.986 86.5227 116.722 73.482C116.495 73.076 115.948 72.3926 116.151 72.0755C116.413 71.668 117.219 71.351 117.635 71.0994C118.175 70.773 118.72 70.4559 119.271 70.1483C121.413 68.9597 123.643 67.9272 125.941 67.0594C130.849 65.1138 135.989 63.7826 141.239 63.0977C141.883 63.0216 142.652 62.7609 142.857 63.4839C143.003 64.1962 143.099 64.9173 143.145 65.6422C143.362 67.257 143.579 68.8721 143.796 70.4874C144.324 74.4073 144.855 78.3269 145.387 82.2463C146.558 90.8625 147.744 99.4788 148.946 108.095C149.177 108.903 150.033 109.378 150.862 109.159C151.678 108.919 152.158 108.097 151.953 107.289C150.835 99.3896 149.746 91.4857 148.686 83.5775C148.114 79.3641 147.543 75.1508 146.972 70.9374C146.743 69.2334 146.514 67.53 146.285 65.827C146.052 64.067 146.133 61.8987 144.572 60.7112C143.469 59.8749 142.24 59.9388 140.927 60.0969C139.525 60.2657 138.135 60.4877 136.756 60.7629C134.021 61.3096 131.322 62.0158 128.673 62.878C126.048 63.7177 123.477 64.7132 120.976 65.8589C119.815 66.3957 118.678 66.9768 117.564 67.6022C116.348 68.1968 115.2 68.9149 114.138 69.7446C113.174 70.6201 112.782 71.9423 113.118 73.1848C113.406 73.9662 113.785 74.7127 114.248 75.4093C115.096 76.9222 115.968 78.4214 116.849 79.9153C118.971 83.5159 121.146 87.0861 123.336 90.6471C127.624 97.6225 131.987 104.553 136.318 111.502C136.686 112.093 137.053 112.685 137.42 113.276C138.457 114.949 141.151 113.421 140.11 111.741L140.112 111.737Z" fill="#211715"/>
<path d="M78.4276 163.066L76.0613 170.927C75.9018 171.45 76.0588 172.014 76.4699 172.393L81.8938 176.386V174.255C80.6531 175.712 79.5704 177.283 78.662 178.945C78.1263 179.722 77.7894 180.607 77.678 181.529C77.8038 182.281 78.1584 182.983 78.6986 183.548C80.0085 185.446 81.4225 187.281 82.8524 189.098C86.1113 193.246 89.4885 197.33 93.0367 201.262C94.0955 202.558 95.2972 203.743 96.6214 204.797C97.38 205.212 98.3495 204.971 98.7961 204.257C99.2172 203.536 98.9663 202.628 98.2262 202.195C98.7396 202.563 98.2055 202.156 98.0831 202.044C97.8733 201.856 97.673 201.658 97.4742 201.46C96.9314 200.918 96.4084 200.357 95.8909 199.794C94.4276 198.201 93.012 196.567 91.6139 194.92C88.4982 191.254 85.4436 187.525 82.6092 183.657C82.2976 183.232 81.9906 182.805 81.688 182.376C81.5433 182.17 81.405 181.96 81.2588 181.755C81.1793 181.639 81.0998 181.529 81.0092 181.417C80.5991 180.89 80.979 181.322 80.9575 181.348C81.222 180.926 81.4521 180.486 81.6459 180.031C81.888 179.598 82.1437 179.171 82.4129 178.75C82.937 177.928 83.5146 177.137 84.1424 176.382C84.6193 175.808 84.8801 174.794 84.1424 174.251L78.7185 170.258L79.127 171.724L81.4933 163.863C82.0552 161.995 78.9887 161.197 78.4276 163.061V163.066Z" fill="#211715"/>
<path d="M124.842 148.594C127.399 150.729 129.493 153.321 131.008 156.226L131.587 154.116C129.048 155.568 126.544 157.076 123.999 158.52C123.514 158.803 123.219 159.308 123.219 159.851C123.219 160.395 123.514 160.9 123.999 161.183C126.309 162.667 128.448 164.381 130.382 166.295L129.967 164.794C126.148 174.758 122.523 184.789 118.628 194.729C118.139 195.978 117.642 197.224 117.139 198.468C116.942 198.952 116.742 199.434 116.539 199.915C116.462 200.097 116.383 200.277 116.305 200.458C116.175 200.763 116.457 200.12 116.328 200.406C116.287 200.498 116.248 200.59 116.203 200.682C115.782 201.421 116.036 202.346 116.782 202.793C117.552 203.217 118.535 202.97 118.988 202.239C121.071 197.715 122.743 192.997 124.514 188.357C126.755 182.484 128.972 176.602 131.164 170.712C131.8 169.012 132.428 167.309 133.078 165.613C133.235 165.078 133.076 164.504 132.663 164.113C130.53 162.017 128.171 160.142 125.627 158.519V161.183C128.172 159.739 130.676 158.23 133.215 156.779C133.966 156.335 134.22 155.406 133.794 154.668C132.149 151.531 129.883 148.728 127.123 146.415C125.591 145.085 123.3 147.26 124.842 148.596V148.594Z" fill="#211715"/>
<path d="M86 160.542C86.4768 164.331 88.5549 167.8 90.2119 171.21C91.8608 174.604 93.5448 177.98 95.2979 181.329C97.0684 184.709 98.9124 188.052 100.83 191.357C102.405 194.229 104.255 196.951 106.354 199.488C107.674 201.003 109.914 198.817 108.602 197.312C106.615 194.867 104.87 192.247 103.389 189.486C101.593 186.389 99.8658 183.256 98.2064 180.087C96.563 176.958 94.9792 173.8 93.4296 170.624C92.6301 168.987 91.8381 167.346 91.0534 165.7C90.1568 164.084 89.5246 162.343 89.1796 160.539C89.1535 159.7 88.4569 159.025 87.5902 159C86.7146 159.005 86.006 159.691 86.0008 160.539L86 160.542Z" fill="#211715"/>
<path d="M118.722 150.121C114.546 162.999 111.303 176.148 109.017 189.472C108.322 193.294 107.674 197.123 107.049 200.956C106.835 201.814 107.342 202.686 108.205 202.944C109.084 203.174 109.99 202.67 110.237 201.813C112.415 188.466 114.891 175.144 118.512 162.091C119.548 158.359 120.681 154.655 121.91 150.978C122.571 148.997 119.386 148.149 118.726 150.119L118.722 150.121Z" fill="#211715"/>
<path d="M226.041 204.977C226.535 207.244 227.142 209.477 227.86 211.668C228.095 212.793 228.17 213.953 228.082 215.105C228.088 216.562 228.09 218.019 228.16 219.474C228.258 221.502 231.096 221.515 230.997 219.474C230.927 218.019 230.927 216.562 230.919 215.105C230.914 213.786 231.051 212.269 230.655 211.014C229.912 208.763 229.285 206.466 228.777 204.135C228.371 202.147 225.635 202.989 226.041 204.977Z" fill="#211715"/>
<path d="M232.178 204.534C231.786 207.307 232.044 210.125 232.934 212.801C233.999 215.387 235.313 217.881 236.861 220.254C237.938 221.967 240.843 220.423 239.764 218.706C238.353 216.567 237.153 214.319 236.177 211.987C235.934 211.448 235.754 210.887 235.639 210.314C235.548 209.682 235.525 209.034 235.488 208.397C235.402 207.11 235.42 205.819 235.539 204.534C235.533 203.689 234.784 203.006 233.858 203C232.938 203.017 232.197 203.694 232.178 204.534Z" fill="#211715"/>
<path d="M229.799 212.947C230.972 212.546 232.163 212.203 233.355 211.871C234.547 211.539 235.741 211.201 236.954 210.996C237.711 210.77 238.156 209.93 237.95 209.116C237.723 208.316 236.955 207.847 236.2 208.046C234.987 208.25 233.788 208.59 232.601 208.921C231.414 209.252 230.219 209.596 229.045 209.997C228.288 210.221 227.843 211.063 228.051 211.877C228.26 212.691 229.044 213.169 229.801 212.945L229.799 212.947Z" fill="#211715"/>
<path d="M88.2232 150.419C86.6752 151.907 85.3213 153.547 84.1872 155.306C83.6056 156.329 84.5231 157.566 84.9819 158.496C86.3884 161.552 88.0828 164.497 90.0468 167.299C90.3465 167.735 90.8784 168 91.4515 168C92.0246 168 92.5566 167.735 92.8562 167.299C95.0735 164.143 96.6507 160.67 98.7809 157.469C99.1495 156.899 99.0453 156.18 98.5263 155.712C95.8251 153.782 93.0108 151.988 90.194 150.194C89.4172 149.797 88.4265 150.029 87.9686 150.715C87.5351 151.408 87.7924 152.283 88.5518 152.698C91.1424 154.348 93.7412 155.987 96.2261 157.763L95.9715 156.006C93.8412 159.206 92.2641 162.68 90.0468 165.836H92.8562C91.4522 163.855 90.2084 161.787 89.1342 159.648C88.6407 158.719 88.1619 157.784 87.6978 156.843C87.605 156.655 87.5139 156.466 87.4228 156.276C87.3317 156.086 87.5676 156.592 87.431 156.292C87.4066 156.238 87.3805 156.184 87.3561 156.131C87.2594 155.913 87.1178 155.333 87.2187 156.041L86.9966 156.772C88.0376 155.254 89.2172 153.816 90.5235 152.471C91.1357 151.896 91.1357 150.995 90.5235 150.421C89.886 149.861 88.862 149.86 88.2232 150.419Z" fill="#211715"/>
<path d="M119.911 147.369C119.442 146.408 118.845 145.501 118.132 144.667C117.158 143.317 116.165 141.977 115.116 140.671C114.825 140.254 114.311 140 113.757 140C113.204 140 112.69 140.254 112.399 140.671C108.702 145.633 104.355 150.188 99.4485 154.241C98.8505 154.793 98.8505 155.665 99.4485 156.217C100.265 156.989 101.153 157.698 102.105 158.336C103.499 159.346 104.926 160.321 106.361 161.285C107.597 162.115 108.843 162.932 110.099 163.738C110.742 164.231 111.461 164.64 112.234 164.953C113.072 165.149 113.932 164.715 114.17 163.975C114.752 161.981 115.58 160.026 116.302 158.07C117.298 155.366 118.305 152.666 119.282 149.958C119.636 149.252 119.868 148.503 119.972 147.736C119.946 145.94 116.798 145.935 116.824 147.736C116.817 147.177 116.829 147.565 116.722 147.876C116.595 148.248 116.462 148.618 116.329 148.988C115.9 150.181 115.463 151.372 115.023 152.562C114.011 155.313 112.988 158.061 111.986 160.815C111.694 161.615 111.373 162.415 111.135 163.23L113.071 162.252C113.791 162.47 113.083 162.193 112.842 162.046C112.432 161.795 112.027 161.537 111.624 161.278C110.388 160.487 109.163 159.682 107.949 158.865C105.83 157.441 103.427 156.026 101.674 154.234V156.209C106.77 151.985 111.283 147.24 115.12 142.072H112.403C113.402 143.317 114.351 144.593 115.281 145.879C115.666 146.41 116.048 146.943 116.421 147.48C116.555 147.675 116.691 147.869 116.814 148.066C116.92 148.23 117.084 148.654 116.876 148.102C117.514 149.807 120.555 149.079 119.911 147.369Z" fill="#211715"/>
<path d="M94.0415 161.771C94.5138 163.939 95.3324 165.984 95.8925 168.12C95.8574 167.986 95.939 168.417 95.9438 168.552C95.9532 168.827 95.96 169.102 95.9667 169.377C95.9843 170.136 95.9957 170.896 96.0072 171.655C96.0578 174.955 96.0005 178.292 96.3007 181.581C96.3206 182.356 96.9134 182.979 97.6504 183C98.3936 182.995 98.9949 182.363 99 181.581C98.6936 178.225 98.7557 174.819 98.7031 171.451C98.7892 170.122 98.7317 168.787 98.5317 167.471C97.9918 165.294 97.126 163.22 96.6422 161.016C96.2535 159.237 93.6507 159.99 94.0394 161.771H94.0415Z" fill="#211715"/>
<path d="M103.047 161.557C102.951 163.484 103.002 165.416 103.202 167.335C103.439 168.842 103.862 170.311 104.461 171.705C105.465 174.635 106.686 177.479 108.113 180.211C109.097 182.022 111.772 180.392 110.785 178.577C109.481 176.094 108.364 173.508 107.445 170.844C106.945 169.664 106.556 168.437 106.284 167.178C106.043 165.315 105.996 163.43 106.146 161.557C106.275 159.477 103.18 159.485 103.051 161.557H103.047Z" fill="#211715"/>
<path d="M97.7983 169.947C98.9711 169.546 100.162 169.203 101.354 168.871C102.546 168.539 103.74 168.201 104.954 167.996C105.711 167.77 106.156 166.93 105.95 166.116C105.723 165.316 104.955 164.847 104.2 165.046C102.987 165.25 101.789 165.59 100.601 165.921C99.4135 166.252 98.2193 166.596 97.0451 166.997C96.2876 167.221 95.8427 168.063 96.0515 168.877C96.2603 169.691 97.0436 170.169 97.8011 169.945L97.7983 169.947Z" fill="#211715"/>
<path d="M249.305 153.998C250.192 153.378 251.287 153.113 252.367 153.26C253.754 153.328 254.997 154.123 255.618 155.342L256.06 156.239C257.924 152.495 257.905 146.05 257.991 143.26C258.063 140.588 257.713 137.921 256.953 135.354C255.445 130.239 253.284 126.089 249.066 122.542L248.24 121.848L245.984 120.402L243.863 119.042C238.095 115.168 231.105 113.437 224.151 114.161C214.137 115.016 206.213 119.107 201.041 125.542C198.003 129.583 196.039 134.302 195.326 139.272C194.629 145.148 195.052 151.1 196.574 156.824L196.624 157L196.52 154.343C196.336 149.644 200.247 142.578 204.871 140.787C208.127 139.608 213.346 141.404 216.925 141.815C222.852 142.495 233.809 140.617 236.385 143.3C238.407 144.734 241.182 157.38 242.798 154.855C242.798 154.855 242.807 155.563 242.792 155.985C244.482 155.919 249.305 153.998 249.305 153.998Z" fill="#85807F"/>
<path d="M247.526 123.567C251.383 126.861 254.163 131.147 255.532 135.911C257.031 140.642 256.947 145.546 256.517 150.427C256.302 152.856 255.965 155.459 254.819 157.667C253.902 159.434 256.677 160.991 257.598 159.218C259.817 154.945 259.864 149.853 259.987 145.183C260.153 139.373 258.718 133.624 255.827 128.508C254.28 125.813 252.239 123.405 249.802 121.397C248.245 120.105 245.959 122.27 247.526 123.569V123.567Z" fill="#211715"/>
<path d="M245.29 116.381C240.276 113.14 234.444 111.288 228.423 111.024C222.869 110.835 217.336 111.773 212.178 113.778C207.445 115.594 203.213 118.452 199.817 122.127C196.059 126.403 193.569 131.587 192.61 137.127C191.574 143.387 191.86 149.786 193.451 155.936C193.912 157.8 196.879 157.011 196.417 155.143C193.995 145.37 194.407 133.799 200.91 125.505C206.873 117.901 216.766 114.217 226.407 113.995C232.571 113.893 238.619 115.625 243.737 118.957C245.403 120 246.946 117.423 245.29 116.382V116.381Z" fill="#211715"/>
<path d="M248.755 157.941C249.658 157.272 250.824 157.105 251.871 157.494C252.491 157.661 253.012 158.092 253.304 158.679C254.242 160.488 253.841 163.118 253.268 164.979C252.649 167.014 251.492 168.832 249.925 170.23C248.592 171.373 246.169 172.316 244.402 171.537C243.636 171.11 242.679 171.368 242.215 172.127C241.776 172.912 242.031 173.914 242.788 174.377C245.181 175.327 247.855 175.185 250.14 173.986C252.26 172.828 253.98 171.025 255.066 168.824C256.208 166.741 256.864 164.414 256.984 162.026C257.086 159.86 256.722 157.435 255.189 155.825C252.991 153.696 249.66 153.397 247.136 155.102C246.394 155.575 246.142 156.564 246.563 157.351C247.013 158.128 247.986 158.391 248.75 157.941H248.755Z" fill="#211715"/>
<path d="M195.231 154.714C195.261 152.352 195.961 150.039 197.261 147.997C198.431 145.797 200.248 143.936 202.509 142.622C204.945 141.362 208.118 142.066 210.7 142.535C213.433 143.109 216.217 143.451 219.018 143.559C221.791 143.597 224.562 143.452 227.333 143.402C229.717 143.249 232.112 143.375 234.46 143.777C234.703 143.83 234.934 143.893 235.168 143.962C235.275 143.99 235.379 144.026 235.48 144.07C235.641 144.141 235.797 144.221 235.948 144.309C236.21 144.463 236.016 144.352 235.963 144.312C236.044 144.372 236.116 144.442 236.191 144.507C236.265 144.571 236.336 144.632 236.409 144.693C236.571 144.825 236.254 144.437 236.477 144.775C236.649 145.036 236.821 145.292 236.973 145.563C237.752 147.071 238.43 148.621 239.004 150.205C239.619 152.032 240.432 153.8 241.43 155.481C242.453 156.992 244.442 157.737 245.725 155.984C246.883 154.398 244.083 152.919 242.931 154.494C242.782 154.697 243.02 154.381 243.034 154.374C242.935 154.423 242.766 154.471 243.205 154.254C243.527 154.09 243.914 154.066 244.257 154.191C244.309 154.209 244.56 154.388 244.487 154.317C244.487 154.317 244.367 154.221 244.368 154.204C244.376 154.057 244.448 154.308 244.407 154.253C244.014 153.697 243.679 153.108 243.405 152.495C243.151 151.958 242.734 150.945 242.435 150.207C242.069 149.306 241.713 148.402 241.342 147.503C240.819 145.96 240.08 144.484 239.143 143.113C238.009 141.809 236.353 140.969 234.541 140.779C229.229 139.932 223.749 140.729 218.396 140.59C215.529 140.516 212.797 139.86 209.985 139.409C207.013 138.937 203.855 138.614 201.09 139.958C198.248 141.34 196.06 143.848 194.539 146.384C192.913 148.91 192.038 151.779 192 154.708C192.054 156.605 195.289 156.612 195.235 154.708L195.231 154.714Z" fill="#211715"/>
<path d="M185.204 32.3947C187.223 36.6154 189.796 40.5437 192.854 44.0742C194.142 45.6465 195.552 47.1137 197.07 48.462C198.198 49.5674 199.552 50.4114 201.038 50.9351C203.006 51.4824 203.847 48.4045 201.88 47.8581C201.756 47.8238 201.636 47.7831 201.515 47.7392C201.408 47.6977 201.442 47.7129 201.615 47.7831C201.536 47.7472 201.461 47.7089 201.384 47.6698C201.134 47.5278 200.885 47.3898 200.644 47.2318C200.066 46.8506 199.522 46.421 199.016 45.9474C197.552 44.6101 196.188 43.1662 194.934 41.6274C192.139 38.3398 189.787 34.6946 187.94 30.7864C187.494 30.0314 186.529 29.7764 185.772 30.2136C185.034 30.6713 184.783 31.6332 185.204 32.3971V32.3947Z" fill="#211715"/>
<path d="M185.052 30.8303C183.019 35.1981 180.209 39.1463 176.764 42.4762C175.043 44.1012 173.157 45.5365 171.139 46.7579C170.663 47.0465 170.182 47.3242 169.695 47.5911C169.573 47.6571 169.443 47.7158 169.325 47.79C169.02 47.9816 169.427 47.7582 169.537 47.7451C169.95 47.7104 170.352 47.8875 170.609 48.2172C170.453 48.0655 170.658 48.4536 170.591 48.1952C170.557 48.0615 170.516 47.9294 170.486 47.7941C170.412 47.4868 170.372 47.172 170.367 46.8557C170.216 44.8111 170.355 42.7558 170.213 40.7112C170.067 38.6298 166.858 38.6135 167.005 40.7112C167.148 42.7558 167.005 44.8111 167.16 46.8557C167.287 48.5751 167.801 51.532 170.217 50.9173C171.422 50.4721 172.555 49.8467 173.578 49.0618C174.761 48.2931 175.903 47.4601 176.998 46.5663C179.136 44.829 181.072 42.849 182.767 40.6647C184.738 38.1292 186.433 35.3843 187.822 32.4779C188.723 30.6029 185.957 28.9446 185.052 30.8328V30.8303Z" fill="#211715"/>
</svg>
